<svg width="1300" height="84" viewBox="0 0 1300 84" fill="none" xmlns="http://www.w3.org/2000/svg">
<path d="M625 70H675V73H625V70Z" fill="#FFCA42"/>
<path d="M473.456 33.3438C473.456 33.2344 473.518 33.1797 473.641 33.1797H474.215C475.555 33.1797 476.628 32.8926 477.435 32.3184C478.255 31.7441 478.665 31.0742 478.665 30.3086V7.60645C478.665 7.31934 478.604 7.16211 478.48 7.13477C478.371 7.09375 478.234 7.05957 478.07 7.03223H470.195C468.924 7.30566 468.09 8.2832 467.693 9.96484C467.475 10.8672 467.345 11.4482 467.304 11.708C467.263 11.9541 467.188 12.0771 467.078 12.0771H466.709C466.627 12.0771 466.586 12.0498 466.586 11.9951V11.3184L467.345 4.91992C467.427 4.49609 467.563 4.28418 467.755 4.28418C467.946 4.28418 468.151 4.4209 468.37 4.69434C468.589 4.9541 469.006 5.08398 469.621 5.08398H491.729C492.316 5.08398 492.672 5.01563 492.795 4.87891C492.918 4.74219 493.034 4.6123 493.144 4.48926C493.253 4.35254 493.39 4.28418 493.554 4.28418C493.731 4.28418 493.841 4.35254 493.882 4.48926C493.937 4.62598 493.978 4.76953 494.005 4.91992L494.764 11.3184V11.9951C494.764 12.0498 494.723 12.0771 494.641 12.0771H494.271C494.162 12.0771 494.087 11.9746 494.046 11.7695C493.827 10.4023 493.513 9.32227 493.103 8.5293C492.692 7.72266 492.043 7.22363 491.154 7.03223H483.259C483.095 7.05957 482.951 7.09375 482.828 7.13477C482.719 7.16211 482.664 7.31934 482.664 7.60645V30.3086C482.664 31.0742 483.067 31.7441 483.874 32.3184C484.694 32.8926 485.774 33.1797 487.114 33.1797H487.709C487.818 33.1797 487.873 33.2344 487.873 33.3438V33.8359C487.873 33.9453 487.818 34 487.709 34H473.62C473.511 34 473.456 33.9453 473.456 33.8359V33.3438ZM509.98 19.2959C509.816 19.2686 509.577 19.1797 509.263 19.0293C508.128 18.5098 507.239 18.25 506.597 18.25C505.954 18.25 505.277 18.6533 504.566 19.46C503.869 20.2529 503.521 20.9707 503.521 21.6133V30.8828C503.521 31.9082 504.115 32.5918 505.305 32.9336C505.824 33.0703 506.31 33.1729 506.761 33.2412C507.212 33.2959 507.499 33.3506 507.622 33.4053C507.759 33.46 507.827 33.5693 507.827 33.7334C507.827 33.8838 507.759 33.9727 507.622 34H497.348C497.211 33.9727 497.143 33.877 497.143 33.7129C497.143 33.4668 497.464 33.3027 498.106 33.2207C499.583 33.002 500.321 32.2227 500.321 30.8828V20.0342C500.321 19.46 500.007 19.0635 499.378 18.8447C499.104 18.749 498.811 18.6738 498.496 18.6191C498.182 18.5508 497.929 18.4893 497.737 18.4346C497.56 18.3799 497.443 18.332 497.389 18.291C497.348 18.2363 497.327 18.1338 497.327 17.9834C497.327 17.8193 497.43 17.6826 497.635 17.5732L502.864 15.1123C503.028 15.0303 503.131 14.9893 503.172 14.9893C503.404 14.9893 503.521 15.1533 503.521 15.4814V18.8037C503.521 18.9678 503.562 19.0498 503.644 19.0498C503.753 19.0498 504.033 18.7285 504.484 18.0859C505.783 16.2676 506.856 15.3584 507.704 15.3584C508.183 15.3584 508.914 15.5498 509.898 15.9326C510.896 16.3154 511.396 16.6367 511.396 16.8965C511.396 17.2109 511.238 17.6895 510.924 18.332C510.609 18.9746 510.295 19.2959 509.98 19.2959ZM526.879 32.1953C526.811 31.9629 526.722 31.8877 526.612 31.9697C526.503 32.0381 526.059 32.2705 525.279 32.667C522.723 33.9385 520.59 34.5742 518.881 34.5742C517.172 34.5742 515.941 34.0273 515.189 32.9336C514.916 32.5234 514.779 32.0176 514.779 31.416V18.9062C514.738 18.5098 514.561 18.168 514.246 17.8809C513.822 17.5254 513.378 17.334 512.913 17.3066C512.462 17.2793 512.236 17.1426 512.236 16.8965C512.236 16.6367 512.346 16.4795 512.564 16.4248L517.261 15.0713C517.425 15.0166 517.582 14.9893 517.732 14.9893C517.896 14.9893 517.979 15.1055 517.979 15.3379V29.0986C517.979 30.0557 518.402 30.7939 519.25 31.3135C520.098 31.833 521.178 32.0928 522.49 32.0928C523.816 32.0928 525.006 31.6895 526.059 30.8828C526.387 30.623 526.66 30.3359 526.879 30.0215V18.9062C526.838 18.5098 526.66 18.168 526.346 17.8809C525.922 17.5254 525.478 17.334 525.013 17.3066C524.562 17.2793 524.336 17.1426 524.336 16.8965C524.336 16.6367 524.445 16.4795 524.664 16.4248L529.36 15.0713C529.524 15.0166 529.682 14.9893 529.832 14.9893C529.996 14.9893 530.078 15.126 530.078 15.3994V29.96C530.146 30.5615 530.317 30.9922 530.591 31.252C530.864 31.5117 531.309 31.6416 531.924 31.6416L533.113 31.5596C533.195 31.5596 533.236 31.6416 533.236 31.8057C533.236 31.9561 533.134 32.0791 532.929 32.1748L527.474 34.4307C527.31 34.5127 527.166 34.5537 527.043 34.5537C526.934 34.5537 526.879 34.3828 526.879 34.041V32.1953ZM545.849 19.9727C545.849 20.2734 545.732 20.4238 545.5 20.4238C545.281 20.4238 545.11 20.2598 544.987 19.9316C544.659 19.0293 544.167 18.2295 543.511 17.5322C542.868 16.835 542.068 16.4863 541.111 16.4863C539.854 16.4863 539.006 17.1152 538.568 18.373C538.432 18.7969 538.363 19.2344 538.363 19.6855C538.363 20.1367 538.65 20.6426 539.225 21.2031C539.799 21.75 540.742 22.4062 542.055 23.1719C543.367 23.9375 544.324 24.5869 544.926 25.1201C546.293 26.3369 546.977 27.7451 546.977 29.3447C546.977 30.9443 546.389 32.2158 545.213 33.1592C544.037 34.0889 542.67 34.5537 541.111 34.5537C540.277 34.5537 539.519 34.4375 538.835 34.2051C538.165 33.9863 537.775 33.877 537.666 33.877C537.57 33.877 537.406 33.9863 537.174 34.2051C536.955 34.4375 536.777 34.5537 536.641 34.5537H536.292C536.21 34.5537 536.107 33.8154 535.984 32.3389C535.861 30.8623 535.8 29.9873 535.8 29.7139C535.8 29.4404 535.82 29.29 535.861 29.2627C535.916 29.2354 535.998 29.2217 536.107 29.2217C536.217 29.2217 536.306 29.2559 536.374 29.3242C536.456 29.3926 536.524 29.4814 536.579 29.5908C536.634 29.6865 536.675 29.7891 536.702 29.8984C536.743 30.0078 536.832 30.2129 536.969 30.5137C537.898 32.4961 539.334 33.4873 541.275 33.4873C542.137 33.4873 542.827 33.1729 543.347 32.5439C543.866 31.9014 544.126 31.1904 544.126 30.4111C544.126 29.6318 543.921 28.9756 543.511 28.4424C543.101 27.9092 542.588 27.4238 541.973 26.9863C541.371 26.5488 540.715 26.125 540.004 25.7148C537.242 24.1016 535.861 22.3174 535.861 20.3623C535.861 18.8994 536.49 17.6416 537.748 16.5889C539.006 15.5225 540.298 14.9893 541.624 14.9893C542.95 14.9893 543.928 15.1328 544.557 15.4199C545.199 15.707 545.575 15.9531 545.685 16.1582C545.794 16.3496 545.849 16.9922 545.849 18.0859V19.9727ZM554.954 18.2295C554.872 18.2295 554.831 18.291 554.831 18.4141V29.7344C554.831 30.5547 555.009 31.1973 555.364 31.6621C555.733 32.127 556.198 32.3594 556.759 32.3594C557.319 32.3594 557.805 32.2705 558.215 32.0928C558.639 31.9014 559.001 31.6963 559.302 31.4775C559.616 31.2588 559.896 31.0605 560.143 30.8828C560.389 30.6914 560.607 30.5957 560.799 30.5957C560.99 30.5957 561.086 30.6436 561.086 30.7393C561.086 31.0674 561.052 31.2793 560.983 31.375C559.343 33.4941 557.757 34.5537 556.226 34.5537C554.708 34.5537 553.56 34.0752 552.78 33.1182C552.015 32.1475 551.632 30.9922 551.632 29.6523V18.2295H550.094C549.711 18.2295 549.506 18.1064 549.479 17.8604C549.465 17.6143 549.506 17.457 549.602 17.3887C550.326 16.9238 551.324 16.0898 552.596 14.8867C552.732 14.7363 552.917 14.5107 553.149 14.21C553.382 13.9092 553.717 13.499 554.154 12.9795C554.605 12.46 554.947 12.2002 555.18 12.2002C555.412 12.2002 555.528 12.2959 555.528 12.4873C555.528 12.5146 555.296 13.4102 554.831 15.1738C554.831 15.4199 554.94 15.5498 555.159 15.5635H560.389C560.99 15.5635 561.291 16.4111 561.291 18.1064C561.291 18.1885 561.236 18.2295 561.127 18.2295H554.954ZM566.562 23.1924C566.329 23.1924 566.213 23.6914 566.213 24.6895C566.213 26.8086 566.842 28.5859 568.1 30.0215C569.357 31.457 570.916 32.1748 572.775 32.1748C574.648 32.1748 576.446 31.3682 578.169 29.7549C578.196 29.7275 578.23 29.7139 578.271 29.7139H578.374C578.456 29.7139 578.531 29.7822 578.6 29.9189C578.682 30.042 578.757 30.124 578.825 30.165C577.239 32.0928 575.373 33.4258 573.227 34.1641C572.488 34.4238 571.654 34.5537 570.725 34.5537C569.795 34.5537 568.852 34.3008 567.895 33.7949C566.938 33.2754 566.117 32.5986 565.434 31.7646C563.984 30.0283 563.26 27.8682 563.26 25.2842C563.26 22.6865 564.046 20.3213 565.618 18.1885C567.204 16.0557 569.378 14.9893 572.14 14.9893C574.122 14.9893 575.742 15.8779 577 17.6553C578.258 19.4189 578.887 20.9707 578.887 22.3105C578.887 22.8984 578.743 23.1924 578.456 23.1924H566.562ZM566.787 21.2236C566.787 21.4834 566.91 21.6133 567.156 21.6133H574.888C575.243 21.6133 575.421 21.4014 575.421 20.9775C575.421 19.9932 574.977 18.9883 574.088 17.9629C573.213 16.9238 572.249 16.4043 571.196 16.4043C570.171 16.4043 569.234 16.8691 568.387 17.7988C567.553 18.7285 567.02 19.7881 566.787 20.9775V21.2236ZM594.985 15.8506C595.587 16.0557 595.956 16.1582 596.093 16.1582C596.229 16.1582 596.312 16.1582 596.339 16.1582C596.38 16.1445 596.428 16.0557 596.482 15.8916V5.30957C596.482 4.73535 596.168 4.33887 595.539 4.12012C595.266 4.02441 594.972 3.94922 594.657 3.89453C594.343 3.82617 594.09 3.76465 593.898 3.70996C593.721 3.65527 593.604 3.60742 593.55 3.56641C593.509 3.51172 593.488 3.40918 593.488 3.25879C593.488 3.09473 593.591 2.95801 593.796 2.84863L599.025 0.387695C599.189 0.305664 599.292 0.264648 599.333 0.264648C599.565 0.264648 599.682 0.428711 599.682 0.756836V29.96C599.75 30.5615 599.921 30.9922 600.194 31.252C600.468 31.5117 600.912 31.6416 601.527 31.6416L602.717 31.5596C602.799 31.5596 602.84 31.6416 602.84 31.8057C602.84 31.9561 602.737 32.0791 602.532 32.1748L597.077 34.4307C596.913 34.5127 596.77 34.5537 596.646 34.5537C596.537 34.5537 596.482 34.3828 596.482 34.041V32.1748C596.482 32.0381 596.448 31.9697 596.38 31.9697C596.284 31.9697 595.717 32.2773 594.678 32.8926C591.492 34.7793 588.806 35.0596 586.618 33.7334C584.868 32.667 583.686 30.9785 583.07 28.668C582.783 27.5879 582.64 26.4463 582.64 25.2432C582.64 24.0264 582.886 22.8232 583.378 21.6338C583.884 20.4307 584.574 19.3779 585.449 18.4756C587.377 16.5068 589.701 15.5225 592.422 15.5225C593.529 15.5225 594.384 15.6318 594.985 15.8506ZM585.736 24.6484C585.736 26.7129 586.311 28.5244 587.459 30.083C588.607 31.6279 590.207 32.4004 592.258 32.4004C593.16 32.4004 594.09 32.1816 595.047 31.7441C596.004 31.293 596.482 30.9512 596.482 30.7188V20.1367C596.482 19.877 596.305 19.5693 595.949 19.2139C594.855 17.71 593.399 16.958 591.581 16.958C589.776 16.958 588.348 17.7236 587.295 19.2549C586.256 20.7725 585.736 22.5703 585.736 24.6484ZM614.898 34C614.789 34 614.734 33.9453 614.734 33.8359V33.3438C614.734 33.2344 614.83 33.1797 615.021 33.1797C615.664 33.1797 616.375 33.1113 617.154 32.9746C619.656 32.5508 620.907 31.6895 620.907 30.3906V8.75488C620.771 7.00488 619.971 6.05469 618.508 5.9043C618.07 5.84961 617.585 5.82227 617.052 5.82227H615.883C615.773 5.82227 615.719 5.76758 615.719 5.6582V5.14551C615.719 5.03613 615.773 4.98145 615.883 4.98145L616.785 4.96094L620.312 4.94043L627.613 4.71484C635.434 4.71484 639.344 7.02539 639.344 11.6465C639.344 13.6016 638.332 15.2285 636.309 16.5273C635.994 16.7324 635.721 16.8828 635.488 16.9785C635.27 17.0742 635.146 17.1289 635.119 17.1426C636.924 18.1543 638.339 19.2891 639.364 20.5469C640.403 21.8047 640.923 23.3086 640.923 25.0586C640.923 28.791 639.159 31.3887 635.632 32.8516C633.813 33.6172 631.838 34 629.705 34H614.898ZM625.275 18.0039C625.098 18.0039 625.009 18.0791 625.009 18.2295V29.4678C625.009 30.4385 625.46 31.2178 626.362 31.8057C627.278 32.3936 628.263 32.6875 629.315 32.6875C631.339 32.6875 633.062 31.9697 634.483 30.5342C635.905 29.085 636.616 27.3076 636.616 25.2021C636.616 23.083 635.851 21.3535 634.319 20.0137C632.802 18.6738 630.874 18.0039 628.536 18.0039H625.275ZM624.968 16.3428C624.968 16.6025 625.125 16.7324 625.439 16.7324H630.484C631.797 16.7324 632.897 16.2471 633.786 15.2764C634.688 14.3057 635.14 13.2188 635.14 12.0156C635.14 9.86914 634.531 8.31738 633.314 7.36035C632.098 6.38965 630.478 5.9043 628.454 5.9043C627.839 5.94531 627.408 5.96582 627.162 5.96582C626.93 5.96582 626.684 5.96582 626.424 5.96582C626.164 5.95215 625.904 5.96582 625.645 6.00684C625.385 6.04785 625.207 6.13672 625.111 6.27344C625.016 6.41016 624.968 6.63574 624.968 6.9502V16.3428ZM664.527 15.543C664.678 15.584 664.753 15.6797 664.753 15.8301C664.753 15.9805 664.739 16.083 664.712 16.1377C664.685 16.1787 664.616 16.2197 664.507 16.2607C664.411 16.2881 664.268 16.3154 664.076 16.3428C663.898 16.3701 663.611 16.4248 663.215 16.5068C662.818 16.5752 662.463 16.8486 662.148 17.3271C661.834 17.8057 661.499 18.4688 661.144 19.3164L651.505 43.208L650.172 46.0381C649.83 46.7627 649.112 47.125 648.019 47.125C647.54 47.125 647.157 46.9678 646.87 46.6533C646.583 46.3389 646.439 45.9629 646.439 45.5254C646.439 45.1016 646.542 44.7871 646.747 44.582C646.966 44.3906 647.219 44.2334 647.506 44.1104C647.793 43.9873 648.087 43.8711 648.388 43.7617C648.702 43.666 649.051 43.4336 649.434 43.0645C649.816 42.709 650.042 42.4424 650.11 42.2646C652.407 37.124 653.556 34.4375 653.556 34.2051C653.556 33.9727 653.419 33.6855 653.146 33.3438L646.378 19.2139C645.872 17.833 645.004 16.9443 643.773 16.5479C643.678 16.5205 643.562 16.5 643.425 16.4863C642.851 16.4316 642.563 16.2607 642.563 15.9736C642.563 15.6865 642.728 15.543 643.056 15.543H652.182C652.291 15.543 652.346 15.6523 652.346 15.8711C652.346 16.0762 652.25 16.2197 652.059 16.3018C651.867 16.3701 651.443 16.4043 650.787 16.4043C649.734 16.4043 649.208 16.8145 649.208 17.6348L649.393 18.127L654.704 29.5088C654.978 30.2061 655.251 30.1855 655.524 29.4473C655.552 29.3789 655.723 28.9346 656.037 28.1143C657.896 23.3975 658.936 20.6699 659.154 19.9316C659.387 19.1934 659.503 18.6396 659.503 18.2705C659.503 17.9014 659.305 17.5117 658.908 17.1016C658.525 16.6914 657.992 16.4863 657.309 16.4863C656.639 16.4863 656.304 16.2881 656.304 15.8916C656.304 15.6592 656.454 15.543 656.755 15.543H664.527ZM684.728 33.3438C684.728 33.2344 684.789 33.1797 684.912 33.1797H685.486C686.826 33.1797 687.899 32.8926 688.706 32.3184C689.526 31.7441 689.937 31.0742 689.937 30.3086V7.60645C689.937 7.31934 689.875 7.16211 689.752 7.13477C689.643 7.09375 689.506 7.05957 689.342 7.03223H681.467C680.195 7.30566 679.361 8.2832 678.965 9.96484C678.746 10.8672 678.616 11.4482 678.575 11.708C678.534 11.9541 678.459 12.0771 678.35 12.0771H677.98C677.898 12.0771 677.857 12.0498 677.857 11.9951V11.3184L678.616 4.91992C678.698 4.49609 678.835 4.28418 679.026 4.28418C679.218 4.28418 679.423 4.4209 679.642 4.69434C679.86 4.9541 680.277 5.08398 680.893 5.08398H703C703.588 5.08398 703.943 5.01563 704.066 4.87891C704.189 4.74219 704.306 4.6123 704.415 4.48926C704.524 4.35254 704.661 4.28418 704.825 4.28418C705.003 4.28418 705.112 4.35254 705.153 4.48926C705.208 4.62598 705.249 4.76953 705.276 4.91992L706.035 11.3184V11.9951C706.035 12.0498 705.994 12.0771 705.912 12.0771H705.543C705.434 12.0771 705.358 11.9746 705.317 11.7695C705.099 10.4023 704.784 9.32227 704.374 8.5293C703.964 7.72266 703.314 7.22363 702.426 7.03223H694.53C694.366 7.05957 694.223 7.09375 694.1 7.13477C693.99 7.16211 693.936 7.31934 693.936 7.60645V30.3086C693.936 31.0742 694.339 31.7441 695.146 32.3184C695.966 32.8926 697.046 33.1797 698.386 33.1797H698.98C699.09 33.1797 699.145 33.2344 699.145 33.3438V33.8359C699.145 33.9453 699.09 34 698.98 34H684.892C684.782 34 684.728 33.9453 684.728 33.8359V33.3438ZM714.341 18.127C714.341 18.4551 714.389 18.6191 714.484 18.6191C714.58 18.6191 714.648 18.5986 714.689 18.5576C714.73 18.5029 715.018 18.1816 715.551 17.5938C717.096 15.8711 718.661 15.0098 720.247 15.0098C722.325 15.0098 723.85 15.4746 724.82 16.4043C726.01 17.5801 726.604 19.5557 726.604 22.3311V30.8828C726.604 32.2227 727.343 33.002 728.819 33.2207C729.462 33.3027 729.783 33.4463 729.783 33.6514C729.783 33.8564 729.715 33.9727 729.578 34H720.432C720.295 33.9727 720.227 33.877 720.227 33.7129C720.227 33.4668 720.548 33.3027 721.19 33.2207C722.667 33.002 723.405 32.2227 723.405 30.8828V22.5361C723.405 20.5264 723.262 19.2207 722.975 18.6191C722.428 17.416 721.286 16.8145 719.55 16.8145C718.483 16.8145 717.349 17.2725 716.146 18.1885C714.942 19.0908 714.341 20.0889 714.341 21.1826V30.8828C714.341 32.2227 715.079 33.002 716.556 33.2207C717.198 33.3027 717.52 33.4463 717.52 33.6514C717.52 33.8564 717.451 33.9727 717.314 34H708.168C708.031 33.9727 707.963 33.877 707.963 33.7129C707.963 33.4668 708.284 33.3027 708.927 33.2207C710.403 33.002 711.142 32.2227 711.142 30.8828V5.30957C711.142 4.73535 710.827 4.33887 710.198 4.12012C709.925 4.02441 709.631 3.94922 709.316 3.89453C709.002 3.82617 708.749 3.76465 708.558 3.70996C708.38 3.65527 708.264 3.60742 708.209 3.56641C708.168 3.51172 708.147 3.40918 708.147 3.25879C708.147 3.09473 708.25 2.95801 708.455 2.84863L713.685 0.387695C713.849 0.305664 713.951 0.264648 713.992 0.264648C714.225 0.264648 714.341 0.428711 714.341 0.756836V18.127ZM735.136 23.1924C734.903 23.1924 734.787 23.6914 734.787 24.6895C734.787 26.8086 735.416 28.5859 736.674 30.0215C737.932 31.457 739.49 32.1748 741.35 32.1748C743.223 32.1748 745.021 31.3682 746.743 29.7549C746.771 29.7275 746.805 29.7139 746.846 29.7139H746.948C747.03 29.7139 747.105 29.7822 747.174 29.9189C747.256 30.042 747.331 30.124 747.399 30.165C745.813 32.0928 743.947 33.4258 741.801 34.1641C741.062 34.4238 740.229 34.5537 739.299 34.5537C738.369 34.5537 737.426 34.3008 736.469 33.7949C735.512 33.2754 734.691 32.5986 734.008 31.7646C732.559 30.0283 731.834 27.8682 731.834 25.2842C731.834 22.6865 732.62 20.3213 734.192 18.1885C735.778 16.0557 737.952 14.9893 740.714 14.9893C742.696 14.9893 744.316 15.8779 745.574 17.6553C746.832 19.4189 747.461 20.9707 747.461 22.3105C747.461 22.8984 747.317 23.1924 747.03 23.1924H735.136ZM735.361 21.2236C735.361 21.4834 735.484 21.6133 735.73 21.6133H743.462C743.817 21.6133 743.995 21.4014 743.995 20.9775C743.995 19.9932 743.551 18.9883 742.662 17.9629C741.787 16.9238 740.823 16.4043 739.771 16.4043C738.745 16.4043 737.809 16.8691 736.961 17.7988C736.127 18.7285 735.594 19.7881 735.361 20.9775V21.2236ZM761.119 34C761.01 34 760.955 33.9453 760.955 33.8359V33.3438C760.955 33.2344 761.051 33.1797 761.242 33.1797C761.885 33.1797 762.596 33.1113 763.375 32.9746C765.877 32.5508 767.128 31.6895 767.128 30.3906V8.75488C766.991 7.00488 766.191 6.05469 764.729 5.9043C764.291 5.84961 763.806 5.82227 763.272 5.82227H762.104C761.994 5.82227 761.939 5.76758 761.939 5.6582V5.14551C761.939 5.03613 761.994 4.98145 762.104 4.98145L763.006 4.96094L766.533 4.94043L773.834 4.71484C781.654 4.71484 785.564 7.02539 785.564 11.6465C785.564 13.6016 784.553 15.2285 782.529 16.5273C782.215 16.7324 781.941 16.8828 781.709 16.9785C781.49 17.0742 781.367 17.1289 781.34 17.1426C783.145 18.1543 784.56 19.2891 785.585 20.5469C786.624 21.8047 787.144 23.3086 787.144 25.0586C787.144 28.791 785.38 31.3887 781.853 32.8516C780.034 33.6172 778.059 34 775.926 34H761.119ZM771.496 18.0039C771.318 18.0039 771.229 18.0791 771.229 18.2295V29.4678C771.229 30.4385 771.681 31.2178 772.583 31.8057C773.499 32.3936 774.483 32.6875 775.536 32.6875C777.56 32.6875 779.282 31.9697 780.704 30.5342C782.126 29.085 782.837 27.3076 782.837 25.2021C782.837 23.083 782.071 21.3535 780.54 20.0137C779.022 18.6738 777.095 18.0039 774.757 18.0039H771.496ZM771.188 16.3428C771.188 16.6025 771.346 16.7324 771.66 16.7324H776.705C778.018 16.7324 779.118 16.2471 780.007 15.2764C780.909 14.3057 781.36 13.2188 781.36 12.0156C781.36 9.86914 780.752 8.31738 779.535 7.36035C778.318 6.38965 776.698 5.9043 774.675 5.9043C774.06 5.94531 773.629 5.96582 773.383 5.96582C773.15 5.96582 772.904 5.96582 772.645 5.96582C772.385 5.95215 772.125 5.96582 771.865 6.00684C771.605 6.04785 771.428 6.13672 771.332 6.27344C771.236 6.41016 771.188 6.63574 771.188 6.9502V16.3428ZM794.034 23.1924C793.802 23.1924 793.686 23.6914 793.686 24.6895C793.686 26.8086 794.314 28.5859 795.572 30.0215C796.83 31.457 798.389 32.1748 800.248 32.1748C802.121 32.1748 803.919 31.3682 805.642 29.7549C805.669 29.7275 805.703 29.7139 805.744 29.7139H805.847C805.929 29.7139 806.004 29.7822 806.072 29.9189C806.154 30.042 806.229 30.124 806.298 30.165C804.712 32.0928 802.846 33.4258 800.699 34.1641C799.961 34.4238 799.127 34.5537 798.197 34.5537C797.268 34.5537 796.324 34.3008 795.367 33.7949C794.41 33.2754 793.59 32.5986 792.906 31.7646C791.457 30.0283 790.732 27.8682 790.732 25.2842C790.732 22.6865 791.519 20.3213 793.091 18.1885C794.677 16.0557 796.851 14.9893 799.612 14.9893C801.595 14.9893 803.215 15.8779 804.473 17.6553C805.73 19.4189 806.359 20.9707 806.359 22.3105C806.359 22.8984 806.216 23.1924 805.929 23.1924H794.034ZM794.26 21.2236C794.26 21.4834 794.383 21.6133 794.629 21.6133H802.36C802.716 21.6133 802.894 21.4014 802.894 20.9775C802.894 19.9932 802.449 18.9883 801.561 17.9629C800.686 16.9238 799.722 16.4043 798.669 16.4043C797.644 16.4043 796.707 16.8691 795.859 17.7988C795.025 18.7285 794.492 19.7881 794.26 20.9775V21.2236ZM819.751 19.9727C819.751 20.2734 819.635 20.4238 819.402 20.4238C819.184 20.4238 819.013 20.2598 818.89 19.9316C818.562 19.0293 818.069 18.2295 817.413 17.5322C816.771 16.835 815.971 16.4863 815.014 16.4863C813.756 16.4863 812.908 17.1152 812.471 18.373C812.334 18.7969 812.266 19.2344 812.266 19.6855C812.266 20.1367 812.553 20.6426 813.127 21.2031C813.701 21.75 814.645 22.4062 815.957 23.1719C817.27 23.9375 818.227 24.5869 818.828 25.1201C820.195 26.3369 820.879 27.7451 820.879 29.3447C820.879 30.9443 820.291 32.2158 819.115 33.1592C817.939 34.0889 816.572 34.5537 815.014 34.5537C814.18 34.5537 813.421 34.4375 812.737 34.2051C812.067 33.9863 811.678 33.877 811.568 33.877C811.473 33.877 811.309 33.9863 811.076 34.2051C810.857 34.4375 810.68 34.5537 810.543 34.5537H810.194C810.112 34.5537 810.01 33.8154 809.887 32.3389C809.764 30.8623 809.702 29.9873 809.702 29.7139C809.702 29.4404 809.723 29.29 809.764 29.2627C809.818 29.2354 809.9 29.2217 810.01 29.2217C810.119 29.2217 810.208 29.2559 810.276 29.3242C810.358 29.3926 810.427 29.4814 810.481 29.5908C810.536 29.6865 810.577 29.7891 810.604 29.8984C810.646 30.0078 810.734 30.2129 810.871 30.5137C811.801 32.4961 813.236 33.4873 815.178 33.4873C816.039 33.4873 816.729 33.1729 817.249 32.5439C817.769 31.9014 818.028 31.1904 818.028 30.4111C818.028 29.6318 817.823 28.9756 817.413 28.4424C817.003 27.9092 816.49 27.4238 815.875 26.9863C815.273 26.5488 814.617 26.125 813.906 25.7148C811.145 24.1016 809.764 22.3174 809.764 20.3623C809.764 18.8994 810.393 17.6416 811.65 16.5889C812.908 15.5225 814.2 14.9893 815.526 14.9893C816.853 14.9893 817.83 15.1328 818.459 15.4199C819.102 15.707 819.478 15.9531 819.587 16.1582C819.696 16.3496 819.751 16.9922 819.751 18.0859V19.9727ZM828.856 18.2295C828.774 18.2295 828.733 18.291 828.733 18.4141V29.7344C828.733 30.5547 828.911 31.1973 829.267 31.6621C829.636 32.127 830.101 32.3594 830.661 32.3594C831.222 32.3594 831.707 32.2705 832.117 32.0928C832.541 31.9014 832.903 31.6963 833.204 31.4775C833.519 31.2588 833.799 31.0605 834.045 30.8828C834.291 30.6914 834.51 30.5957 834.701 30.5957C834.893 30.5957 834.988 30.6436 834.988 30.7393C834.988 31.0674 834.954 31.2793 834.886 31.375C833.245 33.4941 831.659 34.5537 830.128 34.5537C828.61 34.5537 827.462 34.0752 826.683 33.1182C825.917 32.1475 825.534 30.9922 825.534 29.6523V18.2295H823.996C823.613 18.2295 823.408 18.1064 823.381 17.8604C823.367 17.6143 823.408 17.457 823.504 17.3887C824.229 16.9238 825.227 16.0898 826.498 14.8867C826.635 14.7363 826.819 14.5107 827.052 14.21C827.284 13.9092 827.619 13.499 828.057 12.9795C828.508 12.46 828.85 12.2002 829.082 12.2002C829.314 12.2002 829.431 12.2959 829.431 12.4873C829.431 12.5146 829.198 13.4102 828.733 15.1738C828.733 15.4199 828.843 15.5498 829.062 15.5635H834.291C834.893 15.5635 835.193 16.4111 835.193 18.1064C835.193 18.1885 835.139 18.2295 835.029 18.2295H828.856Z" fill="#1B3764"/>
</svg>
