<svg width="219" height="120" viewBox="0 0 219 120" fill="none" xmlns="http://www.w3.org/2000/svg">
<path d="M15.7617 17.5547C15.7227 17.6172 15.625 17.6328 15.4688 17.6016C15.3203 17.5625 15.1445 17.543 14.9414 17.543C14.7383 17.543 14.4492 17.5859 14.0742 17.6719C13.707 17.75 13.125 17.875 12.3281 18.0469C11.5312 18.2266 10.8047 18.3164 10.1484 18.3164C8.66406 18.3164 7.22266 17.9688 5.82422 17.2734C4.43359 16.5703 3.32031 15.5781 2.48438 14.2969C1.64844 13.0078 1.23047 11.5156 1.23047 9.82031C1.23047 8.125 1.64844 6.58984 2.48438 5.21484C3.70312 3.19922 5.53906 1.88672 7.99219 1.27734C8.77344 1.08203 9.55469 0.984375 10.3359 0.984375C11.4062 0.984375 12.6758 1.16406 14.1445 1.52344C14.5898 1.63281 14.9648 1.74609 15.2695 1.86328C15.582 1.98047 15.7734 2.03906 15.8438 2.03906L16.1953 1.94531H16.5586C16.6523 1.94531 16.6992 2.01172 16.6992 2.14453V5.78906C16.6992 5.86719 16.6289 5.90625 16.4883 5.90625C16.3477 5.90625 16.2656 5.89062 16.2422 5.85938C16.2188 5.82031 16.1953 5.77734 16.1719 5.73047C16.1484 5.67578 16.1211 5.62109 16.0898 5.56641C16.0664 5.51172 16.0391 5.46094 16.0078 5.41406C15.9844 5.36719 15.9688 5.33203 15.9609 5.30859C14.7891 2.95703 13.0117 1.78125 10.6289 1.78125C8.48047 1.78125 6.80078 2.46484 5.58984 3.83203C4.37891 5.19922 3.77344 7.01172 3.77344 9.26953C3.77344 11.5195 4.4375 13.4531 5.76562 15.0703C7.10156 16.6875 8.91406 17.4961 11.2031 17.4961C12.4531 17.4961 13.5898 17.125 14.6133 16.3828C15.6445 15.6406 16.4531 14.7305 17.0391 13.6523C17.0547 13.6055 17.1016 13.582 17.1797 13.582H17.332C17.4102 13.582 17.4492 13.6289 17.4492 13.7227C17.4492 13.8164 17.4258 13.9062 17.3789 13.9922L15.7617 17.5547ZM19.2305 12.7383C19.2305 11.1992 19.7734 9.87891 20.8594 8.77734C21.9531 7.66797 23.2617 7.11328 24.7852 7.11328C26.3086 7.11328 27.6328 7.65234 28.7578 8.73047C29.8828 9.80078 30.4453 11.125 30.4453 12.7031C30.4453 14.2812 29.9102 15.6133 28.8398 16.6992C27.7773 17.7773 26.4414 18.3164 24.832 18.3164C23.2227 18.3164 21.8867 17.7695 20.8242 16.6758C19.7617 15.582 19.2305 14.2695 19.2305 12.7383ZM22.1484 15.75C22.9141 17.0391 23.957 17.6836 25.2773 17.6836C26.3008 17.6836 27.082 17.2734 27.6211 16.4531C28.168 15.6328 28.4414 14.625 28.4414 13.4297C28.4414 12.2344 28.0586 11.0078 27.293 9.75C26.5352 8.49219 25.5117 7.86328 24.2227 7.86328C23.2773 7.86328 22.5312 8.27344 21.9844 9.09375C21.4453 9.90625 21.1758 10.9414 21.1758 12.1992C21.1758 13.4492 21.5 14.6328 22.1484 15.75ZM40.7578 14.3086L40.7344 11.8359C40.7344 10.8281 40.6484 10.1211 40.4766 9.71484C40.3047 9.30859 40.0859 9.00391 39.8203 8.80078C39.5547 8.58984 39.1953 8.48438 38.7422 8.48438C38.2969 8.48438 37.3477 8.83594 35.8945 9.53906C35.6992 9.65625 35.5977 9.76562 35.5898 9.86719V16.1719C35.5898 16.9609 36.0117 17.4141 36.8555 17.5312C37.2227 17.5859 37.4062 17.6758 37.4062 17.8008C37.4062 17.918 37.3672 17.9844 37.2891 18H32.0625C31.9844 17.9844 31.9453 17.9297 31.9453 17.8359C31.9453 17.6875 32.1289 17.5859 32.4961 17.5312C33.3398 17.4141 33.7617 16.9609 33.7617 16.1719V9.44531C33.7617 9.11719 33.582 8.89062 33.2227 8.76562C33.0664 8.71094 32.8984 8.66797 32.7188 8.63672C32.5391 8.59766 32.3945 8.5625 32.2852 8.53125C32.1836 8.5 32.1172 8.47266 32.0859 8.44922C32.0625 8.41797 32.0508 8.35938 32.0508 8.27344C32.0508 8.17969 32.1094 8.10156 32.2266 8.03906L35.2148 6.63281C35.3086 6.58594 35.3672 6.5625 35.3906 6.5625C35.5234 6.5625 35.5898 6.65625 35.5898 6.84375V8.67188C35.6133 8.75 35.6445 8.78906 35.6836 8.78906C35.7305 8.78906 35.8984 8.71875 36.1875 8.57812C36.8594 8.24219 37.5352 7.91797 38.2148 7.60547C38.8945 7.29297 39.457 7.13672 39.9023 7.13672C41.707 7.13672 42.6094 8.78125 42.6094 12.0703L42.5039 15.4922V16.1719C42.5039 16.7812 42.8086 17.1797 43.418 17.3672C43.6758 17.4531 43.9219 17.5156 44.1562 17.5547C44.3984 17.5859 44.5547 17.6172 44.625 17.6484C44.7031 17.6797 44.7422 17.7422 44.7422 17.8359C44.7422 17.9297 44.7031 17.9844 44.625 18H38.9766C38.8984 17.9844 38.8594 17.9297 38.8594 17.8359C38.8594 17.6875 39.043 17.5859 39.4102 17.5312C40.2461 17.4141 40.6641 16.9297 40.6641 16.0781C40.7266 15.6875 40.7578 15.0977 40.7578 14.3086ZM51.4805 9.98438C51.4805 10.1562 51.4141 10.2422 51.2812 10.2422C51.1562 10.2422 51.0586 10.1484 50.9883 9.96094C50.8008 9.44531 50.5195 8.98828 50.1445 8.58984C49.7773 8.19141 49.3203 7.99219 48.7734 7.99219C48.0547 7.99219 47.5703 8.35156 47.3203 9.07031C47.2422 9.3125 47.2031 9.5625 47.2031 9.82031C47.2031 10.0781 47.3672 10.3672 47.6953 10.6875C48.0234 11 48.5625 11.375 49.3125 11.8125C50.0625 12.25 50.6094 12.6211 50.9531 12.9258C51.7344 13.6211 52.125 14.4258 52.125 15.3398C52.125 16.2539 51.7891 16.9805 51.1172 17.5195C50.4453 18.0508 49.6641 18.3164 48.7734 18.3164C48.2969 18.3164 47.8633 18.25 47.4727 18.1172C47.0898 17.9922 46.8672 17.9297 46.8047 17.9297C46.75 17.9297 46.6562 17.9922 46.5234 18.1172C46.3984 18.25 46.2969 18.3164 46.2188 18.3164H46.0195C45.9727 18.3164 45.9141 17.8945 45.8438 17.0508C45.7734 16.207 45.7383 15.707 45.7383 15.5508C45.7383 15.3945 45.75 15.3086 45.7734 15.293C45.8047 15.2773 45.8516 15.2695 45.9141 15.2695C45.9766 15.2695 46.0273 15.2891 46.0664 15.3281C46.1133 15.3672 46.1523 15.418 46.1836 15.4805C46.2148 15.5352 46.2383 15.5938 46.2539 15.6562C46.2773 15.7188 46.3281 15.8359 46.4062 16.0078C46.9375 17.1406 47.7578 17.707 48.8672 17.707C49.3594 17.707 49.7539 17.5273 50.0508 17.168C50.3477 16.8008 50.4961 16.3945 50.4961 15.9492C50.4961 15.5039 50.3789 15.1289 50.1445 14.8242C49.9102 14.5195 49.6172 14.2422 49.2656 13.9922C48.9219 13.7422 48.5469 13.5 48.1406 13.2656C46.5625 12.3438 45.7734 11.3242 45.7734 10.207C45.7734 9.37109 46.1328 8.65234 46.8516 8.05078C47.5703 7.44141 48.3086 7.13672 49.0664 7.13672C49.8242 7.13672 50.3828 7.21875 50.7422 7.38281C51.1094 7.54688 51.3242 7.6875 51.3867 7.80469C51.4492 7.91406 51.4805 8.28125 51.4805 8.90625V9.98438ZM61.8516 16.9688C61.8125 16.8359 61.7617 16.793 61.6992 16.8398C61.6367 16.8789 61.3828 17.0117 60.9375 17.2383C59.4766 17.9648 58.2578 18.3281 57.2812 18.3281C56.3047 18.3281 55.6016 18.0156 55.1719 17.3906C55.0156 17.1562 54.9375 16.8672 54.9375 16.5234V9.375C54.9141 9.14844 54.8125 8.95312 54.6328 8.78906C54.3906 8.58594 54.1367 8.47656 53.8711 8.46094C53.6133 8.44531 53.4844 8.36719 53.4844 8.22656C53.4844 8.07812 53.5469 7.98828 53.6719 7.95703L56.3555 7.18359C56.4492 7.15234 56.5391 7.13672 56.625 7.13672C56.7188 7.13672 56.7656 7.20312 56.7656 7.33594V15.1992C56.7656 15.7461 57.0078 16.168 57.4922 16.4648C57.9766 16.7617 58.5938 16.9102 59.3438 16.9102C60.1016 16.9102 60.7812 16.6797 61.3828 16.2188C61.5703 16.0703 61.7266 15.9062 61.8516 15.7266V9.375C61.8281 9.14844 61.7266 8.95312 61.5469 8.78906C61.3047 8.58594 61.0508 8.47656 60.7852 8.46094C60.5273 8.44531 60.3984 8.36719 60.3984 8.22656C60.3984 8.07812 60.4609 7.98828 60.5859 7.95703L63.2695 7.18359C63.3633 7.15234 63.4531 7.13672 63.5391 7.13672C63.6328 7.13672 63.6797 7.21484 63.6797 7.37109V15.6914C63.7188 16.0352 63.8164 16.2812 63.9727 16.4297C64.1289 16.5781 64.3828 16.6523 64.7344 16.6523L65.4141 16.6055C65.4609 16.6055 65.4844 16.6523 65.4844 16.7461C65.4844 16.832 65.4258 16.9023 65.3086 16.957L62.1914 18.2461C62.0977 18.293 62.0156 18.3164 61.9453 18.3164C61.8828 18.3164 61.8516 18.2188 61.8516 18.0234V16.9688ZM82.4531 14.3086L82.4297 11.8359C82.4297 10.8281 82.3438 10.1211 82.1719 9.71484C82 9.30859 81.7812 9.00391 81.5156 8.80078C81.25 8.58984 80.8906 8.48438 80.4375 8.48438C79.9922 8.48438 79.043 8.83594 77.5898 9.53906C77.3945 9.65625 77.293 9.76562 77.2852 9.86719V16.1719C77.2852 16.9609 77.707 17.4141 78.5508 17.5312C78.918 17.5859 79.1016 17.6758 79.1016 17.8008C79.1016 17.918 79.0625 17.9844 78.9844 18H73.7578C73.6797 17.9844 73.6406 17.9297 73.6406 17.8359C73.6406 17.6875 73.8242 17.5859 74.1914 17.5312C75.0352 17.4141 75.457 16.9609 75.457 16.1719V10.3359C75.457 9.10938 74.6992 8.49609 73.1836 8.49609C72.6289 8.49609 71.8594 8.82422 70.875 9.48047C70.625 9.64453 70.4414 9.79688 70.3242 9.9375V16.1719C70.3242 16.9609 70.7461 17.4141 71.5898 17.5312C71.957 17.5859 72.1406 17.6758 72.1406 17.8008C72.1406 17.918 72.1016 17.9844 72.0234 18H66.7969C66.7188 17.9844 66.6797 17.9297 66.6797 17.8359C66.6797 17.6875 66.8633 17.5859 67.2305 17.5312C68.0742 17.4141 68.4961 16.9688 68.4961 16.1953V9.44531C68.4961 9.11719 68.3164 8.89062 67.957 8.76562C67.8008 8.71094 67.6328 8.66797 67.4531 8.63672C67.2734 8.59766 67.1289 8.5625 67.0195 8.53125C66.918 8.5 66.8516 8.47266 66.8203 8.44922C66.7969 8.41797 66.7852 8.35938 66.7852 8.27344C66.7852 8.17969 66.8438 8.10156 66.9609 8.03906L69.9492 6.63281C70.043 6.58594 70.1016 6.5625 70.125 6.5625C70.2578 6.5625 70.3242 6.65625 70.3242 6.84375V8.78906C70.332 8.83594 70.3594 8.85938 70.4062 8.85938C70.4609 8.85938 70.5898 8.80469 70.793 8.69531C71.0039 8.58594 71.2773 8.43359 71.6133 8.23828C71.9492 8.03516 72.3906 7.80078 72.9375 7.53516C73.4922 7.26953 74.0781 7.13672 74.6953 7.13672C75.6875 7.13672 76.3984 7.5625 76.8281 8.41406C76.9922 8.75781 77.1406 8.90625 77.2734 8.85938C77.4062 8.80469 77.6133 8.70703 77.8945 8.56641C78.5586 8.23828 79.2305 7.91797 79.9102 7.60547C80.5898 7.29297 81.1523 7.13672 81.5977 7.13672C83.4023 7.13672 84.3047 8.78125 84.3047 12.0703L84.1992 15.4922V16.1719C84.1992 16.7812 84.5039 17.1797 85.1133 17.3672C85.3711 17.4531 85.6172 17.5156 85.8516 17.5547C86.0938 17.5859 86.25 17.6172 86.3203 17.6484C86.3984 17.6797 86.4375 17.7422 86.4375 17.8359C86.4375 17.9297 86.3984 17.9844 86.3203 18H80.6719C80.5938 17.9844 80.5547 17.9297 80.5547 17.8359C80.5547 17.6875 80.7383 17.5859 81.1055 17.5312C81.9414 17.4141 82.3594 16.9297 82.3594 16.0781C82.4219 15.6875 82.4531 15.0977 82.4531 14.3086ZM89.1914 11.8242C89.0586 11.8242 88.9922 12.1094 88.9922 12.6797C88.9922 13.8906 89.3516 14.9062 90.0703 15.7266C90.7891 16.5469 91.6797 16.957 92.7422 16.957C93.8125 16.957 94.8398 16.4961 95.8242 15.5742C95.8398 15.5586 95.8594 15.5508 95.8828 15.5508H95.9414C95.9883 15.5508 96.0312 15.5898 96.0703 15.668C96.1172 15.7383 96.1602 15.7852 96.1992 15.8086C95.293 16.9102 94.2266 17.6719 93 18.0938C92.5781 18.2422 92.1016 18.3164 91.5703 18.3164C91.0391 18.3164 90.5 18.1719 89.9531 17.8828C89.4062 17.5859 88.9375 17.1992 88.5469 16.7227C87.7188 15.7305 87.3047 14.4961 87.3047 13.0195C87.3047 11.5352 87.7539 10.1836 88.6523 8.96484C89.5586 7.74609 90.8008 7.13672 92.3789 7.13672C93.5117 7.13672 94.4375 7.64453 95.1562 8.66016C95.875 9.66797 96.2344 10.5547 96.2344 11.3203C96.2344 11.6562 96.1523 11.8242 95.9883 11.8242H89.1914ZM89.3203 10.6992C89.3203 10.8477 89.3906 10.9219 89.5312 10.9219H93.9492C94.1523 10.9219 94.2539 10.8008 94.2539 10.5586C94.2539 9.99609 94 9.42188 93.4922 8.83594C92.9922 8.24219 92.4414 7.94531 91.8398 7.94531C91.2539 7.94531 90.7188 8.21094 90.2344 8.74219C89.7578 9.27344 89.4531 9.87891 89.3203 10.5586V10.6992ZM110.332 9.98438C110.332 10.1562 110.266 10.2422 110.133 10.2422C110.008 10.2422 109.91 10.1484 109.84 9.96094C109.652 9.44531 109.371 8.98828 108.996 8.58984C108.629 8.19141 108.172 7.99219 107.625 7.99219C106.906 7.99219 106.422 8.35156 106.172 9.07031C106.094 9.3125 106.055 9.5625 106.055 9.82031C106.055 10.0781 106.219 10.3672 106.547 10.6875C106.875 11 107.414 11.375 108.164 11.8125C108.914 12.25 109.461 12.6211 109.805 12.9258C110.586 13.6211 110.977 14.4258 110.977 15.3398C110.977 16.2539 110.641 16.9805 109.969 17.5195C109.297 18.0508 108.516 18.3164 107.625 18.3164C107.148 18.3164 106.715 18.25 106.324 18.1172C105.941 17.9922 105.719 17.9297 105.656 17.9297C105.602 17.9297 105.508 17.9922 105.375 18.1172C105.25 18.25 105.148 18.3164 105.07 18.3164H104.871C104.824 18.3164 104.766 17.8945 104.695 17.0508C104.625 16.207 104.59 15.707 104.59 15.5508C104.59 15.3945 104.602 15.3086 104.625 15.293C104.656 15.2773 104.703 15.2695 104.766 15.2695C104.828 15.2695 104.879 15.2891 104.918 15.3281C104.965 15.3672 105.004 15.418 105.035 15.4805C105.066 15.5352 105.09 15.5938 105.105 15.6562C105.129 15.7188 105.18 15.8359 105.258 16.0078C105.789 17.1406 106.609 17.707 107.719 17.707C108.211 17.707 108.605 17.5273 108.902 17.168C109.199 16.8008 109.348 16.3945 109.348 15.9492C109.348 15.5039 109.23 15.1289 108.996 14.8242C108.762 14.5195 108.469 14.2422 108.117 13.9922C107.773 13.7422 107.398 13.5 106.992 13.2656C105.414 12.3438 104.625 11.3242 104.625 10.207C104.625 9.37109 104.984 8.65234 105.703 8.05078C106.422 7.44141 107.16 7.13672 107.918 7.13672C108.676 7.13672 109.234 7.21875 109.594 7.38281C109.961 7.54688 110.176 7.6875 110.238 7.80469C110.301 7.91406 110.332 8.28125 110.332 8.90625V9.98438ZM115.535 8.98828C115.488 8.98828 115.465 9.02344 115.465 9.09375V15.5625C115.465 16.0312 115.566 16.3984 115.77 16.6641C115.98 16.9297 116.246 17.0625 116.566 17.0625C116.887 17.0625 117.164 17.0117 117.398 16.9102C117.641 16.8008 117.848 16.6836 118.02 16.5586C118.199 16.4336 118.359 16.3203 118.5 16.2188C118.641 16.1094 118.766 16.0547 118.875 16.0547C118.984 16.0547 119.039 16.082 119.039 16.1367C119.039 16.3242 119.02 16.4453 118.98 16.5C118.043 17.7109 117.137 18.3164 116.262 18.3164C115.395 18.3164 114.738 18.043 114.293 17.4961C113.855 16.9414 113.637 16.2812 113.637 15.5156V8.98828H112.758C112.539 8.98828 112.422 8.91797 112.406 8.77734C112.398 8.63672 112.422 8.54688 112.477 8.50781C112.891 8.24219 113.461 7.76562 114.188 7.07812C114.266 6.99219 114.371 6.86328 114.504 6.69141C114.637 6.51953 114.828 6.28516 115.078 5.98828C115.336 5.69141 115.531 5.54297 115.664 5.54297C115.797 5.54297 115.863 5.59766 115.863 5.70703C115.863 5.72266 115.73 6.23438 115.465 7.24219C115.465 7.38281 115.527 7.45703 115.652 7.46484H118.641C118.984 7.46484 119.156 7.94922 119.156 8.91797C119.156 8.96484 119.125 8.98828 119.062 8.98828H115.535ZM127.406 9.59766C127.312 9.58203 127.176 9.53125 126.996 9.44531C126.348 9.14844 125.84 9 125.473 9C125.105 9 124.719 9.23047 124.312 9.69141C123.914 10.1445 123.715 10.5547 123.715 10.9219V16.2188C123.715 16.8047 124.055 17.1953 124.734 17.3906C125.031 17.4688 125.309 17.5273 125.566 17.5664C125.824 17.5977 125.988 17.6289 126.059 17.6602C126.137 17.6914 126.176 17.7539 126.176 17.8477C126.176 17.9336 126.137 17.9844 126.059 18H120.188C120.109 17.9844 120.07 17.9297 120.07 17.8359C120.07 17.6953 120.254 17.6016 120.621 17.5547C121.465 17.4297 121.887 16.9844 121.887 16.2188V10.0195C121.887 9.69141 121.707 9.46484 121.348 9.33984C121.191 9.28516 121.023 9.24219 120.844 9.21094C120.664 9.17188 120.52 9.13672 120.41 9.10547C120.309 9.07422 120.242 9.04688 120.211 9.02344C120.188 8.99219 120.176 8.93359 120.176 8.84766C120.176 8.75391 120.234 8.67578 120.352 8.61328L123.34 7.20703C123.434 7.16016 123.492 7.13672 123.516 7.13672C123.648 7.13672 123.715 7.23047 123.715 7.41797V9.31641C123.715 9.41016 123.738 9.45703 123.785 9.45703C123.848 9.45703 124.008 9.27344 124.266 8.90625C125.008 7.86719 125.621 7.34766 126.105 7.34766C126.379 7.34766 126.797 7.45703 127.359 7.67578C127.93 7.89453 128.215 8.07812 128.215 8.22656C128.215 8.40625 128.125 8.67969 127.945 9.04688C127.766 9.41406 127.586 9.59766 127.406 9.59766ZM130.934 11.8242C130.801 11.8242 130.734 12.1094 130.734 12.6797C130.734 13.8906 131.094 14.9062 131.812 15.7266C132.531 16.5469 133.422 16.957 134.484 16.957C135.555 16.957 136.582 16.4961 137.566 15.5742C137.582 15.5586 137.602 15.5508 137.625 15.5508H137.684C137.73 15.5508 137.773 15.5898 137.812 15.668C137.859 15.7383 137.902 15.7852 137.941 15.8086C137.035 16.9102 135.969 17.6719 134.742 18.0938C134.32 18.2422 133.844 18.3164 133.312 18.3164C132.781 18.3164 132.242 18.1719 131.695 17.8828C131.148 17.5859 130.68 17.1992 130.289 16.7227C129.461 15.7305 129.047 14.4961 129.047 13.0195C129.047 11.5352 129.496 10.1836 130.395 8.96484C131.301 7.74609 132.543 7.13672 134.121 7.13672C135.254 7.13672 136.18 7.64453 136.898 8.66016C137.617 9.66797 137.977 10.5547 137.977 11.3203C137.977 11.6562 137.895 11.8242 137.73 11.8242H130.934ZM131.062 10.6992C131.062 10.8477 131.133 10.9219 131.273 10.9219H135.691C135.895 10.9219 135.996 10.8008 135.996 10.5586C135.996 9.99609 135.742 9.42188 135.234 8.83594C134.734 8.24219 134.184 7.94531 133.582 7.94531C132.996 7.94531 132.461 8.21094 131.977 8.74219C131.5 9.27344 131.195 9.87891 131.062 10.5586V10.6992ZM147.188 16.0664C147.188 16.2695 147.281 16.4336 147.469 16.5586C147.664 16.6758 147.887 16.7344 148.137 16.7344C148.387 16.7344 148.594 16.6719 148.758 16.5469C148.93 16.4141 149.047 16.3477 149.109 16.3477C149.172 16.3477 149.203 16.4336 149.203 16.6055C149.203 16.7695 149.125 16.9102 148.969 17.0273C147.797 17.8867 147.004 18.3164 146.59 18.3164C146.09 18.3164 145.684 17.7969 145.371 16.7578C145.348 16.6797 145.328 16.6445 145.312 16.6523C144.344 17.3789 143.734 17.8164 143.484 17.9648C142.844 18.332 142.199 18.3906 141.551 18.1406C140.91 17.8906 140.445 17.4766 140.156 16.8984C140.016 16.6016 139.945 16.2852 139.945 15.9492C139.945 15.2852 140.191 14.7578 140.684 14.3672C141.176 13.9766 142.113 13.6016 143.496 13.2422C143.965 13.1172 144.383 12.957 144.75 12.7617C145.117 12.5664 145.309 12.4414 145.324 12.3867C145.348 12.332 145.359 12.2812 145.359 12.2344V9.98438C145.359 9.10156 145.016 8.48047 144.328 8.12109C144.102 8.00391 143.828 7.94531 143.508 7.94531C143.195 7.94531 142.875 8.07031 142.547 8.32031C142.227 8.57031 142.066 8.92578 142.066 9.38672L142.125 9.84375C142.078 9.9375 141.797 10.0938 141.281 10.3125C140.766 10.5312 140.469 10.6484 140.391 10.6641C140.266 10.6641 140.203 10.5156 140.203 10.2188C140.203 9.91406 140.293 9.57812 140.473 9.21094C140.652 8.84375 140.906 8.50781 141.234 8.20312C142 7.49219 142.875 7.13672 143.859 7.13672C144.844 7.13672 145.645 7.41016 146.262 7.95703C146.879 8.49609 147.188 9.14062 147.188 9.89062V16.0664ZM141.785 15.7266C141.785 16.1016 141.93 16.4297 142.219 16.7109C142.508 16.9844 142.836 17.1211 143.203 17.1211C143.578 17.1211 144.031 16.9648 144.562 16.6523C145.094 16.332 145.359 16.0039 145.359 15.668V13.2891C145.359 13.2031 145.34 13.1602 145.301 13.1602C145.262 13.1602 145.234 13.1641 145.219 13.1719L142.5 14.4375C142.219 14.6406 142.027 14.8125 141.926 14.9531C141.832 15.0938 141.785 15.3516 141.785 15.7266ZM165.773 14.3086L165.75 11.8359C165.75 10.8281 165.664 10.1211 165.492 9.71484C165.32 9.30859 165.102 9.00391 164.836 8.80078C164.57 8.58984 164.211 8.48438 163.758 8.48438C163.312 8.48438 162.363 8.83594 160.91 9.53906C160.715 9.65625 160.613 9.76562 160.605 9.86719V16.1719C160.605 16.9609 161.027 17.4141 161.871 17.5312C162.238 17.5859 162.422 17.6758 162.422 17.8008C162.422 17.918 162.383 17.9844 162.305 18H157.078C157 17.9844 156.961 17.9297 156.961 17.8359C156.961 17.6875 157.145 17.5859 157.512 17.5312C158.355 17.4141 158.777 16.9609 158.777 16.1719V10.3359C158.777 9.10938 158.02 8.49609 156.504 8.49609C155.949 8.49609 155.18 8.82422 154.195 9.48047C153.945 9.64453 153.762 9.79688 153.645 9.9375V16.1719C153.645 16.9609 154.066 17.4141 154.91 17.5312C155.277 17.5859 155.461 17.6758 155.461 17.8008C155.461 17.918 155.422 17.9844 155.344 18H150.117C150.039 17.9844 150 17.9297 150 17.8359C150 17.6875 150.184 17.5859 150.551 17.5312C151.395 17.4141 151.816 16.9688 151.816 16.1953V9.44531C151.816 9.11719 151.637 8.89062 151.277 8.76562C151.121 8.71094 150.953 8.66797 150.773 8.63672C150.594 8.59766 150.449 8.5625 150.34 8.53125C150.238 8.5 150.172 8.47266 150.141 8.44922C150.117 8.41797 150.105 8.35938 150.105 8.27344C150.105 8.17969 150.164 8.10156 150.281 8.03906L153.27 6.63281C153.363 6.58594 153.422 6.5625 153.445 6.5625C153.578 6.5625 153.645 6.65625 153.645 6.84375V8.78906C153.652 8.83594 153.68 8.85938 153.727 8.85938C153.781 8.85938 153.91 8.80469 154.113 8.69531C154.324 8.58594 154.598 8.43359 154.934 8.23828C155.27 8.03516 155.711 7.80078 156.258 7.53516C156.812 7.26953 157.398 7.13672 158.016 7.13672C159.008 7.13672 159.719 7.5625 160.148 8.41406C160.312 8.75781 160.461 8.90625 160.594 8.85938C160.727 8.80469 160.934 8.70703 161.215 8.56641C161.879 8.23828 162.551 7.91797 163.23 7.60547C163.91 7.29297 164.473 7.13672 164.918 7.13672C166.723 7.13672 167.625 8.78125 167.625 12.0703L167.52 15.4922V16.1719C167.52 16.7812 167.824 17.1797 168.434 17.3672C168.691 17.4531 168.938 17.5156 169.172 17.5547C169.414 17.5859 169.57 17.6172 169.641 17.6484C169.719 17.6797 169.758 17.7422 169.758 17.8359C169.758 17.9297 169.719 17.9844 169.641 18H163.992C163.914 17.9844 163.875 17.9297 163.875 17.8359C163.875 17.6875 164.059 17.5859 164.426 17.5312C165.262 17.4141 165.68 16.9297 165.68 16.0781C165.742 15.6875 165.773 15.0977 165.773 14.3086ZM170.625 18C170.547 17.9844 170.508 17.9297 170.508 17.8359C170.508 17.6953 170.691 17.6016 171.059 17.5547C171.902 17.4297 172.324 16.9844 172.324 16.2188V10.0195C172.324 9.69141 172.145 9.46484 171.785 9.33984C171.629 9.28516 171.461 9.24219 171.281 9.21094C171.102 9.17188 170.957 9.13672 170.848 9.10547C170.746 9.07422 170.68 9.04688 170.648 9.02344C170.625 8.99219 170.613 8.93359 170.613 8.84766C170.613 8.75391 170.672 8.67578 170.789 8.61328L173.777 7.20703C173.871 7.16016 173.93 7.13672 173.953 7.13672C174.086 7.13672 174.152 7.23047 174.152 7.41797V16.2188C174.152 16.9844 174.574 17.4297 175.418 17.5547C175.785 17.6016 175.969 17.6836 175.969 17.8008C175.969 17.918 175.93 17.9844 175.852 18H170.625ZM173.062 3.84375C172.742 3.84375 172.457 3.74219 172.207 3.53906C171.965 3.33594 171.844 3.05469 171.844 2.69531C171.844 2.32812 171.961 2.03906 172.195 1.82812C172.43 1.61719 172.707 1.51172 173.027 1.51172C173.355 1.51172 173.629 1.63672 173.848 1.88672C174.074 2.13672 174.188 2.40625 174.188 2.69531C174.188 2.98438 174.082 3.25 173.871 3.49219C173.66 3.72656 173.391 3.84375 173.062 3.84375ZM185.977 14.3086L185.953 11.8359C185.953 10.8281 185.867 10.1211 185.695 9.71484C185.523 9.30859 185.305 9.00391 185.039 8.80078C184.773 8.58984 184.414 8.48438 183.961 8.48438C183.516 8.48438 182.566 8.83594 181.113 9.53906C180.918 9.65625 180.816 9.76562 180.809 9.86719V16.1719C180.809 16.9609 181.23 17.4141 182.074 17.5312C182.441 17.5859 182.625 17.6758 182.625 17.8008C182.625 17.918 182.586 17.9844 182.508 18H177.281C177.203 17.9844 177.164 17.9297 177.164 17.8359C177.164 17.6875 177.348 17.5859 177.715 17.5312C178.559 17.4141 178.98 16.9609 178.98 16.1719V9.44531C178.98 9.11719 178.801 8.89062 178.441 8.76562C178.285 8.71094 178.117 8.66797 177.938 8.63672C177.758 8.59766 177.613 8.5625 177.504 8.53125C177.402 8.5 177.336 8.47266 177.305 8.44922C177.281 8.41797 177.27 8.35938 177.27 8.27344C177.27 8.17969 177.328 8.10156 177.445 8.03906L180.434 6.63281C180.527 6.58594 180.586 6.5625 180.609 6.5625C180.742 6.5625 180.809 6.65625 180.809 6.84375V8.67188C180.832 8.75 180.863 8.78906 180.902 8.78906C180.949 8.78906 181.117 8.71875 181.406 8.57812C182.078 8.24219 182.754 7.91797 183.434 7.60547C184.113 7.29297 184.676 7.13672 185.121 7.13672C186.926 7.13672 187.828 8.78125 187.828 12.0703L187.723 15.4922V16.1719C187.723 16.7812 188.027 17.1797 188.637 17.3672C188.895 17.4531 189.141 17.5156 189.375 17.5547C189.617 17.5859 189.773 17.6172 189.844 17.6484C189.922 17.6797 189.961 17.7422 189.961 17.8359C189.961 17.9297 189.922 17.9844 189.844 18H184.195C184.117 17.9844 184.078 17.9297 184.078 17.8359C184.078 17.6875 184.262 17.5859 184.629 17.5312C185.465 17.4141 185.883 16.9297 185.883 16.0781C185.945 15.6875 185.977 15.0977 185.977 14.3086ZM199.793 8.26172C199.793 8.26172 200.84 8.21484 202.934 8.12109C203.113 8.12109 203.23 8.14062 203.285 8.17969C203.34 8.21875 203.398 8.35547 203.461 8.58984C203.523 8.81641 203.555 9.03125 203.555 9.23438C203.555 9.4375 203.535 9.55469 203.496 9.58594C203.457 9.61719 203.379 9.63281 203.262 9.63281H200.66C200.707 9.71875 200.758 9.80859 200.812 9.90234C200.867 9.99609 200.938 10.1523 201.023 10.3711C201.109 10.5898 201.152 10.9297 201.152 11.3906C201.152 11.8438 201.039 12.3203 200.812 12.8203C200.594 13.3125 200.27 13.75 199.84 14.1328C198.887 14.9922 197.652 15.4219 196.137 15.4219C195.738 15.4219 195.301 15.3477 194.824 15.1992C194.707 15.3242 194.551 15.4414 194.355 15.5508C194.16 15.6523 193.969 15.7578 193.781 15.8672C193.312 16.1328 193.078 16.3984 193.078 16.6641C193.078 17.3281 194.18 17.668 196.383 17.6836C198.586 17.6992 200.031 17.7734 200.719 17.9062C201.414 18.0312 201.953 18.2852 202.336 18.668C202.938 19.2695 203.238 19.957 203.238 20.7305C203.238 21.3945 202.953 22.0781 202.383 22.7812C201.391 24.0234 199.875 24.8516 197.836 25.2656C197.109 25.4141 196.34 25.4883 195.527 25.4883C194.051 25.4883 192.93 25.2188 192.164 24.6797C191.398 24.1484 191.016 23.5039 191.016 22.7461C191.016 22.332 191.113 21.9883 191.309 21.7148C191.504 21.4492 191.75 21.1953 192.047 20.9531C192.352 20.7188 192.684 20.4688 193.043 20.2031C193.402 19.9453 193.746 19.6133 194.074 19.207C193.324 19.1445 192.68 18.9062 192.141 18.4922C191.609 18.0781 191.344 17.6719 191.344 17.2734C191.344 16.875 191.449 16.582 191.66 16.3945C191.871 16.1992 192.129 16.0352 192.434 15.9023C192.738 15.7617 193.059 15.6328 193.395 15.5156C193.73 15.3984 194.023 15.2461 194.273 15.0586C193.398 14.7148 192.723 14.2422 192.246 13.6406C191.77 13.0312 191.531 12.3672 191.531 11.6484C191.531 10.3125 192.016 9.22266 192.984 8.37891C193.961 7.53516 195.137 7.11328 196.512 7.11328C197.887 7.11328 198.98 7.49609 199.793 8.26172ZM193.418 20.4844C193.238 20.6641 193.09 20.8555 192.973 21.0586C192.855 21.2617 192.797 21.5156 192.797 21.8203C192.797 22.1328 192.906 22.457 193.125 22.793C193.352 23.1367 193.656 23.4453 194.039 23.7188C194.883 24.3438 195.898 24.6562 197.086 24.6562C198.273 24.6562 199.348 24.3086 200.309 23.6133C201.277 22.9258 201.762 22.168 201.762 21.3398C201.762 20.5195 201.363 19.9688 200.566 19.6875C200.191 19.5625 199.227 19.4844 197.672 19.4531C196.117 19.4219 195.109 19.3789 194.648 19.3242C194.445 19.5586 194.234 19.7656 194.016 19.9453C193.805 20.125 193.605 20.3047 193.418 20.4844ZM199.23 11.3789C199.23 10.2773 198.953 9.38281 198.398 8.69531C197.852 8 197.125 7.65234 196.219 7.65234C195.047 7.65234 194.219 8.20312 193.734 9.30469C193.547 9.72656 193.453 10.2109 193.453 10.7578C193.453 11.875 193.684 12.8047 194.145 13.5469C194.707 14.4375 195.445 14.8828 196.359 14.8828C197.273 14.8828 197.98 14.5742 198.48 13.957C198.98 13.3398 199.23 12.4805 199.23 11.3789ZM8.05078 41.6289C8.39453 41.7461 8.60547 41.8047 8.68359 41.8047C8.76172 41.8047 8.80859 41.8047 8.82422 41.8047C8.84766 41.7969 8.875 41.7461 8.90625 41.6523V35.6055C8.90625 35.2773 8.72656 35.0508 8.36719 34.9258C8.21094 34.8711 8.04297 34.8281 7.86328 34.7969C7.68359 34.7578 7.53906 34.7227 7.42969 34.6914C7.32812 34.6602 7.26172 34.6328 7.23047 34.6094C7.20703 34.5781 7.19531 34.5195 7.19531 34.4336C7.19531 34.3398 7.25391 34.2617 7.37109 34.1992L10.3594 32.793C10.4531 32.7461 10.5117 32.7227 10.5352 32.7227C10.668 32.7227 10.7344 32.8164 10.7344 33.0039V49.6914C10.7734 50.0352 10.8711 50.2812 11.0273 50.4297C11.1836 50.5781 11.4375 50.6523 11.7891 50.6523L12.4688 50.6055C12.5156 50.6055 12.5391 50.6523 12.5391 50.7461C12.5391 50.832 12.4805 50.9023 12.3633 50.957L9.24609 52.2461C9.15234 52.293 9.07031 52.3164 9 52.3164C8.9375 52.3164 8.90625 52.2188 8.90625 52.0234V50.957C8.90625 50.8789 8.88672 50.8398 8.84766 50.8398C8.79297 50.8398 8.46875 51.0156 7.875 51.3672C6.05469 52.4453 4.51953 52.6055 3.26953 51.8477C2.26953 51.2383 1.59375 50.2734 1.24219 48.9531C1.07812 48.3359 0.996094 47.6836 0.996094 46.9961C0.996094 46.3008 1.13672 45.6133 1.41797 44.9336C1.70703 44.2461 2.10156 43.6445 2.60156 43.1289C3.70312 42.0039 5.03125 41.4414 6.58594 41.4414C7.21875 41.4414 7.70703 41.5039 8.05078 41.6289ZM2.76562 46.6562C2.76562 47.8359 3.09375 48.8711 3.75 49.7617C4.40625 50.6445 5.32031 51.0859 6.49219 51.0859C7.00781 51.0859 7.53906 50.9609 8.08594 50.7109C8.63281 50.4531 8.90625 50.2578 8.90625 50.125V44.0781C8.90625 43.9297 8.80469 43.7539 8.60156 43.5508C7.97656 42.6914 7.14453 42.2617 6.10547 42.2617C5.07422 42.2617 4.25781 42.6992 3.65625 43.5742C3.0625 44.4414 2.76562 45.4688 2.76562 46.6562ZM20.8359 50.0664C20.8359 50.2695 20.9297 50.4336 21.1172 50.5586C21.3125 50.6758 21.5352 50.7344 21.7852 50.7344C22.0352 50.7344 22.2422 50.6719 22.4062 50.5469C22.5781 50.4141 22.6953 50.3477 22.7578 50.3477C22.8203 50.3477 22.8516 50.4336 22.8516 50.6055C22.8516 50.7695 22.7734 50.9102 22.6172 51.0273C21.4453 51.8867 20.6523 52.3164 20.2383 52.3164C19.7383 52.3164 19.332 51.7969 19.0195 50.7578C18.9961 50.6797 18.9766 50.6445 18.9609 50.6523C17.9922 51.3789 17.3828 51.8164 17.1328 51.9648C16.4922 52.332 15.8477 52.3906 15.1992 52.1406C14.5586 51.8906 14.0938 51.4766 13.8047 50.8984C13.6641 50.6016 13.5938 50.2852 13.5938 49.9492C13.5938 49.2852 13.8398 48.7578 14.332 48.3672C14.8242 47.9766 15.7617 47.6016 17.1445 47.2422C17.6133 47.1172 18.0312 46.957 18.3984 46.7617C18.7656 46.5664 18.957 46.4414 18.9727 46.3867C18.9961 46.332 19.0078 46.2812 19.0078 46.2344V43.9844C19.0078 43.1016 18.6641 42.4805 17.9766 42.1211C17.75 42.0039 17.4766 41.9453 17.1562 41.9453C16.8438 41.9453 16.5234 42.0703 16.1953 42.3203C15.875 42.5703 15.7148 42.9258 15.7148 43.3867L15.7734 43.8438C15.7266 43.9375 15.4453 44.0938 14.9297 44.3125C14.4141 44.5312 14.1172 44.6484 14.0391 44.6641C13.9141 44.6641 13.8516 44.5156 13.8516 44.2188C13.8516 43.9141 13.9414 43.5781 14.1211 43.2109C14.3008 42.8438 14.5547 42.5078 14.8828 42.2031C15.6484 41.4922 16.5234 41.1367 17.5078 41.1367C18.4922 41.1367 19.293 41.4102 19.9102 41.957C20.5273 42.4961 20.8359 43.1406 20.8359 43.8906V50.0664ZM15.4336 49.7266C15.4336 50.1016 15.5781 50.4297 15.8672 50.7109C16.1562 50.9844 16.4844 51.1211 16.8516 51.1211C17.2266 51.1211 17.6797 50.9648 18.2109 50.6523C18.7422 50.332 19.0078 50.0039 19.0078 49.668V47.2891C19.0078 47.2031 18.9883 47.1602 18.9492 47.1602C18.9102 47.1602 18.8828 47.1641 18.8672 47.1719L16.1484 48.4375C15.8672 48.6406 15.6758 48.8125 15.5742 48.9531C15.4805 49.0938 15.4336 49.3516 15.4336 49.7266ZM26.8242 42.9883C26.7773 42.9883 26.7539 43.0234 26.7539 43.0938V49.5625C26.7539 50.0312 26.8555 50.3984 27.0586 50.6641C27.2695 50.9297 27.5352 51.0625 27.8555 51.0625C28.1758 51.0625 28.4531 51.0117 28.6875 50.9102C28.9297 50.8008 29.1367 50.6836 29.3086 50.5586C29.4883 50.4336 29.6484 50.3203 29.7891 50.2188C29.9297 50.1094 30.0547 50.0547 30.1641 50.0547C30.2734 50.0547 30.3281 50.082 30.3281 50.1367C30.3281 50.3242 30.3086 50.4453 30.2695 50.5C29.332 51.7109 28.4258 52.3164 27.5508 52.3164C26.6836 52.3164 26.0273 52.043 25.582 51.4961C25.1445 50.9414 24.9258 50.2812 24.9258 49.5156V42.9883H24.0469C23.8281 42.9883 23.7109 42.918 23.6953 42.7773C23.6875 42.6367 23.7109 42.5469 23.7656 42.5078C24.1797 42.2422 24.75 41.7656 25.4766 41.0781C25.5547 40.9922 25.6602 40.8633 25.793 40.6914C25.9258 40.5195 26.1172 40.2852 26.3672 39.9883C26.625 39.6914 26.8203 39.543 26.9531 39.543C27.0859 39.543 27.1523 39.5977 27.1523 39.707C27.1523 39.7227 27.0195 40.2344 26.7539 41.2422C26.7539 41.3828 26.8164 41.457 26.9414 41.4648H29.9297C30.2734 41.4648 30.4453 41.9492 30.4453 42.918C30.4453 42.9648 30.4141 42.9883 30.3516 42.9883H26.8242ZM38.8125 50.0664C38.8125 50.2695 38.9062 50.4336 39.0938 50.5586C39.2891 50.6758 39.5117 50.7344 39.7617 50.7344C40.0117 50.7344 40.2188 50.6719 40.3828 50.5469C40.5547 50.4141 40.6719 50.3477 40.7344 50.3477C40.7969 50.3477 40.8281 50.4336 40.8281 50.6055C40.8281 50.7695 40.75 50.9102 40.5938 51.0273C39.4219 51.8867 38.6289 52.3164 38.2148 52.3164C37.7148 52.3164 37.3086 51.7969 36.9961 50.7578C36.9727 50.6797 36.9531 50.6445 36.9375 50.6523C35.9688 51.3789 35.3594 51.8164 35.1094 51.9648C34.4688 52.332 33.8242 52.3906 33.1758 52.1406C32.5352 51.8906 32.0703 51.4766 31.7812 50.8984C31.6406 50.6016 31.5703 50.2852 31.5703 49.9492C31.5703 49.2852 31.8164 48.7578 32.3086 48.3672C32.8008 47.9766 33.7383 47.6016 35.1211 47.2422C35.5898 47.1172 36.0078 46.957 36.375 46.7617C36.7422 46.5664 36.9336 46.4414 36.9492 46.3867C36.9727 46.332 36.9844 46.2812 36.9844 46.2344V43.9844C36.9844 43.1016 36.6406 42.4805 35.9531 42.1211C35.7266 42.0039 35.4531 41.9453 35.1328 41.9453C34.8203 41.9453 34.5 42.0703 34.1719 42.3203C33.8516 42.5703 33.6914 42.9258 33.6914 43.3867L33.75 43.8438C33.7031 43.9375 33.4219 44.0938 32.9062 44.3125C32.3906 44.5312 32.0938 44.6484 32.0156 44.6641C31.8906 44.6641 31.8281 44.5156 31.8281 44.2188C31.8281 43.9141 31.918 43.5781 32.0977 43.2109C32.2773 42.8438 32.5312 42.5078 32.8594 42.2031C33.625 41.4922 34.5 41.1367 35.4844 41.1367C36.4688 41.1367 37.2695 41.4102 37.8867 41.957C38.5039 42.4961 38.8125 43.1406 38.8125 43.8906V50.0664ZM33.4102 49.7266C33.4102 50.1016 33.5547 50.4297 33.8438 50.7109C34.1328 50.9844 34.4609 51.1211 34.8281 51.1211C35.2031 51.1211 35.6562 50.9648 36.1875 50.6523C36.7188 50.332 36.9844 50.0039 36.9844 49.668V47.2891C36.9844 47.2031 36.9648 47.1602 36.9258 47.1602C36.8867 47.1602 36.8594 47.1641 36.8438 47.1719L34.125 48.4375C33.8438 48.6406 33.6523 48.8125 33.5508 48.9531C33.457 49.0938 33.4102 49.3516 33.4102 49.7266ZM56.4141 50.9688C56.375 50.8359 56.3242 50.793 56.2617 50.8398C56.1992 50.8789 55.9453 51.0117 55.5 51.2383C54.0391 51.9648 52.8203 52.3281 51.8438 52.3281C50.8672 52.3281 50.1641 52.0156 49.7344 51.3906C49.5781 51.1562 49.5 50.8672 49.5 50.5234V43.375C49.4766 43.1484 49.375 42.9531 49.1953 42.7891C48.9531 42.5859 48.6992 42.4766 48.4336 42.4609C48.1758 42.4453 48.0469 42.3672 48.0469 42.2266C48.0469 42.0781 48.1094 41.9883 48.2344 41.957L50.918 41.1836C51.0117 41.1523 51.1016 41.1367 51.1875 41.1367C51.2812 41.1367 51.3281 41.2031 51.3281 41.3359V49.1992C51.3281 49.7461 51.5703 50.168 52.0547 50.4648C52.5391 50.7617 53.1562 50.9102 53.9062 50.9102C54.6641 50.9102 55.3438 50.6797 55.9453 50.2188C56.1328 50.0703 56.2891 49.9062 56.4141 49.7266V43.375C56.3906 43.1484 56.2891 42.9531 56.1094 42.7891C55.8672 42.5859 55.6133 42.4766 55.3477 42.4609C55.0898 42.4453 54.9609 42.3672 54.9609 42.2266C54.9609 42.0781 55.0234 41.9883 55.1484 41.957L57.832 41.1836C57.9258 41.1523 58.0156 41.1367 58.1016 41.1367C58.1953 41.1367 58.2422 41.2148 58.2422 41.3711V49.6914C58.2812 50.0352 58.3789 50.2812 58.5352 50.4297C58.6914 50.5781 58.9453 50.6523 59.2969 50.6523L59.9766 50.6055C60.0234 50.6055 60.0469 50.6523 60.0469 50.7461C60.0469 50.832 59.9883 50.9023 59.8711 50.957L56.7539 52.2461C56.6602 52.293 56.5781 52.3164 56.5078 52.3164C56.4453 52.3164 56.4141 52.2188 56.4141 52.0234V50.9688ZM67.2539 43.9844C67.2539 44.1562 67.1875 44.2422 67.0547 44.2422C66.9297 44.2422 66.832 44.1484 66.7617 43.9609C66.5742 43.4453 66.293 42.9883 65.918 42.5898C65.5508 42.1914 65.0938 41.9922 64.5469 41.9922C63.8281 41.9922 63.3438 42.3516 63.0938 43.0703C63.0156 43.3125 62.9766 43.5625 62.9766 43.8203C62.9766 44.0781 63.1406 44.3672 63.4688 44.6875C63.7969 45 64.3359 45.375 65.0859 45.8125C65.8359 46.25 66.3828 46.6211 66.7266 46.9258C67.5078 47.6211 67.8984 48.4258 67.8984 49.3398C67.8984 50.2539 67.5625 50.9805 66.8906 51.5195C66.2188 52.0508 65.4375 52.3164 64.5469 52.3164C64.0703 52.3164 63.6367 52.25 63.2461 52.1172C62.8633 51.9922 62.6406 51.9297 62.5781 51.9297C62.5234 51.9297 62.4297 51.9922 62.2969 52.1172C62.1719 52.25 62.0703 52.3164 61.9922 52.3164H61.793C61.7461 52.3164 61.6875 51.8945 61.6172 51.0508C61.5469 50.207 61.5117 49.707 61.5117 49.5508C61.5117 49.3945 61.5234 49.3086 61.5469 49.293C61.5781 49.2773 61.625 49.2695 61.6875 49.2695C61.75 49.2695 61.8008 49.2891 61.8398 49.3281C61.8867 49.3672 61.9258 49.418 61.957 49.4805C61.9883 49.5352 62.0117 49.5938 62.0273 49.6562C62.0508 49.7188 62.1016 49.8359 62.1797 50.0078C62.7109 51.1406 63.5312 51.707 64.6406 51.707C65.1328 51.707 65.5273 51.5273 65.8242 51.168C66.1211 50.8008 66.2695 50.3945 66.2695 49.9492C66.2695 49.5039 66.1523 49.1289 65.918 48.8242C65.6836 48.5195 65.3906 48.2422 65.0391 47.9922C64.6953 47.7422 64.3203 47.5 63.9141 47.2656C62.3359 46.3438 61.5469 45.3242 61.5469 44.207C61.5469 43.3711 61.9062 42.6523 62.625 42.0508C63.3438 41.4414 64.082 41.1367 64.8398 41.1367C65.5977 41.1367 66.1562 41.2188 66.5156 41.3828C66.8828 41.5469 67.0977 41.6875 67.1602 41.8047C67.2227 41.9141 67.2539 42.2812 67.2539 42.9062V43.9844ZM69.6094 52C69.5312 51.9844 69.4922 51.9297 69.4922 51.8359C69.4922 51.6953 69.6758 51.6016 70.043 51.5547C70.8867 51.4297 71.3086 50.9844 71.3086 50.2188V44.0195C71.3086 43.6914 71.1289 43.4648 70.7695 43.3398C70.6133 43.2852 70.4453 43.2422 70.2656 43.2109C70.0859 43.1719 69.9414 43.1367 69.832 43.1055C69.7305 43.0742 69.6641 43.0469 69.6328 43.0234C69.6094 42.9922 69.5977 42.9336 69.5977 42.8477C69.5977 42.7539 69.6562 42.6758 69.7734 42.6133L72.7617 41.207C72.8555 41.1602 72.9141 41.1367 72.9375 41.1367C73.0703 41.1367 73.1367 41.2305 73.1367 41.418V50.2188C73.1367 50.9844 73.5586 51.4297 74.4023 51.5547C74.7695 51.6016 74.9531 51.6836 74.9531 51.8008C74.9531 51.918 74.9141 51.9844 74.8359 52H69.6094ZM72.0469 37.8438C71.7266 37.8438 71.4414 37.7422 71.1914 37.5391C70.9492 37.3359 70.8281 37.0547 70.8281 36.6953C70.8281 36.3281 70.9453 36.0391 71.1797 35.8281C71.4141 35.6172 71.6914 35.5117 72.0117 35.5117C72.3398 35.5117 72.6133 35.6367 72.832 35.8867C73.0586 36.1367 73.1719 36.4062 73.1719 36.6953C73.1719 36.9844 73.0664 37.25 72.8555 37.4922C72.6445 37.7266 72.375 37.8438 72.0469 37.8438ZM84.9609 48.3086L84.9375 45.8359C84.9375 44.8281 84.8516 44.1211 84.6797 43.7148C84.5078 43.3086 84.2891 43.0039 84.0234 42.8008C83.7578 42.5898 83.3984 42.4844 82.9453 42.4844C82.5 42.4844 81.5508 42.8359 80.0977 43.5391C79.9023 43.6562 79.8008 43.7656 79.793 43.8672V50.1719C79.793 50.9609 80.2148 51.4141 81.0586 51.5312C81.4258 51.5859 81.6094 51.6758 81.6094 51.8008C81.6094 51.918 81.5703 51.9844 81.4922 52H76.2656C76.1875 51.9844 76.1484 51.9297 76.1484 51.8359C76.1484 51.6875 76.332 51.5859 76.6992 51.5312C77.543 51.4141 77.9648 50.9609 77.9648 50.1719V43.4453C77.9648 43.1172 77.7852 42.8906 77.4258 42.7656C77.2695 42.7109 77.1016 42.668 76.9219 42.6367C76.7422 42.5977 76.5977 42.5625 76.4883 42.5312C76.3867 42.5 76.3203 42.4727 76.2891 42.4492C76.2656 42.418 76.2539 42.3594 76.2539 42.2734C76.2539 42.1797 76.3125 42.1016 76.4297 42.0391L79.418 40.6328C79.5117 40.5859 79.5703 40.5625 79.5938 40.5625C79.7266 40.5625 79.793 40.6562 79.793 40.8438V42.6719C79.8164 42.75 79.8477 42.7891 79.8867 42.7891C79.9336 42.7891 80.1016 42.7188 80.3906 42.5781C81.0625 42.2422 81.7383 41.918 82.418 41.6055C83.0977 41.293 83.6602 41.1367 84.1055 41.1367C85.9102 41.1367 86.8125 42.7812 86.8125 46.0703L86.707 49.4922V50.1719C86.707 50.7812 87.0117 51.1797 87.6211 51.3672C87.8789 51.4531 88.125 51.5156 88.3594 51.5547C88.6016 51.5859 88.7578 51.6172 88.8281 51.6484C88.9062 51.6797 88.9453 51.7422 88.9453 51.8359C88.9453 51.9297 88.9062 51.9844 88.8281 52H83.1797C83.1016 51.9844 83.0625 51.9297 83.0625 51.8359C83.0625 51.6875 83.2461 51.5859 83.6133 51.5312C84.4492 51.4141 84.8672 50.9297 84.8672 50.0781C84.9297 49.6875 84.9609 49.0977 84.9609 48.3086ZM98.7773 42.2617C98.7773 42.2617 99.8242 42.2148 101.918 42.1211C102.098 42.1211 102.215 42.1406 102.27 42.1797C102.324 42.2188 102.383 42.3555 102.445 42.5898C102.508 42.8164 102.539 43.0312 102.539 43.2344C102.539 43.4375 102.52 43.5547 102.48 43.5859C102.441 43.6172 102.363 43.6328 102.246 43.6328H99.6445C99.6914 43.7188 99.7422 43.8086 99.7969 43.9023C99.8516 43.9961 99.9219 44.1523 100.008 44.3711C100.094 44.5898 100.137 44.9297 100.137 45.3906C100.137 45.8438 100.023 46.3203 99.7969 46.8203C99.5781 47.3125 99.2539 47.75 98.8242 48.1328C97.8711 48.9922 96.6367 49.4219 95.1211 49.4219C94.7227 49.4219 94.2852 49.3477 93.8086 49.1992C93.6914 49.3242 93.5352 49.4414 93.3398 49.5508C93.1445 49.6523 92.9531 49.7578 92.7656 49.8672C92.2969 50.1328 92.0625 50.3984 92.0625 50.6641C92.0625 51.3281 93.1641 51.668 95.3672 51.6836C97.5703 51.6992 99.0156 51.7734 99.7031 51.9062C100.398 52.0312 100.938 52.2852 101.32 52.668C101.922 53.2695 102.223 53.957 102.223 54.7305C102.223 55.3945 101.938 56.0781 101.367 56.7812C100.375 58.0234 98.8594 58.8516 96.8203 59.2656C96.0938 59.4141 95.3242 59.4883 94.5117 59.4883C93.0352 59.4883 91.9141 59.2188 91.1484 58.6797C90.3828 58.1484 90 57.5039 90 56.7461C90 56.332 90.0977 55.9883 90.293 55.7148C90.4883 55.4492 90.7344 55.1953 91.0312 54.9531C91.3359 54.7188 91.668 54.4688 92.0273 54.2031C92.3867 53.9453 92.7305 53.6133 93.0586 53.207C92.3086 53.1445 91.6641 52.9062 91.125 52.4922C90.5938 52.0781 90.3281 51.6719 90.3281 51.2734C90.3281 50.875 90.4336 50.582 90.6445 50.3945C90.8555 50.1992 91.1133 50.0352 91.418 49.9023C91.7227 49.7617 92.043 49.6328 92.3789 49.5156C92.7148 49.3984 93.0078 49.2461 93.2578 49.0586C92.3828 48.7148 91.707 48.2422 91.2305 47.6406C90.7539 47.0312 90.5156 46.3672 90.5156 45.6484C90.5156 44.3125 91 43.2227 91.9688 42.3789C92.9453 41.5352 94.1211 41.1133 95.4961 41.1133C96.8711 41.1133 97.9648 41.4961 98.7773 42.2617ZM92.4023 54.4844C92.2227 54.6641 92.0742 54.8555 91.957 55.0586C91.8398 55.2617 91.7812 55.5156 91.7812 55.8203C91.7812 56.1328 91.8906 56.457 92.1094 56.793C92.3359 57.1367 92.6406 57.4453 93.0234 57.7188C93.8672 58.3438 94.8828 58.6562 96.0703 58.6562C97.2578 58.6562 98.332 58.3086 99.293 57.6133C100.262 56.9258 100.746 56.168 100.746 55.3398C100.746 54.5195 100.348 53.9688 99.5508 53.6875C99.1758 53.5625 98.2109 53.4844 96.6562 53.4531C95.1016 53.4219 94.0938 53.3789 93.6328 53.3242C93.4297 53.5586 93.2188 53.7656 93 53.9453C92.7891 54.125 92.5898 54.3047 92.4023 54.4844ZM98.2148 45.3789C98.2148 44.2773 97.9375 43.3828 97.3828 42.6953C96.8359 42 96.1094 41.6523 95.2031 41.6523C94.0312 41.6523 93.2031 42.2031 92.7188 43.3047C92.5312 43.7266 92.4375 44.2109 92.4375 44.7578C92.4375 45.875 92.668 46.8047 93.1289 47.5469C93.6914 48.4375 94.4297 48.8828 95.3438 48.8828C96.2578 48.8828 96.9648 48.5742 97.4648 47.957C97.9648 47.3398 98.2148 46.4805 98.2148 45.3789ZM118.969 35.6172C119.047 35.6172 119.086 35.7031 119.086 35.875L119.391 38.3711C119.422 38.5273 119.438 38.6289 119.438 38.6758C119.438 38.7148 119.375 38.7344 119.25 38.7344C119.133 38.7344 119.059 38.7188 119.027 38.6875C118.996 38.6562 118.965 38.6055 118.934 38.5352C118.902 38.457 118.863 38.3711 118.816 38.2773C118.777 38.1836 118.734 38.0898 118.688 37.9961C118.523 37.6367 118.266 37.2812 117.914 36.9297C117.055 36.1016 116.086 35.6875 115.008 35.6875C114.359 35.6875 113.746 35.8984 113.168 36.3203C112.59 36.7422 112.301 37.2422 112.301 37.8203C112.301 38.3906 112.406 38.8867 112.617 39.3086C112.836 39.7305 113.121 40.1211 113.473 40.4805C113.824 40.8398 114.227 41.1836 114.68 41.5117C115.133 41.8398 115.594 42.1719 116.062 42.5078C117.305 43.375 118.188 44.1172 118.711 44.7344C119.531 45.6875 119.977 46.7578 120.047 47.9453C120.047 49.2734 119.535 50.3359 118.512 51.1328C117.496 51.9219 116.312 52.3164 114.961 52.3164C114.094 52.3164 113.402 52.2266 112.887 52.0469C112.379 51.875 112.027 51.75 111.832 51.6719C111.637 51.5938 111.492 51.5547 111.398 51.5547C111.312 51.5547 111.258 51.5586 111.234 51.5664L110.66 51.6836C110.559 51.6836 110.496 51.6016 110.473 51.4375C110.246 49.5 110.133 48.4727 110.133 48.3555C110.133 48.2305 110.141 48.1484 110.156 48.1094C110.18 48.0625 110.234 48.0391 110.32 48.0391C110.539 48.0391 110.738 48.3516 110.918 48.9766C111.738 50.7344 113.102 51.6133 115.008 51.6133C115.883 51.6133 116.629 51.3477 117.246 50.8164C117.871 50.2852 118.184 49.5938 118.184 48.7422C118.184 47.3828 117.371 46.1172 115.746 44.9453C115.285 44.6172 114.621 44.1602 113.754 43.5742C112.887 42.9883 112.195 42.4023 111.68 41.8164C110.875 40.9102 110.473 39.9023 110.473 38.793C110.473 37.6758 110.914 36.7617 111.797 36.0508C112.688 35.3398 113.707 34.9844 114.855 34.9844C115.449 34.9844 116.102 35.0859 116.812 35.2891C117.531 35.4922 118.031 35.6289 118.312 35.6992L118.969 35.6172ZM130.746 50.7695C129.668 51.8008 128.457 52.3164 127.113 52.3164C126.629 52.3164 125.969 52.2266 125.133 52.0469C125 52.0469 124.926 52.0938 124.91 52.1875C124.902 52.2812 124.895 52.3789 124.887 52.4805V57.4844C124.887 58.0703 125.227 58.4609 125.906 58.6562C126.203 58.7344 126.48 58.7891 126.738 58.8203C126.996 58.8594 127.16 58.8945 127.23 58.9258C127.309 58.957 127.348 59.0156 127.348 59.1016C127.348 59.1953 127.309 59.25 127.23 59.2656H121.359C121.281 59.25 121.242 59.1953 121.242 59.1016C121.242 58.9609 121.426 58.8672 121.793 58.8203C122.637 58.6953 123.059 58.25 123.059 57.4844V43.4336C123.059 43.1055 122.879 42.8789 122.52 42.7539C122.363 42.6992 122.195 42.6562 122.016 42.625C121.836 42.5859 121.691 42.5508 121.582 42.5195C121.48 42.4883 121.414 42.4609 121.383 42.4375C121.359 42.4062 121.348 42.3477 121.348 42.2617C121.348 42.168 121.406 42.0898 121.523 42.0273L124.512 40.5977C124.574 40.5664 124.637 40.5508 124.699 40.5508C124.824 40.5508 124.887 40.6445 124.887 40.832V42.3203C124.887 42.4062 124.93 42.4492 125.016 42.4492C125.109 42.4492 125.328 42.3359 125.672 42.1094C126.664 41.4688 127.695 41.1484 128.766 41.1484C129.516 41.1484 130.203 41.4531 130.828 42.0625C131.648 42.8594 132.195 43.9688 132.469 45.3906C132.547 45.7969 132.586 46.2305 132.586 46.6914C132.586 47.1445 132.512 47.625 132.363 48.1328C132.066 49.1406 131.527 50.0195 130.746 50.7695ZM127.395 42.3672C126.332 42.3672 125.496 42.6719 124.887 43.2812V49.8672C124.887 50.2578 124.953 50.5117 125.086 50.6289C125.43 50.9258 125.957 51.1562 126.668 51.3203C128.074 51.6406 129.168 51.3047 129.949 50.3125C130.504 49.6016 130.781 48.7422 130.781 47.7344C130.781 45.7734 130.34 44.3047 129.457 43.3281C128.926 42.7344 128.238 42.4141 127.395 42.3672ZM141.938 50.0664C141.938 50.2695 142.031 50.4336 142.219 50.5586C142.414 50.6758 142.637 50.7344 142.887 50.7344C143.137 50.7344 143.344 50.6719 143.508 50.5469C143.68 50.4141 143.797 50.3477 143.859 50.3477C143.922 50.3477 143.953 50.4336 143.953 50.6055C143.953 50.7695 143.875 50.9102 143.719 51.0273C142.547 51.8867 141.754 52.3164 141.34 52.3164C140.84 52.3164 140.434 51.7969 140.121 50.7578C140.098 50.6797 140.078 50.6445 140.062 50.6523C139.094 51.3789 138.484 51.8164 138.234 51.9648C137.594 52.332 136.949 52.3906 136.301 52.1406C135.66 51.8906 135.195 51.4766 134.906 50.8984C134.766 50.6016 134.695 50.2852 134.695 49.9492C134.695 49.2852 134.941 48.7578 135.434 48.3672C135.926 47.9766 136.863 47.6016 138.246 47.2422C138.715 47.1172 139.133 46.957 139.5 46.7617C139.867 46.5664 140.059 46.4414 140.074 46.3867C140.098 46.332 140.109 46.2812 140.109 46.2344V43.9844C140.109 43.1016 139.766 42.4805 139.078 42.1211C138.852 42.0039 138.578 41.9453 138.258 41.9453C137.945 41.9453 137.625 42.0703 137.297 42.3203C136.977 42.5703 136.816 42.9258 136.816 43.3867L136.875 43.8438C136.828 43.9375 136.547 44.0938 136.031 44.3125C135.516 44.5312 135.219 44.6484 135.141 44.6641C135.016 44.6641 134.953 44.5156 134.953 44.2188C134.953 43.9141 135.043 43.5781 135.223 43.2109C135.402 42.8438 135.656 42.5078 135.984 42.2031C136.75 41.4922 137.625 41.1367 138.609 41.1367C139.594 41.1367 140.395 41.4102 141.012 41.957C141.629 42.4961 141.938 43.1406 141.938 43.8906V50.0664ZM136.535 49.7266C136.535 50.1016 136.68 50.4297 136.969 50.7109C137.258 50.9844 137.586 51.1211 137.953 51.1211C138.328 51.1211 138.781 50.9648 139.312 50.6523C139.844 50.332 140.109 50.0039 140.109 49.668V47.2891C140.109 47.2031 140.09 47.1602 140.051 47.1602C140.012 47.1602 139.984 47.1641 139.969 47.1719L137.25 48.4375C136.969 48.6406 136.777 48.8125 136.676 48.9531C136.582 49.0938 136.535 49.3516 136.535 49.7266ZM152.203 43.5977C152.109 43.582 151.973 43.5312 151.793 43.4453C151.145 43.1484 150.637 43 150.27 43C149.902 43 149.516 43.2305 149.109 43.6914C148.711 44.1445 148.512 44.5547 148.512 44.9219V50.2188C148.512 50.8047 148.852 51.1953 149.531 51.3906C149.828 51.4688 150.105 51.5273 150.363 51.5664C150.621 51.5977 150.785 51.6289 150.855 51.6602C150.934 51.6914 150.973 51.7539 150.973 51.8477C150.973 51.9336 150.934 51.9844 150.855 52H144.984C144.906 51.9844 144.867 51.9297 144.867 51.8359C144.867 51.6953 145.051 51.6016 145.418 51.5547C146.262 51.4297 146.684 50.9844 146.684 50.2188V44.0195C146.684 43.6914 146.504 43.4648 146.145 43.3398C145.988 43.2852 145.82 43.2422 145.641 43.2109C145.461 43.1719 145.316 43.1367 145.207 43.1055C145.105 43.0742 145.039 43.0469 145.008 43.0234C144.984 42.9922 144.973 42.9336 144.973 42.8477C144.973 42.7539 145.031 42.6758 145.148 42.6133L148.137 41.207C148.23 41.1602 148.289 41.1367 148.312 41.1367C148.445 41.1367 148.512 41.2305 148.512 41.418V43.3164C148.512 43.4102 148.535 43.457 148.582 43.457C148.645 43.457 148.805 43.2734 149.062 42.9062C149.805 41.8672 150.418 41.3477 150.902 41.3477C151.176 41.3477 151.594 41.457 152.156 41.6758C152.727 41.8945 153.012 42.0781 153.012 42.2266C153.012 42.4062 152.922 42.6797 152.742 43.0469C152.562 43.4141 152.383 43.5977 152.203 43.5977ZM157.324 46.3867C157.23 46.3867 157.184 46.5781 157.184 46.9609V50.2188C157.184 50.9844 157.605 51.4297 158.449 51.5547C158.816 51.6016 159 51.6875 159 51.8125C159 51.9375 158.961 52 158.883 52H153.656C153.578 51.9844 153.539 51.9297 153.539 51.8359C153.539 51.6953 153.723 51.6016 154.09 51.5547C154.934 51.4297 155.355 50.9844 155.355 50.2188V35.6055C155.355 35.2773 155.176 35.0508 154.816 34.9258C154.66 34.8711 154.492 34.8281 154.312 34.7969C154.133 34.7578 153.988 34.7227 153.879 34.6914C153.777 34.6602 153.711 34.6328 153.68 34.6094C153.656 34.5781 153.645 34.5195 153.645 34.4336C153.645 34.3398 153.703 34.2617 153.82 34.1992L156.809 32.793C156.902 32.7461 156.961 32.7227 156.984 32.7227C157.117 32.7227 157.184 32.8164 157.184 33.0039V44.6992C157.246 44.9258 157.328 45.0586 157.43 45.0977C157.531 45.1367 157.641 45.1562 157.758 45.1562C157.984 45.1562 158.355 44.9805 158.871 44.6289C159.395 44.2695 159.867 43.8711 160.289 43.4336C160.711 42.9883 160.922 42.6836 160.922 42.5195C160.922 42.3477 160.848 42.2422 160.699 42.2031C160.551 42.1562 160.383 42.125 160.195 42.1094C160.016 42.0859 159.852 42.0547 159.703 42.0156C159.555 41.9688 159.48 41.8633 159.48 41.6992C159.48 41.5352 159.641 41.4531 159.961 41.4531H164.426C164.699 41.4531 164.836 41.543 164.836 41.7227C164.836 41.8164 164.746 41.8906 164.566 41.9453C164.387 42 164.039 42.0859 163.523 42.2031C163.008 42.3125 162.598 42.4883 162.293 42.7305L158.93 45.3555C158.93 45.457 159.004 45.582 159.152 45.7305L163.969 50.8047C164.281 51.125 164.602 51.3359 164.93 51.4375C165.258 51.5312 165.477 51.5938 165.586 51.625C165.695 51.6562 165.75 51.7109 165.75 51.7891C165.75 51.9297 165.688 52 165.562 52H160.418C160.34 52 160.301 51.9531 160.301 51.8594C160.301 51.7188 160.398 51.6289 160.594 51.5898C161.18 51.4805 161.473 51.2812 161.473 50.9922C161.473 50.9062 161.414 50.793 161.297 50.6523C161.18 50.5117 161.07 50.375 160.969 50.2422L157.348 46.4102C157.348 46.4023 157.344 46.3945 157.336 46.3867H157.324ZM9.89062 69.6172C9.96875 69.6172 10.0078 69.7031 10.0078 69.875L10.3125 72.3711C10.3438 72.5273 10.3594 72.6289 10.3594 72.6758C10.3594 72.7148 10.2969 72.7344 10.1719 72.7344C10.0547 72.7344 9.98047 72.7188 9.94922 72.6875C9.91797 72.6562 9.88672 72.6055 9.85547 72.5352C9.82422 72.457 9.78516 72.3711 9.73828 72.2773C9.69922 72.1836 9.65625 72.0898 9.60938 71.9961C9.44531 71.6367 9.1875 71.2812 8.83594 70.9297C7.97656 70.1016 7.00781 69.6875 5.92969 69.6875C5.28125 69.6875 4.66797 69.8984 4.08984 70.3203C3.51172 70.7422 3.22266 71.2422 3.22266 71.8203C3.22266 72.3906 3.32812 72.8867 3.53906 73.3086C3.75781 73.7305 4.04297 74.1211 4.39453 74.4805C4.74609 74.8398 5.14844 75.1836 5.60156 75.5117C6.05469 75.8398 6.51562 76.1719 6.98438 76.5078C8.22656 77.375 9.10938 78.1172 9.63281 78.7344C10.4531 79.6875 10.8984 80.7578 10.9688 81.9453C10.9688 83.2734 10.457 84.3359 9.43359 85.1328C8.41797 85.9219 7.23438 86.3164 5.88281 86.3164C5.01562 86.3164 4.32422 86.2266 3.80859 86.0469C3.30078 85.875 2.94922 85.75 2.75391 85.6719C2.55859 85.5938 2.41406 85.5547 2.32031 85.5547C2.23438 85.5547 2.17969 85.5586 2.15625 85.5664L1.58203 85.6836C1.48047 85.6836 1.41797 85.6016 1.39453 85.4375C1.16797 83.5 1.05469 82.4727 1.05469 82.3555C1.05469 82.2305 1.0625 82.1484 1.07812 82.1094C1.10156 82.0625 1.15625 82.0391 1.24219 82.0391C1.46094 82.0391 1.66016 82.3516 1.83984 82.9766C2.66016 84.7344 4.02344 85.6133 5.92969 85.6133C6.80469 85.6133 7.55078 85.3477 8.16797 84.8164C8.79297 84.2852 9.10547 83.5938 9.10547 82.7422C9.10547 81.3828 8.29297 80.1172 6.66797 78.9453C6.20703 78.6172 5.54297 78.1602 4.67578 77.5742C3.80859 76.9883 3.11719 76.4023 2.60156 75.8164C1.79688 74.9102 1.39453 73.9023 1.39453 72.793C1.39453 71.6758 1.83594 70.7617 2.71875 70.0508C3.60938 69.3398 4.62891 68.9844 5.77734 68.9844C6.37109 68.9844 7.02344 69.0859 7.73438 69.2891C8.45312 69.4922 8.95312 69.6289 9.23438 69.6992L9.89062 69.6172ZM15.6914 76.9883C15.6445 76.9883 15.6211 77.0234 15.6211 77.0938V83.5625C15.6211 84.0312 15.7227 84.3984 15.9258 84.6641C16.1367 84.9297 16.4023 85.0625 16.7227 85.0625C17.043 85.0625 17.3203 85.0117 17.5547 84.9102C17.7969 84.8008 18.0039 84.6836 18.1758 84.5586C18.3555 84.4336 18.5156 84.3203 18.6562 84.2188C18.7969 84.1094 18.9219 84.0547 19.0312 84.0547C19.1406 84.0547 19.1953 84.082 19.1953 84.1367C19.1953 84.3242 19.1758 84.4453 19.1367 84.5C18.1992 85.7109 17.293 86.3164 16.418 86.3164C15.5508 86.3164 14.8945 86.043 14.4492 85.4961C14.0117 84.9414 13.793 84.2812 13.793 83.5156V76.9883H12.9141C12.6953 76.9883 12.5781 76.918 12.5625 76.7773C12.5547 76.6367 12.5781 76.5469 12.6328 76.5078C13.0469 76.2422 13.6172 75.7656 14.3438 75.0781C14.4219 74.9922 14.5273 74.8633 14.6602 74.6914C14.793 74.5195 14.9844 74.2852 15.2344 73.9883C15.4922 73.6914 15.6875 73.543 15.8203 73.543C15.9531 73.543 16.0195 73.5977 16.0195 73.707C16.0195 73.7227 15.8867 74.2344 15.6211 75.2422C15.6211 75.3828 15.6836 75.457 15.8086 75.4648H18.7969C19.1406 75.4648 19.3125 75.9492 19.3125 76.918C19.3125 76.9648 19.2812 76.9883 19.2188 76.9883H15.6914ZM27.5625 77.5977C27.4688 77.582 27.332 77.5312 27.1523 77.4453C26.5039 77.1484 25.9961 77 25.6289 77C25.2617 77 24.875 77.2305 24.4688 77.6914C24.0703 78.1445 23.8711 78.5547 23.8711 78.9219V84.2188C23.8711 84.8047 24.2109 85.1953 24.8906 85.3906C25.1875 85.4688 25.4648 85.5273 25.7227 85.5664C25.9805 85.5977 26.1445 85.6289 26.2148 85.6602C26.293 85.6914 26.332 85.7539 26.332 85.8477C26.332 85.9336 26.293 85.9844 26.2148 86H20.3438C20.2656 85.9844 20.2266 85.9297 20.2266 85.8359C20.2266 85.6953 20.4102 85.6016 20.7773 85.5547C21.6211 85.4297 22.043 84.9844 22.043 84.2188V78.0195C22.043 77.6914 21.8633 77.4648 21.5039 77.3398C21.3477 77.2852 21.1797 77.2422 21 77.2109C20.8203 77.1719 20.6758 77.1367 20.5664 77.1055C20.4648 77.0742 20.3984 77.0469 20.3672 77.0234C20.3438 76.9922 20.332 76.9336 20.332 76.8477C20.332 76.7539 20.3906 76.6758 20.5078 76.6133L23.4961 75.207C23.5898 75.1602 23.6484 75.1367 23.6719 75.1367C23.8047 75.1367 23.8711 75.2305 23.8711 75.418V77.3164C23.8711 77.4102 23.8945 77.457 23.9414 77.457C24.0039 77.457 24.1641 77.2734 24.4219 76.9062C25.1641 75.8672 25.7773 75.3477 26.2617 75.3477C26.5352 75.3477 26.9531 75.457 27.5156 75.6758C28.0859 75.8945 28.3711 76.0781 28.3711 76.2266C28.3711 76.4062 28.2812 76.6797 28.1016 77.0469C27.9219 77.4141 27.7422 77.5977 27.5625 77.5977ZM31.0898 79.8242C30.957 79.8242 30.8906 80.1094 30.8906 80.6797C30.8906 81.8906 31.25 82.9062 31.9688 83.7266C32.6875 84.5469 33.5781 84.957 34.6406 84.957C35.7109 84.957 36.7383 84.4961 37.7227 83.5742C37.7383 83.5586 37.7578 83.5508 37.7812 83.5508H37.8398C37.8867 83.5508 37.9297 83.5898 37.9688 83.668C38.0156 83.7383 38.0586 83.7852 38.0977 83.8086C37.1914 84.9102 36.125 85.6719 34.8984 86.0938C34.4766 86.2422 34 86.3164 33.4688 86.3164C32.9375 86.3164 32.3984 86.1719 31.8516 85.8828C31.3047 85.5859 30.8359 85.1992 30.4453 84.7227C29.6172 83.7305 29.2031 82.4961 29.2031 81.0195C29.2031 79.5352 29.6523 78.1836 30.5508 76.9648C31.457 75.7461 32.6992 75.1367 34.2773 75.1367C35.4102 75.1367 36.3359 75.6445 37.0547 76.6602C37.7734 77.668 38.1328 78.5547 38.1328 79.3203C38.1328 79.6562 38.0508 79.8242 37.8867 79.8242H31.0898ZM31.2188 78.6992C31.2188 78.8477 31.2891 78.9219 31.4297 78.9219H35.8477C36.0508 78.9219 36.1523 78.8008 36.1523 78.5586C36.1523 77.9961 35.8984 77.4219 35.3906 76.8359C34.8906 76.2422 34.3398 75.9453 33.7383 75.9453C33.1523 75.9453 32.6172 76.2109 32.1328 76.7422C31.6562 77.2734 31.3516 77.8789 31.2188 78.5586V78.6992ZM47.3438 84.0664C47.3438 84.2695 47.4375 84.4336 47.625 84.5586C47.8203 84.6758 48.043 84.7344 48.293 84.7344C48.543 84.7344 48.75 84.6719 48.9141 84.5469C49.0859 84.4141 49.2031 84.3477 49.2656 84.3477C49.3281 84.3477 49.3594 84.4336 49.3594 84.6055C49.3594 84.7695 49.2812 84.9102 49.125 85.0273C47.9531 85.8867 47.1602 86.3164 46.7461 86.3164C46.2461 86.3164 45.8398 85.7969 45.5273 84.7578C45.5039 84.6797 45.4844 84.6445 45.4688 84.6523C44.5 85.3789 43.8906 85.8164 43.6406 85.9648C43 86.332 42.3555 86.3906 41.707 86.1406C41.0664 85.8906 40.6016 85.4766 40.3125 84.8984C40.1719 84.6016 40.1016 84.2852 40.1016 83.9492C40.1016 83.2852 40.3477 82.7578 40.8398 82.3672C41.332 81.9766 42.2695 81.6016 43.6523 81.2422C44.1211 81.1172 44.5391 80.957 44.9062 80.7617C45.2734 80.5664 45.4648 80.4414 45.4805 80.3867C45.5039 80.332 45.5156 80.2812 45.5156 80.2344V77.9844C45.5156 77.1016 45.1719 76.4805 44.4844 76.1211C44.2578 76.0039 43.9844 75.9453 43.6641 75.9453C43.3516 75.9453 43.0312 76.0703 42.7031 76.3203C42.3828 76.5703 42.2227 76.9258 42.2227 77.3867L42.2812 77.8438C42.2344 77.9375 41.9531 78.0938 41.4375 78.3125C40.9219 78.5312 40.625 78.6484 40.5469 78.6641C40.4219 78.6641 40.3594 78.5156 40.3594 78.2188C40.3594 77.9141 40.4492 77.5781 40.6289 77.2109C40.8086 76.8438 41.0625 76.5078 41.3906 76.2031C42.1562 75.4922 43.0312 75.1367 44.0156 75.1367C45 75.1367 45.8008 75.4102 46.418 75.957C47.0352 76.4961 47.3438 77.1406 47.3438 77.8906V84.0664ZM41.9414 83.7266C41.9414 84.1016 42.0859 84.4297 42.375 84.7109C42.6641 84.9844 42.9922 85.1211 43.3594 85.1211C43.7344 85.1211 44.1875 84.9648 44.7188 84.6523C45.25 84.332 45.5156 84.0039 45.5156 83.668V81.2891C45.5156 81.2031 45.4961 81.1602 45.457 81.1602C45.418 81.1602 45.3906 81.1641 45.375 81.1719L42.6562 82.4375C42.375 82.6406 42.1836 82.8125 42.082 82.9531C41.9883 83.0938 41.9414 83.3516 41.9414 83.7266ZM65.9297 82.3086L65.9062 79.8359C65.9062 78.8281 65.8203 78.1211 65.6484 77.7148C65.4766 77.3086 65.2578 77.0039 64.9922 76.8008C64.7266 76.5898 64.3672 76.4844 63.9141 76.4844C63.4688 76.4844 62.5195 76.8359 61.0664 77.5391C60.8711 77.6562 60.7695 77.7656 60.7617 77.8672V84.1719C60.7617 84.9609 61.1836 85.4141 62.0273 85.5312C62.3945 85.5859 62.5781 85.6758 62.5781 85.8008C62.5781 85.918 62.5391 85.9844 62.4609 86H57.2344C57.1562 85.9844 57.1172 85.9297 57.1172 85.8359C57.1172 85.6875 57.3008 85.5859 57.668 85.5312C58.5117 85.4141 58.9336 84.9609 58.9336 84.1719V78.3359C58.9336 77.1094 58.1758 76.4961 56.6602 76.4961C56.1055 76.4961 55.3359 76.8242 54.3516 77.4805C54.1016 77.6445 53.918 77.7969 53.8008 77.9375V84.1719C53.8008 84.9609 54.2227 85.4141 55.0664 85.5312C55.4336 85.5859 55.6172 85.6758 55.6172 85.8008C55.6172 85.918 55.5781 85.9844 55.5 86H50.2734C50.1953 85.9844 50.1562 85.9297 50.1562 85.8359C50.1562 85.6875 50.3398 85.5859 50.707 85.5312C51.5508 85.4141 51.9727 84.9688 51.9727 84.1953V77.4453C51.9727 77.1172 51.793 76.8906 51.4336 76.7656C51.2773 76.7109 51.1094 76.668 50.9297 76.6367C50.75 76.5977 50.6055 76.5625 50.4961 76.5312C50.3945 76.5 50.3281 76.4727 50.2969 76.4492C50.2734 76.418 50.2617 76.3594 50.2617 76.2734C50.2617 76.1797 50.3203 76.1016 50.4375 76.0391L53.4258 74.6328C53.5195 74.5859 53.5781 74.5625 53.6016 74.5625C53.7344 74.5625 53.8008 74.6562 53.8008 74.8438V76.7891C53.8086 76.8359 53.8359 76.8594 53.8828 76.8594C53.9375 76.8594 54.0664 76.8047 54.2695 76.6953C54.4805 76.5859 54.7539 76.4336 55.0898 76.2383C55.4258 76.0352 55.8672 75.8008 56.4141 75.5352C56.9688 75.2695 57.5547 75.1367 58.1719 75.1367C59.1641 75.1367 59.875 75.5625 60.3047 76.4141C60.4688 76.7578 60.6172 76.9062 60.75 76.8594C60.8828 76.8047 61.0898 76.707 61.3711 76.5664C62.0352 76.2383 62.707 75.918 63.3867 75.6055C64.0664 75.293 64.6289 75.1367 65.0742 75.1367C66.8789 75.1367 67.7812 76.7812 67.7812 80.0703L67.6758 83.4922V84.1719C67.6758 84.7812 67.9805 85.1797 68.5898 85.3672C68.8477 85.4531 69.0938 85.5156 69.3281 85.5547C69.5703 85.5859 69.7266 85.6172 69.7969 85.6484C69.875 85.6797 69.9141 85.7422 69.9141 85.8359C69.9141 85.9297 69.875 85.9844 69.7969 86H64.1484C64.0703 85.9844 64.0312 85.9297 64.0312 85.8359C64.0312 85.6875 64.2148 85.5859 64.582 85.5312C65.418 85.4141 65.8359 84.9297 65.8359 84.0781C65.8984 83.6875 65.9297 83.0977 65.9297 82.3086ZM70.7812 86C70.7031 85.9844 70.6641 85.9297 70.6641 85.8359C70.6641 85.6953 70.8477 85.6016 71.2148 85.5547C72.0586 85.4297 72.4805 84.9844 72.4805 84.2188V78.0195C72.4805 77.6914 72.3008 77.4648 71.9414 77.3398C71.7852 77.2852 71.6172 77.2422 71.4375 77.2109C71.2578 77.1719 71.1133 77.1367 71.0039 77.1055C70.9023 77.0742 70.8359 77.0469 70.8047 77.0234C70.7812 76.9922 70.7695 76.9336 70.7695 76.8477C70.7695 76.7539 70.8281 76.6758 70.9453 76.6133L73.9336 75.207C74.0273 75.1602 74.0859 75.1367 74.1094 75.1367C74.2422 75.1367 74.3086 75.2305 74.3086 75.418V84.2188C74.3086 84.9844 74.7305 85.4297 75.5742 85.5547C75.9414 85.6016 76.125 85.6836 76.125 85.8008C76.125 85.918 76.0859 85.9844 76.0078 86H70.7812ZM73.2188 71.8438C72.8984 71.8438 72.6133 71.7422 72.3633 71.5391C72.1211 71.3359 72 71.0547 72 70.6953C72 70.3281 72.1172 70.0391 72.3516 69.8281C72.5859 69.6172 72.8633 69.5117 73.1836 69.5117C73.5117 69.5117 73.7852 69.6367 74.0039 69.8867C74.2305 70.1367 74.3438 70.4062 74.3438 70.6953C74.3438 70.9844 74.2383 71.25 74.0273 71.4922C73.8164 71.7266 73.5469 71.8438 73.2188 71.8438ZM86.1328 82.3086L86.1094 79.8359C86.1094 78.8281 86.0234 78.1211 85.8516 77.7148C85.6797 77.3086 85.4609 77.0039 85.1953 76.8008C84.9297 76.5898 84.5703 76.4844 84.1172 76.4844C83.6719 76.4844 82.7227 76.8359 81.2695 77.5391C81.0742 77.6562 80.9727 77.7656 80.9648 77.8672V84.1719C80.9648 84.9609 81.3867 85.4141 82.2305 85.5312C82.5977 85.5859 82.7812 85.6758 82.7812 85.8008C82.7812 85.918 82.7422 85.9844 82.6641 86H77.4375C77.3594 85.9844 77.3203 85.9297 77.3203 85.8359C77.3203 85.6875 77.5039 85.5859 77.8711 85.5312C78.7148 85.4141 79.1367 84.9609 79.1367 84.1719V77.4453C79.1367 77.1172 78.957 76.8906 78.5977 76.7656C78.4414 76.7109 78.2734 76.668 78.0938 76.6367C77.9141 76.5977 77.7695 76.5625 77.6602 76.5312C77.5586 76.5 77.4922 76.4727 77.4609 76.4492C77.4375 76.418 77.4258 76.3594 77.4258 76.2734C77.4258 76.1797 77.4844 76.1016 77.6016 76.0391L80.5898 74.6328C80.6836 74.5859 80.7422 74.5625 80.7656 74.5625C80.8984 74.5625 80.9648 74.6562 80.9648 74.8438V76.6719C80.9883 76.75 81.0195 76.7891 81.0586 76.7891C81.1055 76.7891 81.2734 76.7188 81.5625 76.5781C82.2344 76.2422 82.9102 75.918 83.5898 75.6055C84.2695 75.293 84.832 75.1367 85.2773 75.1367C87.082 75.1367 87.9844 76.7812 87.9844 80.0703L87.8789 83.4922V84.1719C87.8789 84.7812 88.1836 85.1797 88.793 85.3672C89.0508 85.4531 89.2969 85.5156 89.5312 85.5547C89.7734 85.5859 89.9297 85.6172 90 85.6484C90.0781 85.6797 90.1172 85.7422 90.1172 85.8359C90.1172 85.9297 90.0781 85.9844 90 86H84.3516C84.2734 85.9844 84.2344 85.9297 84.2344 85.8359C84.2344 85.6875 84.418 85.5859 84.7852 85.5312C85.6211 85.4141 86.0391 84.9297 86.0391 84.0781C86.1016 83.6875 86.1328 83.0977 86.1328 82.3086ZM99.9492 76.2617C99.9492 76.2617 100.996 76.2148 103.09 76.1211C103.27 76.1211 103.387 76.1406 103.441 76.1797C103.496 76.2188 103.555 76.3555 103.617 76.5898C103.68 76.8164 103.711 77.0312 103.711 77.2344C103.711 77.4375 103.691 77.5547 103.652 77.5859C103.613 77.6172 103.535 77.6328 103.418 77.6328H100.816C100.863 77.7188 100.914 77.8086 100.969 77.9023C101.023 77.9961 101.094 78.1523 101.18 78.3711C101.266 78.5898 101.309 78.9297 101.309 79.3906C101.309 79.8438 101.195 80.3203 100.969 80.8203C100.75 81.3125 100.426 81.75 99.9961 82.1328C99.043 82.9922 97.8086 83.4219 96.293 83.4219C95.8945 83.4219 95.457 83.3477 94.9805 83.1992C94.8633 83.3242 94.707 83.4414 94.5117 83.5508C94.3164 83.6523 94.125 83.7578 93.9375 83.8672C93.4688 84.1328 93.2344 84.3984 93.2344 84.6641C93.2344 85.3281 94.3359 85.668 96.5391 85.6836C98.7422 85.6992 100.188 85.7734 100.875 85.9062C101.57 86.0312 102.109 86.2852 102.492 86.668C103.094 87.2695 103.395 87.957 103.395 88.7305C103.395 89.3945 103.109 90.0781 102.539 90.7812C101.547 92.0234 100.031 92.8516 97.9922 93.2656C97.2656 93.4141 96.4961 93.4883 95.6836 93.4883C94.207 93.4883 93.0859 93.2188 92.3203 92.6797C91.5547 92.1484 91.1719 91.5039 91.1719 90.7461C91.1719 90.332 91.2695 89.9883 91.4648 89.7148C91.6602 89.4492 91.9062 89.1953 92.2031 88.9531C92.5078 88.7188 92.8398 88.4688 93.1992 88.2031C93.5586 87.9453 93.9023 87.6133 94.2305 87.207C93.4805 87.1445 92.8359 86.9062 92.2969 86.4922C91.7656 86.0781 91.5 85.6719 91.5 85.2734C91.5 84.875 91.6055 84.582 91.8164 84.3945C92.0273 84.1992 92.2852 84.0352 92.5898 83.9023C92.8945 83.7617 93.2148 83.6328 93.5508 83.5156C93.8867 83.3984 94.1797 83.2461 94.4297 83.0586C93.5547 82.7148 92.8789 82.2422 92.4023 81.6406C91.9258 81.0312 91.6875 80.3672 91.6875 79.6484C91.6875 78.3125 92.1719 77.2227 93.1406 76.3789C94.1172 75.5352 95.293 75.1133 96.668 75.1133C98.043 75.1133 99.1367 75.4961 99.9492 76.2617ZM93.5742 88.4844C93.3945 88.6641 93.2461 88.8555 93.1289 89.0586C93.0117 89.2617 92.9531 89.5156 92.9531 89.8203C92.9531 90.1328 93.0625 90.457 93.2812 90.793C93.5078 91.1367 93.8125 91.4453 94.1953 91.7188C95.0391 92.3438 96.0547 92.6562 97.2422 92.6562C98.4297 92.6562 99.5039 92.3086 100.465 91.6133C101.434 90.9258 101.918 90.168 101.918 89.3398C101.918 88.5195 101.52 87.9688 100.723 87.6875C100.348 87.5625 99.3828 87.4844 97.8281 87.4531C96.2734 87.4219 95.2656 87.3789 94.8047 87.3242C94.6016 87.5586 94.3906 87.7656 94.1719 87.9453C93.9609 88.125 93.7617 88.3047 93.5742 88.4844ZM99.3867 79.3789C99.3867 78.2773 99.1094 77.3828 98.5547 76.6953C98.0078 76 97.2812 75.6523 96.375 75.6523C95.2031 75.6523 94.375 76.2031 93.8906 77.3047C93.7031 77.7266 93.6094 78.2109 93.6094 78.7578C93.6094 79.875 93.8398 80.8047 94.3008 81.5469C94.8633 82.4375 95.6016 82.8828 96.5156 82.8828C97.4297 82.8828 98.1367 82.5742 98.6367 81.957C99.1367 81.3398 99.3867 80.4805 99.3867 79.3789ZM108.48 85.3906C108.48 86.8438 107.797 88.0547 106.43 89.0234C106.117 89.25 105.883 89.3633 105.727 89.3633C105.609 89.3633 105.551 89.2578 105.551 89.0469C105.551 88.9219 105.633 88.8008 105.797 88.6836C105.969 88.5742 106.094 88.4844 106.172 88.4141C106.961 87.7031 107.355 87.0586 107.355 86.4805C107.355 86.2539 107.309 86.1172 107.215 86.0703C107.129 86.0234 106.938 86 106.641 86C106.344 86 106.031 85.8867 105.703 85.6602C105.383 85.4336 105.223 85.1016 105.223 84.6641C105.223 84.2266 105.328 83.9141 105.539 83.7266C105.898 83.3984 106.242 83.2344 106.57 83.2344C107.18 83.2344 107.648 83.4766 107.977 83.9609C108.312 84.4375 108.48 84.9141 108.48 85.3906ZM126.398 76.5195C127.445 76.5195 127.969 76.0078 127.969 74.9844C127.969 74.9219 128 74.8906 128.062 74.8906H128.344C128.406 74.8906 128.438 74.9219 128.438 74.9844V79.3438C128.438 79.4062 128.406 79.4375 128.344 79.4375H128.062C128 79.4375 127.969 79.4062 127.969 79.3438C127.969 78.625 127.766 78.1289 127.359 77.8555C127.141 77.707 126.828 77.6328 126.422 77.6328H121.805C121.617 77.6328 121.523 77.7383 121.523 77.9492V83.9727C121.523 84.5039 121.84 84.8984 122.473 85.1562C123.113 85.4062 123.516 85.5312 123.68 85.5312C123.852 85.5312 123.938 85.5625 123.938 85.625V85.9062C123.938 85.9688 123.906 86 123.844 86H117.445C117.383 86 117.352 85.9688 117.352 85.9062V85.625C117.352 85.5625 117.418 85.5312 117.551 85.5312C117.684 85.5312 117.891 85.4688 118.172 85.3438C118.453 85.2188 118.699 85.0352 118.91 84.793C119.129 84.543 119.238 84.2422 119.238 83.8906V71.2344C119.238 70.7266 118.969 70.3633 118.43 70.1445C118.117 70.0117 117.809 69.9453 117.504 69.9453H117.457C117.395 69.9453 117.363 69.9141 117.363 69.8516V69.5703C117.363 69.5078 117.395 69.4766 117.457 69.4766H128.508C128.602 69.4922 128.672 69.5156 128.719 69.5469C128.766 69.5703 128.789 69.6367 128.789 69.7461V72.582C128.789 72.6758 128.773 72.7344 128.742 72.7578C128.719 72.7812 128.672 72.793 128.602 72.793H128.461C128.445 72.7852 128.391 72.5742 128.297 72.1602C128.211 71.7383 128.074 71.4141 127.887 71.1875C127.566 70.8438 127.203 70.6523 126.797 70.6133C126.633 70.5977 126.434 70.5898 126.199 70.5898H121.758C121.602 70.5898 121.523 70.668 121.523 70.8242V76.25C121.523 76.4297 121.617 76.5195 121.805 76.5195H126.398ZM135.176 85.5547C135.543 85.6016 135.727 85.6953 135.727 85.8359C135.727 85.9297 135.688 85.9844 135.609 86H130.383C130.305 85.9844 130.266 85.9297 130.266 85.8359C130.266 85.6953 130.449 85.6016 130.816 85.5547C131.66 85.4297 132.082 84.9844 132.082 84.2188V69.6055C132.082 69.2773 131.902 69.0508 131.543 68.9258C131.387 68.8711 131.219 68.8281 131.039 68.7969C130.859 68.7578 130.715 68.7227 130.605 68.6914C130.504 68.6602 130.438 68.6328 130.406 68.6094C130.383 68.5781 130.371 68.5195 130.371 68.4336C130.371 68.3398 130.43 68.2617 130.547 68.1992L133.535 66.793C133.629 66.7461 133.688 66.7227 133.711 66.7227C133.844 66.7227 133.91 66.8164 133.91 67.0039V84.2188C133.91 84.9844 134.332 85.4297 135.176 85.5547ZM136.969 86C136.891 85.9844 136.852 85.9297 136.852 85.8359C136.852 85.6953 137.035 85.6016 137.402 85.5547C138.246 85.4297 138.668 84.9844 138.668 84.2188V78.0195C138.668 77.6914 138.488 77.4648 138.129 77.3398C137.973 77.2852 137.805 77.2422 137.625 77.2109C137.445 77.1719 137.301 77.1367 137.191 77.1055C137.09 77.0742 137.023 77.0469 136.992 77.0234C136.969 76.9922 136.957 76.9336 136.957 76.8477C136.957 76.7539 137.016 76.6758 137.133 76.6133L140.121 75.207C140.215 75.1602 140.273 75.1367 140.297 75.1367C140.43 75.1367 140.496 75.2305 140.496 75.418V84.2188C140.496 84.9844 140.918 85.4297 141.762 85.5547C142.129 85.6016 142.312 85.6836 142.312 85.8008C142.312 85.918 142.273 85.9844 142.195 86H136.969ZM139.406 71.8438C139.086 71.8438 138.801 71.7422 138.551 71.5391C138.309 71.3359 138.188 71.0547 138.188 70.6953C138.188 70.3281 138.305 70.0391 138.539 69.8281C138.773 69.6172 139.051 69.5117 139.371 69.5117C139.699 69.5117 139.973 69.6367 140.191 69.8867C140.418 70.1367 140.531 70.4062 140.531 70.6953C140.531 70.9844 140.426 71.25 140.215 71.4922C140.004 71.7266 139.734 71.8438 139.406 71.8438ZM152.32 82.3086L152.297 79.8359C152.297 78.8281 152.211 78.1211 152.039 77.7148C151.867 77.3086 151.648 77.0039 151.383 76.8008C151.117 76.5898 150.758 76.4844 150.305 76.4844C149.859 76.4844 148.91 76.8359 147.457 77.5391C147.262 77.6562 147.16 77.7656 147.152 77.8672V84.1719C147.152 84.9609 147.574 85.4141 148.418 85.5312C148.785 85.5859 148.969 85.6758 148.969 85.8008C148.969 85.918 148.93 85.9844 148.852 86H143.625C143.547 85.9844 143.508 85.9297 143.508 85.8359C143.508 85.6875 143.691 85.5859 144.059 85.5312C144.902 85.4141 145.324 84.9609 145.324 84.1719V77.4453C145.324 77.1172 145.145 76.8906 144.785 76.7656C144.629 76.7109 144.461 76.668 144.281 76.6367C144.102 76.5977 143.957 76.5625 143.848 76.5312C143.746 76.5 143.68 76.4727 143.648 76.4492C143.625 76.418 143.613 76.3594 143.613 76.2734C143.613 76.1797 143.672 76.1016 143.789 76.0391L146.777 74.6328C146.871 74.5859 146.93 74.5625 146.953 74.5625C147.086 74.5625 147.152 74.6562 147.152 74.8438V76.6719C147.176 76.75 147.207 76.7891 147.246 76.7891C147.293 76.7891 147.461 76.7188 147.75 76.5781C148.422 76.2422 149.098 75.918 149.777 75.6055C150.457 75.293 151.02 75.1367 151.465 75.1367C153.27 75.1367 154.172 76.7812 154.172 80.0703L154.066 83.4922V84.1719C154.066 84.7812 154.371 85.1797 154.98 85.3672C155.238 85.4531 155.484 85.5156 155.719 85.5547C155.961 85.5859 156.117 85.6172 156.188 85.6484C156.266 85.6797 156.305 85.7422 156.305 85.8359C156.305 85.9297 156.266 85.9844 156.188 86H150.539C150.461 85.9844 150.422 85.9297 150.422 85.8359C150.422 85.6875 150.605 85.5859 150.973 85.5312C151.809 85.4141 152.227 84.9297 152.227 84.0781C152.289 83.6875 152.32 83.0977 152.32 82.3086ZM160.84 80.3867C160.746 80.3867 160.699 80.5781 160.699 80.9609V84.2188C160.699 84.9844 161.121 85.4297 161.965 85.5547C162.332 85.6016 162.516 85.6875 162.516 85.8125C162.516 85.9375 162.477 86 162.398 86H157.172C157.094 85.9844 157.055 85.9297 157.055 85.8359C157.055 85.6953 157.238 85.6016 157.605 85.5547C158.449 85.4297 158.871 84.9844 158.871 84.2188V69.6055C158.871 69.2773 158.691 69.0508 158.332 68.9258C158.176 68.8711 158.008 68.8281 157.828 68.7969C157.648 68.7578 157.504 68.7227 157.395 68.6914C157.293 68.6602 157.227 68.6328 157.195 68.6094C157.172 68.5781 157.16 68.5195 157.16 68.4336C157.16 68.3398 157.219 68.2617 157.336 68.1992L160.324 66.793C160.418 66.7461 160.477 66.7227 160.5 66.7227C160.633 66.7227 160.699 66.8164 160.699 67.0039V78.6992C160.762 78.9258 160.844 79.0586 160.945 79.0977C161.047 79.1367 161.156 79.1562 161.273 79.1562C161.5 79.1562 161.871 78.9805 162.387 78.6289C162.91 78.2695 163.383 77.8711 163.805 77.4336C164.227 76.9883 164.438 76.6836 164.438 76.5195C164.438 76.3477 164.363 76.2422 164.215 76.2031C164.066 76.1562 163.898 76.125 163.711 76.1094C163.531 76.0859 163.367 76.0547 163.219 76.0156C163.07 75.9688 162.996 75.8633 162.996 75.6992C162.996 75.5352 163.156 75.4531 163.477 75.4531H167.941C168.215 75.4531 168.352 75.543 168.352 75.7227C168.352 75.8164 168.262 75.8906 168.082 75.9453C167.902 76 167.555 76.0859 167.039 76.2031C166.523 76.3125 166.113 76.4883 165.809 76.7305L162.445 79.3555C162.445 79.457 162.52 79.582 162.668 79.7305L167.484 84.8047C167.797 85.125 168.117 85.3359 168.445 85.4375C168.773 85.5312 168.992 85.5938 169.102 85.625C169.211 85.6562 169.266 85.7109 169.266 85.7891C169.266 85.9297 169.203 86 169.078 86H163.934C163.855 86 163.816 85.9531 163.816 85.8594C163.816 85.7188 163.914 85.6289 164.109 85.5898C164.695 85.4805 164.988 85.2812 164.988 84.9922C164.988 84.9062 164.93 84.793 164.812 84.6523C164.695 84.5117 164.586 84.375 164.484 84.2422L160.863 80.4102C160.863 80.4023 160.859 80.3945 160.852 80.3867H160.84ZM174.059 85.3906C174.059 86.8438 173.375 88.0547 172.008 89.0234C171.695 89.25 171.461 89.3633 171.305 89.3633C171.188 89.3633 171.129 89.2578 171.129 89.0469C171.129 88.9219 171.211 88.8008 171.375 88.6836C171.547 88.5742 171.672 88.4844 171.75 88.4141C172.539 87.7031 172.934 87.0586 172.934 86.4805C172.934 86.2539 172.887 86.1172 172.793 86.0703C172.707 86.0234 172.516 86 172.219 86C171.922 86 171.609 85.8867 171.281 85.6602C170.961 85.4336 170.801 85.1016 170.801 84.6641C170.801 84.2266 170.906 83.9141 171.117 83.7266C171.477 83.3984 171.82 83.2344 172.148 83.2344C172.758 83.2344 173.227 83.4766 173.555 83.9609C173.891 84.4375 174.059 84.9141 174.059 85.3906ZM189.984 84.0664C189.984 84.2695 190.078 84.4336 190.266 84.5586C190.461 84.6758 190.684 84.7344 190.934 84.7344C191.184 84.7344 191.391 84.6719 191.555 84.5469C191.727 84.4141 191.844 84.3477 191.906 84.3477C191.969 84.3477 192 84.4336 192 84.6055C192 84.7695 191.922 84.9102 191.766 85.0273C190.594 85.8867 189.801 86.3164 189.387 86.3164C188.887 86.3164 188.48 85.7969 188.168 84.7578C188.145 84.6797 188.125 84.6445 188.109 84.6523C187.141 85.3789 186.531 85.8164 186.281 85.9648C185.641 86.332 184.996 86.3906 184.348 86.1406C183.707 85.8906 183.242 85.4766 182.953 84.8984C182.812 84.6016 182.742 84.2852 182.742 83.9492C182.742 83.2852 182.988 82.7578 183.48 82.3672C183.973 81.9766 184.91 81.6016 186.293 81.2422C186.762 81.1172 187.18 80.957 187.547 80.7617C187.914 80.5664 188.105 80.4414 188.121 80.3867C188.145 80.332 188.156 80.2812 188.156 80.2344V77.9844C188.156 77.1016 187.812 76.4805 187.125 76.1211C186.898 76.0039 186.625 75.9453 186.305 75.9453C185.992 75.9453 185.672 76.0703 185.344 76.3203C185.023 76.5703 184.863 76.9258 184.863 77.3867L184.922 77.8438C184.875 77.9375 184.594 78.0938 184.078 78.3125C183.562 78.5312 183.266 78.6484 183.188 78.6641C183.062 78.6641 183 78.5156 183 78.2188C183 77.9141 183.09 77.5781 183.27 77.2109C183.449 76.8438 183.703 76.5078 184.031 76.2031C184.797 75.4922 185.672 75.1367 186.656 75.1367C187.641 75.1367 188.441 75.4102 189.059 75.957C189.676 76.4961 189.984 77.1406 189.984 77.8906V84.0664ZM184.582 83.7266C184.582 84.1016 184.727 84.4297 185.016 84.7109C185.305 84.9844 185.633 85.1211 186 85.1211C186.375 85.1211 186.828 84.9648 187.359 84.6523C187.891 84.332 188.156 84.0039 188.156 83.668V81.2891C188.156 81.2031 188.137 81.1602 188.098 81.1602C188.059 81.1602 188.031 81.1641 188.016 81.1719L185.297 82.4375C185.016 82.6406 184.824 82.8125 184.723 82.9531C184.629 83.0938 184.582 83.3516 184.582 83.7266ZM201.727 82.3086L201.703 79.8359C201.703 78.8281 201.617 78.1211 201.445 77.7148C201.273 77.3086 201.055 77.0039 200.789 76.8008C200.523 76.5898 200.164 76.4844 199.711 76.4844C199.266 76.4844 198.316 76.8359 196.863 77.5391C196.668 77.6562 196.566 77.7656 196.559 77.8672V84.1719C196.559 84.9609 196.98 85.4141 197.824 85.5312C198.191 85.5859 198.375 85.6758 198.375 85.8008C198.375 85.918 198.336 85.9844 198.258 86H193.031C192.953 85.9844 192.914 85.9297 192.914 85.8359C192.914 85.6875 193.098 85.5859 193.465 85.5312C194.309 85.4141 194.73 84.9609 194.73 84.1719V77.4453C194.73 77.1172 194.551 76.8906 194.191 76.7656C194.035 76.7109 193.867 76.668 193.688 76.6367C193.508 76.5977 193.363 76.5625 193.254 76.5312C193.152 76.5 193.086 76.4727 193.055 76.4492C193.031 76.418 193.02 76.3594 193.02 76.2734C193.02 76.1797 193.078 76.1016 193.195 76.0391L196.184 74.6328C196.277 74.5859 196.336 74.5625 196.359 74.5625C196.492 74.5625 196.559 74.6562 196.559 74.8438V76.6719C196.582 76.75 196.613 76.7891 196.652 76.7891C196.699 76.7891 196.867 76.7188 197.156 76.5781C197.828 76.2422 198.504 75.918 199.184 75.6055C199.863 75.293 200.426 75.1367 200.871 75.1367C202.676 75.1367 203.578 76.7812 203.578 80.0703L203.473 83.4922V84.1719C203.473 84.7812 203.777 85.1797 204.387 85.3672C204.645 85.4531 204.891 85.5156 205.125 85.5547C205.367 85.5859 205.523 85.6172 205.594 85.6484C205.672 85.6797 205.711 85.7422 205.711 85.8359C205.711 85.9297 205.672 85.9844 205.594 86H199.945C199.867 85.9844 199.828 85.9297 199.828 85.8359C199.828 85.6875 200.012 85.5859 200.379 85.5312C201.215 85.4141 201.633 84.9297 201.633 84.0781C201.695 83.6875 201.727 83.0977 201.727 82.3086ZM213.996 75.6289C214.34 75.7461 214.551 75.8047 214.629 75.8047C214.707 75.8047 214.754 75.8047 214.77 75.8047C214.793 75.7969 214.82 75.7461 214.852 75.6523V69.6055C214.852 69.2773 214.672 69.0508 214.312 68.9258C214.156 68.8711 213.988 68.8281 213.809 68.7969C213.629 68.7578 213.484 68.7227 213.375 68.6914C213.273 68.6602 213.207 68.6328 213.176 68.6094C213.152 68.5781 213.141 68.5195 213.141 68.4336C213.141 68.3398 213.199 68.2617 213.316 68.1992L216.305 66.793C216.398 66.7461 216.457 66.7227 216.48 66.7227C216.613 66.7227 216.68 66.8164 216.68 67.0039V83.6914C216.719 84.0352 216.816 84.2812 216.973 84.4297C217.129 84.5781 217.383 84.6523 217.734 84.6523L218.414 84.6055C218.461 84.6055 218.484 84.6523 218.484 84.7461C218.484 84.832 218.426 84.9023 218.309 84.957L215.191 86.2461C215.098 86.293 215.016 86.3164 214.945 86.3164C214.883 86.3164 214.852 86.2188 214.852 86.0234V84.957C214.852 84.8789 214.832 84.8398 214.793 84.8398C214.738 84.8398 214.414 85.0156 213.82 85.3672C212 86.4453 210.465 86.6055 209.215 85.8477C208.215 85.2383 207.539 84.2734 207.188 82.9531C207.023 82.3359 206.941 81.6836 206.941 80.9961C206.941 80.3008 207.082 79.6133 207.363 78.9336C207.652 78.2461 208.047 77.6445 208.547 77.1289C209.648 76.0039 210.977 75.4414 212.531 75.4414C213.164 75.4414 213.652 75.5039 213.996 75.6289ZM208.711 80.6562C208.711 81.8359 209.039 82.8711 209.695 83.7617C210.352 84.6445 211.266 85.0859 212.438 85.0859C212.953 85.0859 213.484 84.9609 214.031 84.7109C214.578 84.4531 214.852 84.2578 214.852 84.125V78.0781C214.852 77.9297 214.75 77.7539 214.547 77.5508C213.922 76.6914 213.09 76.2617 212.051 76.2617C211.02 76.2617 210.203 76.6992 209.602 77.5742C209.008 78.4414 208.711 79.4688 208.711 80.6562ZM9.89062 102.617C9.96875 102.617 10.0078 102.703 10.0078 102.875L10.3125 105.371C10.3438 105.527 10.3594 105.629 10.3594 105.676C10.3594 105.715 10.2969 105.734 10.1719 105.734C10.0547 105.734 9.98047 105.719 9.94922 105.688C9.91797 105.656 9.88672 105.605 9.85547 105.535C9.82422 105.457 9.78516 105.371 9.73828 105.277C9.69922 105.184 9.65625 105.09 9.60938 104.996C9.44531 104.637 9.1875 104.281 8.83594 103.93C7.97656 103.102 7.00781 102.688 5.92969 102.688C5.28125 102.688 4.66797 102.898 4.08984 103.32C3.51172 103.742 3.22266 104.242 3.22266 104.82C3.22266 105.391 3.32812 105.887 3.53906 106.309C3.75781 106.73 4.04297 107.121 4.39453 107.48C4.74609 107.84 5.14844 108.184 5.60156 108.512C6.05469 108.84 6.51562 109.172 6.98438 109.508C8.22656 110.375 9.10938 111.117 9.63281 111.734C10.4531 112.688 10.8984 113.758 10.9688 114.945C10.9688 116.273 10.457 117.336 9.43359 118.133C8.41797 118.922 7.23438 119.316 5.88281 119.316C5.01562 119.316 4.32422 119.227 3.80859 119.047C3.30078 118.875 2.94922 118.75 2.75391 118.672C2.55859 118.594 2.41406 118.555 2.32031 118.555C2.23438 118.555 2.17969 118.559 2.15625 118.566L1.58203 118.684C1.48047 118.684 1.41797 118.602 1.39453 118.438C1.16797 116.5 1.05469 115.473 1.05469 115.355C1.05469 115.23 1.0625 115.148 1.07812 115.109C1.10156 115.062 1.15625 115.039 1.24219 115.039C1.46094 115.039 1.66016 115.352 1.83984 115.977C2.66016 117.734 4.02344 118.613 5.92969 118.613C6.80469 118.613 7.55078 118.348 8.16797 117.816C8.79297 117.285 9.10547 116.594 9.10547 115.742C9.10547 114.383 8.29297 113.117 6.66797 111.945C6.20703 111.617 5.54297 111.16 4.67578 110.574C3.80859 109.988 3.11719 109.402 2.60156 108.816C1.79688 107.91 1.39453 106.902 1.39453 105.793C1.39453 104.676 1.83594 103.762 2.71875 103.051C3.60938 102.34 4.62891 101.984 5.77734 101.984C6.37109 101.984 7.02344 102.086 7.73438 102.289C8.45312 102.492 8.95312 102.629 9.23438 102.699L9.89062 102.617ZM15.6914 109.988C15.6445 109.988 15.6211 110.023 15.6211 110.094V116.562C15.6211 117.031 15.7227 117.398 15.9258 117.664C16.1367 117.93 16.4023 118.062 16.7227 118.062C17.043 118.062 17.3203 118.012 17.5547 117.91C17.7969 117.801 18.0039 117.684 18.1758 117.559C18.3555 117.434 18.5156 117.32 18.6562 117.219C18.7969 117.109 18.9219 117.055 19.0312 117.055C19.1406 117.055 19.1953 117.082 19.1953 117.137C19.1953 117.324 19.1758 117.445 19.1367 117.5C18.1992 118.711 17.293 119.316 16.418 119.316C15.5508 119.316 14.8945 119.043 14.4492 118.496C14.0117 117.941 13.793 117.281 13.793 116.516V109.988H12.9141C12.6953 109.988 12.5781 109.918 12.5625 109.777C12.5547 109.637 12.5781 109.547 12.6328 109.508C13.0469 109.242 13.6172 108.766 14.3438 108.078C14.4219 107.992 14.5273 107.863 14.6602 107.691C14.793 107.52 14.9844 107.285 15.2344 106.988C15.4922 106.691 15.6875 106.543 15.8203 106.543C15.9531 106.543 16.0195 106.598 16.0195 106.707C16.0195 106.723 15.8867 107.234 15.6211 108.242C15.6211 108.383 15.6836 108.457 15.8086 108.465H18.7969C19.1406 108.465 19.3125 108.949 19.3125 109.918C19.3125 109.965 19.2812 109.988 19.2188 109.988H15.6914ZM20.4961 113.738C20.4961 112.199 21.0391 110.879 22.125 109.777C23.2188 108.668 24.5273 108.113 26.0508 108.113C27.5742 108.113 28.8984 108.652 30.0234 109.73C31.1484 110.801 31.7109 112.125 31.7109 113.703C31.7109 115.281 31.1758 116.613 30.1055 117.699C29.043 118.777 27.707 119.316 26.0977 119.316C24.4883 119.316 23.1523 118.77 22.0898 117.676C21.0273 116.582 20.4961 115.27 20.4961 113.738ZM23.4141 116.75C24.1797 118.039 25.2227 118.684 26.543 118.684C27.5664 118.684 28.3477 118.273 28.8867 117.453C29.4336 116.633 29.707 115.625 29.707 114.43C29.707 113.234 29.3242 112.008 28.5586 110.75C27.8008 109.492 26.7773 108.863 25.4883 108.863C24.543 108.863 23.7969 109.273 23.25 110.094C22.7109 110.906 22.4414 111.941 22.4414 113.199C22.4414 114.449 22.7656 115.633 23.4141 116.75ZM40.5469 110.598C40.4531 110.582 40.3164 110.531 40.1367 110.445C39.4883 110.148 38.9805 110 38.6133 110C38.2461 110 37.8594 110.23 37.4531 110.691C37.0547 111.145 36.8555 111.555 36.8555 111.922V117.219C36.8555 117.805 37.1953 118.195 37.875 118.391C38.1719 118.469 38.4492 118.527 38.707 118.566C38.9648 118.598 39.1289 118.629 39.1992 118.66C39.2773 118.691 39.3164 118.754 39.3164 118.848C39.3164 118.934 39.2773 118.984 39.1992 119H33.3281C33.25 118.984 33.2109 118.93 33.2109 118.836C33.2109 118.695 33.3945 118.602 33.7617 118.555C34.6055 118.43 35.0273 117.984 35.0273 117.219V111.02C35.0273 110.691 34.8477 110.465 34.4883 110.34C34.332 110.285 34.1641 110.242 33.9844 110.211C33.8047 110.172 33.6602 110.137 33.5508 110.105C33.4492 110.074 33.3828 110.047 33.3516 110.023C33.3281 109.992 33.3164 109.934 33.3164 109.848C33.3164 109.754 33.375 109.676 33.4922 109.613L36.4805 108.207C36.5742 108.16 36.6328 108.137 36.6562 108.137C36.7891 108.137 36.8555 108.23 36.8555 108.418V110.316C36.8555 110.41 36.8789 110.457 36.9258 110.457C36.9883 110.457 37.1484 110.273 37.4062 109.906C38.1484 108.867 38.7617 108.348 39.2461 108.348C39.5195 108.348 39.9375 108.457 40.5 108.676C41.0703 108.895 41.3555 109.078 41.3555 109.227C41.3555 109.406 41.2656 109.68 41.0859 110.047C40.9062 110.414 40.7266 110.598 40.5469 110.598ZM57.6328 115.309L57.6094 112.836C57.6094 111.828 57.5234 111.121 57.3516 110.715C57.1797 110.309 56.9609 110.004 56.6953 109.801C56.4297 109.59 56.0703 109.484 55.6172 109.484C55.1719 109.484 54.2227 109.836 52.7695 110.539C52.5742 110.656 52.4727 110.766 52.4648 110.867V117.172C52.4648 117.961 52.8867 118.414 53.7305 118.531C54.0977 118.586 54.2812 118.676 54.2812 118.801C54.2812 118.918 54.2422 118.984 54.1641 119H48.9375C48.8594 118.984 48.8203 118.93 48.8203 118.836C48.8203 118.688 49.0039 118.586 49.3711 118.531C50.2148 118.414 50.6367 117.961 50.6367 117.172V111.336C50.6367 110.109 49.8789 109.496 48.3633 109.496C47.8086 109.496 47.0391 109.824 46.0547 110.48C45.8047 110.645 45.6211 110.797 45.5039 110.938V117.172C45.5039 117.961 45.9258 118.414 46.7695 118.531C47.1367 118.586 47.3203 118.676 47.3203 118.801C47.3203 118.918 47.2812 118.984 47.2031 119H41.9766C41.8984 118.984 41.8594 118.93 41.8594 118.836C41.8594 118.688 42.043 118.586 42.4102 118.531C43.2539 118.414 43.6758 117.969 43.6758 117.195V110.445C43.6758 110.117 43.4961 109.891 43.1367 109.766C42.9805 109.711 42.8125 109.668 42.6328 109.637C42.4531 109.598 42.3086 109.562 42.1992 109.531C42.0977 109.5 42.0312 109.473 42 109.449C41.9766 109.418 41.9648 109.359 41.9648 109.273C41.9648 109.18 42.0234 109.102 42.1406 109.039L45.1289 107.633C45.2227 107.586 45.2812 107.562 45.3047 107.562C45.4375 107.562 45.5039 107.656 45.5039 107.844V109.789C45.5117 109.836 45.5391 109.859 45.5859 109.859C45.6406 109.859 45.7695 109.805 45.9727 109.695C46.1836 109.586 46.457 109.434 46.793 109.238C47.1289 109.035 47.5703 108.801 48.1172 108.535C48.6719 108.27 49.2578 108.137 49.875 108.137C50.8672 108.137 51.5781 108.562 52.0078 109.414C52.1719 109.758 52.3203 109.906 52.4531 109.859C52.5859 109.805 52.793 109.707 53.0742 109.566C53.7383 109.238 54.4102 108.918 55.0898 108.605C55.7695 108.293 56.332 108.137 56.7773 108.137C58.582 108.137 59.4844 109.781 59.4844 113.07L59.3789 116.492V117.172C59.3789 117.781 59.6836 118.18 60.293 118.367C60.5508 118.453 60.7969 118.516 61.0312 118.555C61.2734 118.586 61.4297 118.617 61.5 118.648C61.5781 118.68 61.6172 118.742 61.6172 118.836C61.6172 118.93 61.5781 118.984 61.5 119H55.8516C55.7734 118.984 55.7344 118.93 55.7344 118.836C55.7344 118.688 55.918 118.586 56.2852 118.531C57.1211 118.414 57.5391 117.93 57.5391 117.078C57.6016 116.688 57.6328 116.098 57.6328 115.309ZM63.1875 117.828C63.1875 117.406 63.3359 117.043 63.6328 116.738C63.9297 116.426 64.2891 116.27 64.7109 116.27C65.125 116.27 65.4805 116.422 65.7773 116.727C66.082 117.023 66.2344 117.387 66.2344 117.816C66.2344 118.246 66.0859 118.605 65.7891 118.895C65.4922 119.176 65.1328 119.316 64.7109 119.316C64.2969 119.316 63.9375 119.172 63.6328 118.883C63.3359 118.594 63.1875 118.242 63.1875 117.828Z" fill="#1B3764"/>
</svg>
