<svg width="168" height="40" viewBox="0 0 168 40" fill="none" xmlns="http://www.w3.org/2000/svg">
<path d="M12 19C12.5523 19 13 19.4477 13 20C13 20.5523 12.5523 21 12 21C11.4477 21 11 20.5523 11 20C11 19.4477 11.4477 19 12 19Z" stroke="#FFCA42" stroke-width="1.5"/>
<path d="M19 19C19.5523 19 20 19.4477 20 20C20 20.5523 19.5523 21 19 21C18.4477 21 18 20.5523 18 20C18 19.4477 18.4477 19 19 19Z" stroke="#FFCA42" stroke-width="1.5"/>
<path d="M26 19C26.5523 19 27 19.4477 27 20C27 20.5523 26.5523 21 26 21C25.4477 21 25 20.5523 25 20C25 19.4477 25.4477 19 26 19Z" stroke="#FFCA42" stroke-width="1.5"/>
</svg>
