<svg width="228" height="94" viewBox="0 0 228 94" fill="none" xmlns="http://www.w3.org/2000/svg">
<path d="M6.72656 1.94531C5.41406 1.94531 4.75781 2.46875 4.75781 3.51562V11.9062C4.75781 13.4531 5.26953 14.7188 6.29297 15.7031C7.31641 16.6797 8.62891 17.168 10.2305 17.168C11.8945 17.168 13.2578 16.7227 14.3203 15.832C15.3906 14.9336 15.9258 13.6914 15.9258 12.1055V4.65234C15.9258 3.91016 15.8594 3.39453 15.7266 3.10547C15.3906 2.33203 14.6328 1.94531 13.4531 1.94531C13.3906 1.94531 13.3594 1.91406 13.3594 1.85156V1.57031C13.3594 1.50781 13.3906 1.47656 13.4531 1.47656H19.2188C19.2812 1.47656 19.3125 1.50781 19.3125 1.57031V1.85156C19.3125 1.91406 19.2266 1.94531 19.0547 1.94531C18.0312 1.94531 17.4062 2.34375 17.1797 3.14062C17.1406 3.27344 17.1211 3.39844 17.1211 3.51562V11.1914C17.1211 14.6211 15.8086 16.8281 13.1836 17.8125C12.3008 18.1484 11.4219 18.3164 10.5469 18.3164C7.41406 18.3164 5.10547 17.4961 3.62109 15.8555C2.85547 15.0117 2.47266 13.9688 2.47266 12.7266V3.35156C2.47266 2.6875 2.07031 2.25 1.26562 2.03906C1.03125 1.97656 0.832031 1.94531 0.667969 1.94531C0.503906 1.94531 0.421875 1.91406 0.421875 1.85156V1.57031C0.421875 1.50781 0.449219 1.47656 0.503906 1.47656H6.85547C6.91797 1.47656 6.94922 1.50781 6.94922 1.57031V1.85156C6.94922 1.91406 6.875 1.94531 6.72656 1.94531ZM26.0977 9.98438C26.0977 10.1562 26.0312 10.2422 25.8984 10.2422C25.7734 10.2422 25.6758 10.1484 25.6055 9.96094C25.418 9.44531 25.1367 8.98828 24.7617 8.58984C24.3945 8.19141 23.9375 7.99219 23.3906 7.99219C22.6719 7.99219 22.1875 8.35156 21.9375 9.07031C21.8594 9.3125 21.8203 9.5625 21.8203 9.82031C21.8203 10.0781 21.9844 10.3672 22.3125 10.6875C22.6406 11 23.1797 11.375 23.9297 11.8125C24.6797 12.25 25.2266 12.6211 25.5703 12.9258C26.3516 13.6211 26.7422 14.4258 26.7422 15.3398C26.7422 16.2539 26.4062 16.9805 25.7344 17.5195C25.0625 18.0508 24.2812 18.3164 23.3906 18.3164C22.9141 18.3164 22.4805 18.25 22.0898 18.1172C21.707 17.9922 21.4844 17.9297 21.4219 17.9297C21.3672 17.9297 21.2734 17.9922 21.1406 18.1172C21.0156 18.25 20.9141 18.3164 20.8359 18.3164H20.6367C20.5898 18.3164 20.5312 17.8945 20.4609 17.0508C20.3906 16.207 20.3555 15.707 20.3555 15.5508C20.3555 15.3945 20.3672 15.3086 20.3906 15.293C20.4219 15.2773 20.4688 15.2695 20.5312 15.2695C20.5938 15.2695 20.6445 15.2891 20.6836 15.3281C20.7305 15.3672 20.7695 15.418 20.8008 15.4805C20.832 15.5352 20.8555 15.5938 20.8711 15.6562C20.8945 15.7188 20.9453 15.8359 21.0234 16.0078C21.5547 17.1406 22.375 17.707 23.4844 17.707C23.9766 17.707 24.3711 17.5273 24.668 17.168C24.9648 16.8008 25.1133 16.3945 25.1133 15.9492C25.1133 15.5039 24.9961 15.1289 24.7617 14.8242C24.5273 14.5195 24.2344 14.2422 23.8828 13.9922C23.5391 13.7422 23.1641 13.5 22.7578 13.2656C21.1797 12.3438 20.3906 11.3242 20.3906 10.207C20.3906 9.37109 20.75 8.65234 21.4688 8.05078C22.1875 7.44141 22.9258 7.13672 23.6836 7.13672C24.4414 7.13672 25 7.21875 25.3594 7.38281C25.7266 7.54688 25.9414 7.6875 26.0039 7.80469C26.0664 7.91406 26.0977 8.28125 26.0977 8.90625V9.98438ZM30.3398 11.8242C30.207 11.8242 30.1406 12.1094 30.1406 12.6797C30.1406 13.8906 30.5 14.9062 31.2188 15.7266C31.9375 16.5469 32.8281 16.957 33.8906 16.957C34.9609 16.957 35.9883 16.4961 36.9727 15.5742C36.9883 15.5586 37.0078 15.5508 37.0312 15.5508H37.0898C37.1367 15.5508 37.1797 15.5898 37.2188 15.668C37.2656 15.7383 37.3086 15.7852 37.3477 15.8086C36.4414 16.9102 35.375 17.6719 34.1484 18.0938C33.7266 18.2422 33.25 18.3164 32.7188 18.3164C32.1875 18.3164 31.6484 18.1719 31.1016 17.8828C30.5547 17.5859 30.0859 17.1992 29.6953 16.7227C28.8672 15.7305 28.4531 14.4961 28.4531 13.0195C28.4531 11.5352 28.9023 10.1836 29.8008 8.96484C30.707 7.74609 31.9492 7.13672 33.5273 7.13672C34.6602 7.13672 35.5859 7.64453 36.3047 8.66016C37.0234 9.66797 37.3828 10.5547 37.3828 11.3203C37.3828 11.6562 37.3008 11.8242 37.1367 11.8242H30.3398ZM30.4688 10.6992C30.4688 10.8477 30.5391 10.9219 30.6797 10.9219H35.0977C35.3008 10.9219 35.4023 10.8008 35.4023 10.5586C35.4023 9.99609 35.1484 9.42188 34.6406 8.83594C34.1406 8.24219 33.5898 7.94531 32.9883 7.94531C32.4023 7.94531 31.8672 8.21094 31.3828 8.74219C30.9062 9.27344 30.6016 9.87891 30.4688 10.5586V10.6992ZM62.0508 15.8789C62.0508 16.9336 62.7812 17.4844 64.2422 17.5312C64.3047 17.5312 64.3359 17.5625 64.3359 17.625V17.9062C64.3359 17.9688 64.3047 18 64.2422 18H56.7891C56.7266 18 56.6953 17.9688 56.6953 17.9062V17.625C56.6953 17.5625 56.8906 17.5312 57.2812 17.5312C57.6719 17.5312 58.1172 17.4453 58.6172 17.2734C59.3828 17.0234 59.7656 16.6016 59.7656 16.0078V10.418C59.7656 10.3398 59.7539 10.2891 59.7305 10.2656C59.707 10.2422 59.6562 10.2305 59.5781 10.2305H50.3438C50.2656 10.2305 50.2148 10.2422 50.1914 10.2656C50.168 10.2891 50.1562 10.3398 50.1562 10.418V16.125C50.1562 17.0625 50.8477 17.5312 52.2305 17.5312C52.293 17.5312 52.3242 17.5625 52.3242 17.625V17.9062C52.3242 17.9688 52.2969 18 52.2422 18H45.7734C45.7109 18 45.6797 17.9688 45.6797 17.9062V17.625C45.6797 17.5625 45.7578 17.5312 45.9141 17.5312C47.2188 17.5312 47.8711 16.9727 47.8711 15.8555V3.35156C47.8711 2.4375 47.3281 1.95313 46.2422 1.89844C46.0781 1.89062 45.9961 1.85547 45.9961 1.79297V1.57031C45.9961 1.50781 46.0234 1.47656 46.0781 1.47656H51.9609C52.0234 1.47656 52.0547 1.50781 52.0547 1.57031V1.79297C52.0547 1.83984 51.9805 1.86328 51.832 1.86328C50.7148 1.86328 50.1562 2.41406 50.1562 3.51562V8.92969C50.1562 9.00781 50.168 9.05859 50.1914 9.08203C50.2148 9.10547 50.2656 9.11719 50.3438 9.11719H59.5781C59.6562 9.11719 59.707 9.10547 59.7305 9.08203C59.7539 9.05859 59.7656 9.00781 59.7656 8.92969V3.32812C59.75 3.25781 59.7383 3.19531 59.7305 3.14062C59.7305 3.07812 59.7188 2.98438 59.6953 2.85938C59.6406 2.59375 59.3633 2.37891 58.8633 2.21484C58.3633 2.04297 57.7969 1.93359 57.1641 1.88672C57.1016 1.88672 57.0703 1.85547 57.0703 1.79297V1.57031C57.0703 1.50781 57.0977 1.47656 57.1523 1.47656H63.9141C63.9766 1.47656 64.0078 1.50781 64.0078 1.57031V1.79297C64.0078 1.83984 63.9336 1.86328 63.7852 1.86328C62.6289 1.86328 62.0508 2.41406 62.0508 3.51562V15.8789ZM65.5664 1.53516C65.5664 1.47266 65.5977 1.44141 65.6602 1.44141H65.918L69.6797 1.35938C70.1328 1.34375 70.625 1.33594 71.1562 1.33594H72.6211C73.9805 1.33594 75 1.38672 75.6797 1.48828C76.3672 1.58984 77.0391 1.71094 77.6953 1.85156C78.3594 1.98437 79.0625 2.29297 79.8047 2.77734C80.5547 3.26172 81.2031 3.84766 81.75 4.53516C82.9062 6.00391 83.4844 7.58984 83.4844 9.29297C83.4844 10.9961 83.0391 12.5234 82.1484 13.875C80.8672 15.8359 79.0117 17.1172 76.582 17.7188C75.8086 17.9062 75.0156 18 74.2031 18H65.6602C65.5977 18 65.5664 17.9688 65.5664 17.9062V17.5781C65.5664 17.5156 65.5977 17.4844 65.6602 17.4844H65.918C67.3398 17.4844 68.0508 17.0312 68.0508 16.125V3.28125C68.0508 2.84375 67.8828 2.51562 67.5469 2.29688C67.2109 2.07031 66.832 1.95703 66.4102 1.95703H65.6602C65.5977 1.95703 65.5664 1.92578 65.5664 1.86328V1.53516ZM70.6289 1.88672C70.4336 1.88672 70.3359 1.99219 70.3359 2.20312V16.5352C70.3359 17.1133 70.8789 17.4141 71.9648 17.4375C72.2852 17.4453 72.6211 17.4492 72.9727 17.4492C75.4648 17.4492 77.4219 16.75 78.8438 15.3516C80.2734 13.9531 80.9883 12.0938 80.9883 9.77344C80.9883 7.44531 80.3281 5.55078 79.0078 4.08984C77.6953 2.62109 75.9648 1.88672 73.8164 1.88672H70.6289ZM94.5938 8.51953C95.6406 8.51953 96.1641 8.00781 96.1641 6.98438C96.1641 6.92188 96.1953 6.89062 96.2578 6.89062H96.5391C96.6016 6.89062 96.6328 6.92188 96.6328 6.98438V11.3438C96.6328 11.4062 96.6016 11.4375 96.5391 11.4375H96.2578C96.1953 11.4375 96.1641 11.4062 96.1641 11.3438C96.1641 10.625 95.9609 10.1289 95.5547 9.85547C95.3359 9.70703 95.0234 9.63281 94.6172 9.63281H90C89.8125 9.63281 89.7188 9.73828 89.7188 9.94922V15.9727C89.7188 16.5039 90.0352 16.8984 90.668 17.1562C91.3086 17.4062 91.7109 17.5312 91.875 17.5312C92.0469 17.5312 92.1328 17.5625 92.1328 17.625V17.9062C92.1328 17.9688 92.1016 18 92.0391 18H85.6406C85.5781 18 85.5469 17.9688 85.5469 17.9062V17.625C85.5469 17.5625 85.6133 17.5312 85.7461 17.5312C85.8789 17.5312 86.0859 17.4688 86.3672 17.3438C86.6484 17.2188 86.8945 17.0352 87.1055 16.793C87.3242 16.543 87.4336 16.2422 87.4336 15.8906V3.23438C87.4336 2.72656 87.1641 2.36328 86.625 2.14453C86.3125 2.01172 86.0039 1.94531 85.6992 1.94531H85.6523C85.5898 1.94531 85.5586 1.91406 85.5586 1.85156V1.57031C85.5586 1.50781 85.5898 1.47656 85.6523 1.47656H96.7031C96.7969 1.49219 96.8672 1.51562 96.9141 1.54688C96.9609 1.57031 96.9844 1.63672 96.9844 1.74609V4.58203C96.9844 4.67578 96.9688 4.73438 96.9375 4.75781C96.9141 4.78125 96.8672 4.79297 96.7969 4.79297H96.6562C96.6406 4.78516 96.5859 4.57422 96.4922 4.16016C96.4062 3.73828 96.2695 3.41406 96.082 3.1875C95.7617 2.84375 95.3984 2.65234 94.9922 2.61328C94.8281 2.59766 94.6289 2.58984 94.3945 2.58984H89.9531C89.7969 2.58984 89.7188 2.66797 89.7188 2.82422V8.25C89.7188 8.42969 89.8125 8.51953 90 8.51953H94.5938ZM108.117 1.61719C108.195 1.61719 108.234 1.70312 108.234 1.875L108.539 4.37109C108.57 4.52734 108.586 4.62891 108.586 4.67578C108.586 4.71484 108.523 4.73438 108.398 4.73438C108.281 4.73438 108.207 4.71875 108.176 4.6875C108.145 4.65625 108.113 4.60547 108.082 4.53516C108.051 4.45703 108.012 4.37109 107.965 4.27734C107.926 4.18359 107.883 4.08984 107.836 3.99609C107.672 3.63672 107.414 3.28125 107.062 2.92969C106.203 2.10156 105.234 1.6875 104.156 1.6875C103.508 1.6875 102.895 1.89844 102.316 2.32031C101.738 2.74219 101.449 3.24219 101.449 3.82031C101.449 4.39062 101.555 4.88672 101.766 5.30859C101.984 5.73047 102.27 6.12109 102.621 6.48047C102.973 6.83984 103.375 7.18359 103.828 7.51172C104.281 7.83984 104.742 8.17188 105.211 8.50781C106.453 9.375 107.336 10.1172 107.859 10.7344C108.68 11.6875 109.125 12.7578 109.195 13.9453C109.195 15.2734 108.684 16.3359 107.66 17.1328C106.645 17.9219 105.461 18.3164 104.109 18.3164C103.242 18.3164 102.551 18.2266 102.035 18.0469C101.527 17.875 101.176 17.75 100.98 17.6719C100.785 17.5938 100.641 17.5547 100.547 17.5547C100.461 17.5547 100.406 17.5586 100.383 17.5664L99.8086 17.6836C99.707 17.6836 99.6445 17.6016 99.6211 17.4375C99.3945 15.5 99.2812 14.4727 99.2812 14.3555C99.2812 14.2305 99.2891 14.1484 99.3047 14.1094C99.3281 14.0625 99.3828 14.0391 99.4688 14.0391C99.6875 14.0391 99.8867 14.3516 100.066 14.9766C100.887 16.7344 102.25 17.6133 104.156 17.6133C105.031 17.6133 105.777 17.3477 106.395 16.8164C107.02 16.2852 107.332 15.5938 107.332 14.7422C107.332 13.3828 106.52 12.1172 104.895 10.9453C104.434 10.6172 103.77 10.1602 102.902 9.57422C102.035 8.98828 101.344 8.40234 100.828 7.81641C100.023 6.91016 99.6211 5.90234 99.6211 4.79297C99.6211 3.67578 100.062 2.76172 100.945 2.05078C101.836 1.33984 102.855 0.984375 104.004 0.984375C104.598 0.984375 105.25 1.08594 105.961 1.28906C106.68 1.49219 107.18 1.62891 107.461 1.69922L108.117 1.61719ZM133.066 16.875C133.129 16.875 133.16 16.9492 133.16 17.0977C133.16 17.2383 133.137 17.3164 133.09 17.332C132.027 18.0195 131.113 18.3633 130.348 18.3633C129.59 18.3633 128.938 18.0078 128.391 17.2969C128.125 16.9688 127.867 16.6055 127.617 16.207C127.367 15.8086 127.156 15.5039 126.984 15.293C124.789 17.3086 122.84 18.3164 121.137 18.3164C120.004 18.3164 119.023 17.8516 118.195 16.9219C117.375 15.9844 116.965 14.9297 116.965 13.7578C116.965 12.1172 117.859 10.793 119.648 9.78516C120.188 9.48047 120.77 9.20312 121.395 8.95312C120.504 8.08594 119.953 7.28125 119.742 6.53906C119.664 6.24219 119.625 5.88281 119.625 5.46094C119.625 4.61719 119.977 3.9375 120.68 3.42188C121.383 2.89844 122.18 2.63672 123.07 2.63672C123.961 2.63672 124.734 2.89844 125.391 3.42188C126.055 3.9375 126.387 4.62109 126.387 5.47266C126.387 6.48047 125.648 7.43359 124.172 8.33203C124 8.43359 123.906 8.49219 123.891 8.50781C123.875 8.52344 123.867 8.55859 123.867 8.61328C123.867 8.66016 123.91 8.72656 123.996 8.8125C124.09 8.89062 124.191 8.98047 124.301 9.08203C124.418 9.18359 124.586 9.33594 124.805 9.53906C125.031 9.74219 125.254 9.93359 125.473 10.1133C125.691 10.293 126.137 10.8086 126.809 11.6602C127.48 12.5117 127.836 12.9375 127.875 12.9375C127.961 12.9375 128.02 12.9062 128.051 12.8438L130.734 8.78906C130.93 8.49219 131.027 8.23828 131.027 8.02734C131.027 7.81641 130.961 7.67188 130.828 7.59375C130.695 7.50781 130.547 7.44922 130.383 7.41797C130.227 7.37891 130.082 7.34375 129.949 7.3125C129.816 7.27344 129.75 7.1875 129.75 7.05469C129.75 6.91406 129.789 6.84375 129.867 6.84375H134.168C134.199 6.89844 134.215 6.98438 134.215 7.10156C134.215 7.21094 134.195 7.28125 134.156 7.3125C134.109 7.34375 133.852 7.38281 133.383 7.42969C132.617 7.5 132.086 7.76953 131.789 8.23828L128.332 13.7109L129.797 16.2305C130.234 16.9961 130.77 17.3789 131.402 17.3789C131.738 17.3789 132.07 17.3047 132.398 17.1562C132.727 17.0078 132.949 16.9141 133.066 16.875ZM122.133 16.9219C122.914 16.9219 123.645 16.7383 124.324 16.3711C125.004 15.9961 125.684 15.5234 126.363 14.9531C126.496 14.8281 126.559 14.7305 126.551 14.6602C126.551 14.5898 126.551 14.5469 126.551 14.5312C126.543 14.5156 126.539 14.4961 126.539 14.4727C125.484 12.6602 124.188 11.1367 122.648 9.90234C122.562 9.83203 122.461 9.74609 122.344 9.64453C122.227 9.54297 122.113 9.49219 122.004 9.49219C121.863 9.49219 121.637 9.58594 121.324 9.77344C120.66 10.1641 120.117 10.7148 119.695 11.4258C119.281 12.1367 119.074 12.7891 119.074 13.3828C119.074 14.4141 119.391 15.2617 120.023 15.9258C120.656 16.5898 121.359 16.9219 122.133 16.9219ZM124.828 5.51953C124.828 4.06641 124.215 3.33984 122.988 3.33984C122.199 3.33984 121.688 3.69531 121.453 4.40625C121.383 4.625 121.348 4.94531 121.348 5.36719C121.348 5.78125 121.508 6.25 121.828 6.77344C122.148 7.29688 122.582 7.72656 123.129 8.0625C123.613 7.97656 124.016 7.66016 124.336 7.11328C124.664 6.56641 124.828 6.03516 124.828 5.51953ZM146.848 17.5312C146.895 17.5312 146.918 17.5625 146.918 17.625V17.9062C146.918 17.9688 146.895 18 146.848 18H141.375C141.312 18 141.281 17.9688 141.281 17.9062V17.625C141.281 17.5625 141.312 17.5312 141.375 17.5312C142.656 17.5312 143.352 16.9805 143.461 15.8789C143.492 15.5586 143.523 15.0273 143.555 14.2852C143.594 13.5352 143.699 11.9297 143.871 9.46875C144.043 7 144.129 5.00391 144.129 3.48047V3.04688C144.129 2.73438 143.949 2.47266 143.59 2.26172C143.238 2.05078 142.98 1.94531 142.816 1.94531C142.652 1.94531 142.57 1.91406 142.57 1.85156V1.57031C142.57 1.50781 142.602 1.47656 142.664 1.47656H146.051C146.199 1.5 146.32 1.58594 146.414 1.73438L151.91 13.9805C151.949 14.0352 151.98 14.082 152.004 14.1211C152.027 14.1602 152.086 14.1797 152.18 14.1797C152.273 14.1719 152.344 14.1016 152.391 13.9688L157.828 1.94531C157.992 1.63281 158.141 1.47656 158.273 1.47656H161.684C161.746 1.47656 161.777 1.50781 161.777 1.57031V1.85156C161.777 1.91406 161.758 1.94531 161.719 1.94531C161.484 1.94531 161.195 2.02344 160.852 2.17969C160.328 2.41406 160.066 2.76172 160.066 3.22266L160.77 16.1719C160.785 16.5781 160.996 16.9062 161.402 17.1562C161.809 17.4062 162.34 17.5312 162.996 17.5312C163.059 17.5312 163.09 17.5625 163.09 17.625V17.9062C163.09 17.9688 163.059 18 162.996 18H156.34C156.277 18 156.246 17.9688 156.246 17.9062V17.625C156.246 17.5625 156.277 17.5312 156.34 17.5312C157.738 17.5312 158.438 17.1914 158.438 16.5117L157.816 5.32031C157.809 5.24219 157.785 5.20312 157.746 5.20312C157.715 5.20312 157.688 5.23828 157.664 5.30859L151.84 17.918C151.809 17.9727 151.719 18 151.57 18C151.422 18 151.336 17.9688 151.312 17.9062L145.57 5.27344C145.523 5.16406 145.477 5.10938 145.43 5.10938C145.391 5.10938 145.371 5.19531 145.371 5.36719C145.371 5.72656 145.277 7.42188 145.09 10.4531C144.902 13.4844 144.809 15.375 144.809 16.125V16.6055C144.902 17.0508 145.344 17.3398 146.133 17.4727C146.359 17.5117 146.598 17.5312 146.848 17.5312ZM171.656 16.0664C171.656 16.2695 171.75 16.4336 171.938 16.5586C172.133 16.6758 172.355 16.7344 172.605 16.7344C172.855 16.7344 173.062 16.6719 173.227 16.5469C173.398 16.4141 173.516 16.3477 173.578 16.3477C173.641 16.3477 173.672 16.4336 173.672 16.6055C173.672 16.7695 173.594 16.9102 173.438 17.0273C172.266 17.8867 171.473 18.3164 171.059 18.3164C170.559 18.3164 170.152 17.7969 169.84 16.7578C169.816 16.6797 169.797 16.6445 169.781 16.6523C168.812 17.3789 168.203 17.8164 167.953 17.9648C167.312 18.332 166.668 18.3906 166.02 18.1406C165.379 17.8906 164.914 17.4766 164.625 16.8984C164.484 16.6016 164.414 16.2852 164.414 15.9492C164.414 15.2852 164.66 14.7578 165.152 14.3672C165.645 13.9766 166.582 13.6016 167.965 13.2422C168.434 13.1172 168.852 12.957 169.219 12.7617C169.586 12.5664 169.777 12.4414 169.793 12.3867C169.816 12.332 169.828 12.2812 169.828 12.2344V9.98438C169.828 9.10156 169.484 8.48047 168.797 8.12109C168.57 8.00391 168.297 7.94531 167.977 7.94531C167.664 7.94531 167.344 8.07031 167.016 8.32031C166.695 8.57031 166.535 8.92578 166.535 9.38672L166.594 9.84375C166.547 9.9375 166.266 10.0938 165.75 10.3125C165.234 10.5312 164.938 10.6484 164.859 10.6641C164.734 10.6641 164.672 10.5156 164.672 10.2188C164.672 9.91406 164.762 9.57812 164.941 9.21094C165.121 8.84375 165.375 8.50781 165.703 8.20312C166.469 7.49219 167.344 7.13672 168.328 7.13672C169.312 7.13672 170.113 7.41016 170.73 7.95703C171.348 8.49609 171.656 9.14062 171.656 9.89062V16.0664ZM166.254 15.7266C166.254 16.1016 166.398 16.4297 166.688 16.7109C166.977 16.9844 167.305 17.1211 167.672 17.1211C168.047 17.1211 168.5 16.9648 169.031 16.6523C169.562 16.332 169.828 16.0039 169.828 15.668V13.2891C169.828 13.2031 169.809 13.1602 169.77 13.1602C169.73 13.1602 169.703 13.1641 169.688 13.1719L166.969 14.4375C166.688 14.6406 166.496 14.8125 166.395 14.9531C166.301 15.0938 166.254 15.3516 166.254 15.7266ZM183.621 16.7695C182.543 17.8008 181.332 18.3164 179.988 18.3164C179.504 18.3164 178.844 18.2266 178.008 18.0469C177.875 18.0469 177.801 18.0938 177.785 18.1875C177.777 18.2812 177.77 18.3789 177.762 18.4805V23.4844C177.762 24.0703 178.102 24.4609 178.781 24.6562C179.078 24.7344 179.355 24.7891 179.613 24.8203C179.871 24.8594 180.035 24.8945 180.105 24.9258C180.184 24.957 180.223 25.0156 180.223 25.1016C180.223 25.1953 180.184 25.25 180.105 25.2656H174.234C174.156 25.25 174.117 25.1953 174.117 25.1016C174.117 24.9609 174.301 24.8672 174.668 24.8203C175.512 24.6953 175.934 24.25 175.934 23.4844V9.43359C175.934 9.10547 175.754 8.87891 175.395 8.75391C175.238 8.69922 175.07 8.65625 174.891 8.625C174.711 8.58594 174.566 8.55078 174.457 8.51953C174.355 8.48828 174.289 8.46094 174.258 8.4375C174.234 8.40625 174.223 8.34766 174.223 8.26172C174.223 8.16797 174.281 8.08984 174.398 8.02734L177.387 6.59766C177.449 6.56641 177.512 6.55078 177.574 6.55078C177.699 6.55078 177.762 6.64453 177.762 6.83203V8.32031C177.762 8.40625 177.805 8.44922 177.891 8.44922C177.984 8.44922 178.203 8.33594 178.547 8.10938C179.539 7.46875 180.57 7.14844 181.641 7.14844C182.391 7.14844 183.078 7.45312 183.703 8.0625C184.523 8.85938 185.07 9.96875 185.344 11.3906C185.422 11.7969 185.461 12.2305 185.461 12.6914C185.461 13.1445 185.387 13.625 185.238 14.1328C184.941 15.1406 184.402 16.0195 183.621 16.7695ZM180.27 8.36719C179.207 8.36719 178.371 8.67188 177.762 9.28125V15.8672C177.762 16.2578 177.828 16.5117 177.961 16.6289C178.305 16.9258 178.832 17.1562 179.543 17.3203C180.949 17.6406 182.043 17.3047 182.824 16.3125C183.379 15.6016 183.656 14.7422 183.656 13.7344C183.656 11.7734 183.215 10.3047 182.332 9.32812C181.801 8.73438 181.113 8.41406 180.27 8.36719ZM0.609375 52C0.546875 52 0.515625 51.9219 0.515625 51.7656V51.625C0.515625 51.5625 0.546875 51.5312 0.609375 51.5312C0.65625 51.5312 0.730469 51.5234 0.832031 51.5078C0.933594 51.4922 1.03906 51.4766 1.14844 51.4609C1.25781 51.4453 1.35938 51.4297 1.45312 51.4141C1.54688 51.3906 1.61328 51.375 1.65234 51.3672C2.44922 51.1875 2.84766 50.7344 2.84766 50.0078V37.6328C2.84766 36.9609 2.57812 36.4844 2.03906 36.2031C1.71875 36.0312 1.375 35.9453 1.00781 35.9453H0.5625C0.5 35.9453 0.46875 35.9141 0.46875 35.8516V35.5703C0.46875 35.5078 0.515625 35.4766 0.609375 35.4766L7.04297 35.3008H8.22656C9.60938 35.3945 10.7656 35.8984 11.6953 36.8125C12.6328 37.7188 13.1016 38.8398 13.1016 40.1758C13.1016 41.5039 12.5469 42.5391 11.4375 43.2812C11.0938 43.5078 10.7227 43.7109 10.3242 43.8906L13.875 49.6914C14.4922 50.707 15.3203 51.4219 16.3594 51.8359C16.4453 51.8594 16.4883 51.9141 16.4883 52C16.4883 52.1953 16.3594 52.293 16.1016 52.293C14.3438 52.293 12.9453 51.625 11.9062 50.2891C11.6797 49.9922 11.4531 49.6602 11.2266 49.293L8.19141 44.5352L5.40234 44.4062H5.30859C5.19141 44.4062 5.13281 44.4609 5.13281 44.5703V49.9727C5.13281 50.4023 5.25391 50.7227 5.49609 50.9336C5.73828 51.1445 6.15625 51.2891 6.75 51.3672C6.90625 51.3906 7.09766 51.4258 7.32422 51.4727C7.55078 51.5117 7.70312 51.5312 7.78125 51.5312C7.86719 51.5312 7.91016 51.5625 7.91016 51.625V51.9062C7.91016 51.9688 7.87891 52 7.81641 52H0.609375ZM6.08203 35.9219C5.98828 35.9219 5.88672 35.9258 5.77734 35.9336C5.67578 35.9336 5.54297 35.9375 5.37891 35.9453C5.21484 35.9453 5.13281 36.0078 5.13281 36.1328V43.2344L5.15625 43.5859C5.17969 43.75 5.25391 43.8359 5.37891 43.8438L6.57422 43.9141C8.76953 43.9141 10.0938 43.1328 10.5469 41.5703C10.6953 41.0781 10.7695 40.5156 10.7695 39.8828C10.7695 38.6484 10.3828 37.6758 9.60938 36.9648C8.84375 36.2539 7.86328 35.8984 6.66797 35.8984C6.55859 35.8984 6.45703 35.9023 6.36328 35.9102C6.26953 35.9102 6.17578 35.9141 6.08203 35.9219ZM19.3477 45.8242C19.2148 45.8242 19.1484 46.1094 19.1484 46.6797C19.1484 47.8906 19.5078 48.9062 20.2266 49.7266C20.9453 50.5469 21.8359 50.957 22.8984 50.957C23.9688 50.957 24.9961 50.4961 25.9805 49.5742C25.9961 49.5586 26.0156 49.5508 26.0391 49.5508H26.0977C26.1445 49.5508 26.1875 49.5898 26.2266 49.668C26.2734 49.7383 26.3164 49.7852 26.3555 49.8086C25.4492 50.9102 24.3828 51.6719 23.1562 52.0938C22.7344 52.2422 22.2578 52.3164 21.7266 52.3164C21.1953 52.3164 20.6562 52.1719 20.1094 51.8828C19.5625 51.5859 19.0938 51.1992 18.7031 50.7227C17.875 49.7305 17.4609 48.4961 17.4609 47.0195C17.4609 45.5352 17.9102 44.1836 18.8086 42.9648C19.7148 41.7461 20.957 41.1367 22.5352 41.1367C23.668 41.1367 24.5938 41.6445 25.3125 42.6602C26.0312 43.668 26.3906 44.5547 26.3906 45.3203C26.3906 45.6562 26.3086 45.8242 26.1445 45.8242H19.3477ZM19.4766 44.6992C19.4766 44.8477 19.5469 44.9219 19.6875 44.9219H24.1055C24.3086 44.9219 24.4102 44.8008 24.4102 44.5586C24.4102 43.9961 24.1562 43.4219 23.6484 42.8359C23.1484 42.2422 22.5977 41.9453 21.9961 41.9453C21.4102 41.9453 20.875 42.2109 20.3906 42.7422C19.9141 43.2734 19.6094 43.8789 19.4766 44.5586V44.6992ZM35.5898 41.6289C35.9336 41.7461 36.1445 41.8047 36.2227 41.8047C36.3008 41.8047 36.3477 41.8047 36.3633 41.8047C36.3867 41.7969 36.4141 41.7461 36.4453 41.6523V35.6055C36.4453 35.2773 36.2656 35.0508 35.9062 34.9258C35.75 34.8711 35.582 34.8281 35.4023 34.7969C35.2227 34.7578 35.0781 34.7227 34.9688 34.6914C34.8672 34.6602 34.8008 34.6328 34.7695 34.6094C34.7461 34.5781 34.7344 34.5195 34.7344 34.4336C34.7344 34.3398 34.793 34.2617 34.9102 34.1992L37.8984 32.793C37.9922 32.7461 38.0508 32.7227 38.0742 32.7227C38.207 32.7227 38.2734 32.8164 38.2734 33.0039V49.6914C38.3125 50.0352 38.4102 50.2812 38.5664 50.4297C38.7227 50.5781 38.9766 50.6523 39.3281 50.6523L40.0078 50.6055C40.0547 50.6055 40.0781 50.6523 40.0781 50.7461C40.0781 50.832 40.0195 50.9023 39.9023 50.957L36.7852 52.2461C36.6914 52.293 36.6094 52.3164 36.5391 52.3164C36.4766 52.3164 36.4453 52.2188 36.4453 52.0234V50.957C36.4453 50.8789 36.4258 50.8398 36.3867 50.8398C36.332 50.8398 36.0078 51.0156 35.4141 51.3672C33.5938 52.4453 32.0586 52.6055 30.8086 51.8477C29.8086 51.2383 29.1328 50.2734 28.7812 48.9531C28.6172 48.3359 28.5352 47.6836 28.5352 46.9961C28.5352 46.3008 28.6758 45.6133 28.957 44.9336C29.2461 44.2461 29.6406 43.6445 30.1406 43.1289C31.2422 42.0039 32.5703 41.4414 34.125 41.4414C34.7578 41.4414 35.2461 41.5039 35.5898 41.6289ZM30.3047 46.6562C30.3047 47.8359 30.6328 48.8711 31.2891 49.7617C31.9453 50.6445 32.8594 51.0859 34.0312 51.0859C34.5469 51.0859 35.0781 50.9609 35.625 50.7109C36.1719 50.4531 36.4453 50.2578 36.4453 50.125V44.0781C36.4453 43.9297 36.3438 43.7539 36.1406 43.5508C35.5156 42.6914 34.6836 42.2617 33.6445 42.2617C32.6133 42.2617 31.7969 42.6992 31.1953 43.5742C30.6016 44.4414 30.3047 45.4688 30.3047 46.6562ZM49.1484 50.9688C49.1094 50.8359 49.0586 50.793 48.9961 50.8398C48.9336 50.8789 48.6797 51.0117 48.2344 51.2383C46.7734 51.9648 45.5547 52.3281 44.5781 52.3281C43.6016 52.3281 42.8984 52.0156 42.4688 51.3906C42.3125 51.1562 42.2344 50.8672 42.2344 50.5234V43.375C42.2109 43.1484 42.1094 42.9531 41.9297 42.7891C41.6875 42.5859 41.4336 42.4766 41.168 42.4609C40.9102 42.4453 40.7812 42.3672 40.7812 42.2266C40.7812 42.0781 40.8438 41.9883 40.9688 41.957L43.6523 41.1836C43.7461 41.1523 43.8359 41.1367 43.9219 41.1367C44.0156 41.1367 44.0625 41.2031 44.0625 41.3359V49.1992C44.0625 49.7461 44.3047 50.168 44.7891 50.4648C45.2734 50.7617 45.8906 50.9102 46.6406 50.9102C47.3984 50.9102 48.0781 50.6797 48.6797 50.2188C48.8672 50.0703 49.0234 49.9062 49.1484 49.7266V43.375C49.125 43.1484 49.0234 42.9531 48.8438 42.7891C48.6016 42.5859 48.3477 42.4766 48.082 42.4609C47.8242 42.4453 47.6953 42.3672 47.6953 42.2266C47.6953 42.0781 47.7578 41.9883 47.8828 41.957L50.5664 41.1836C50.6602 41.1523 50.75 41.1367 50.8359 41.1367C50.9297 41.1367 50.9766 41.2148 50.9766 41.3711V49.6914C51.0156 50.0352 51.1133 50.2812 51.2695 50.4297C51.4258 50.5781 51.6797 50.6523 52.0312 50.6523L52.7109 50.6055C52.7578 50.6055 52.7812 50.6523 52.7812 50.7461C52.7812 50.832 52.7227 50.9023 52.6055 50.957L49.4883 52.2461C49.3945 52.293 49.3125 52.3164 49.2422 52.3164C49.1797 52.3164 49.1484 52.2188 49.1484 52.0234V50.9688ZM63.5039 42.543C63.5039 43.0898 63.1875 43.3633 62.5547 43.3633C62.2344 43.3633 61.9609 43.2734 61.7344 43.0938C61.5156 42.9062 61.3438 42.75 61.2188 42.625C61.1016 42.4922 60.9766 42.3711 60.8438 42.2617C60.2812 41.8008 59.5938 41.75 58.7812 42.1094C57.9766 42.4688 57.3555 43.2344 56.918 44.4062C56.6758 45.0547 56.5547 45.6992 56.5547 46.3398C56.5547 47.7148 56.8672 48.8398 57.4922 49.7148C58.1172 50.582 59.0742 51.0156 60.3633 51.0156C61.3242 51.0156 62.1875 50.5859 62.9531 49.7266C63.1875 49.4688 63.3281 49.3398 63.375 49.3398C63.4219 49.3398 63.4727 49.3633 63.5273 49.4102C63.582 49.457 63.6094 49.5273 63.6094 49.6211C63.6094 49.707 63.5859 49.7734 63.5391 49.8203C62.3438 51.4844 60.8398 52.3164 59.0273 52.3164C57.7148 52.3164 56.6367 51.8281 55.793 50.8516C54.957 49.875 54.5391 48.7578 54.5391 47.5C54.5469 45.1719 55.1094 43.4961 56.2266 42.4727C57.2109 41.5742 58.6133 41.125 60.4336 41.125C61.5586 41.125 62.3047 41.2383 62.6719 41.4648C63.0391 41.6914 63.2969 41.9766 63.4453 42.3203C63.4844 42.3984 63.5039 42.4727 63.5039 42.543ZM67.1367 45.8242C67.0039 45.8242 66.9375 46.1094 66.9375 46.6797C66.9375 47.8906 67.2969 48.9062 68.0156 49.7266C68.7344 50.5469 69.625 50.957 70.6875 50.957C71.7578 50.957 72.7852 50.4961 73.7695 49.5742C73.7852 49.5586 73.8047 49.5508 73.8281 49.5508H73.8867C73.9336 49.5508 73.9766 49.5898 74.0156 49.668C74.0625 49.7383 74.1055 49.7852 74.1445 49.8086C73.2383 50.9102 72.1719 51.6719 70.9453 52.0938C70.5234 52.2422 70.0469 52.3164 69.5156 52.3164C68.9844 52.3164 68.4453 52.1719 67.8984 51.8828C67.3516 51.5859 66.8828 51.1992 66.4922 50.7227C65.6641 49.7305 65.25 48.4961 65.25 47.0195C65.25 45.5352 65.6992 44.1836 66.5977 42.9648C67.5039 41.7461 68.7461 41.1367 70.3242 41.1367C71.457 41.1367 72.3828 41.6445 73.1016 42.6602C73.8203 43.668 74.1797 44.5547 74.1797 45.3203C74.1797 45.6562 74.0977 45.8242 73.9336 45.8242H67.1367ZM67.2656 44.6992C67.2656 44.8477 67.3359 44.9219 67.4766 44.9219H71.8945C72.0977 44.9219 72.1992 44.8008 72.1992 44.5586C72.1992 43.9961 71.9453 43.4219 71.4375 42.8359C70.9375 42.2422 70.3867 41.9453 69.7852 41.9453C69.1992 41.9453 68.6641 42.2109 68.1797 42.7422C67.7031 43.2734 67.3984 43.8789 67.2656 44.5586V44.6992ZM89.0039 51.8125C89.0039 51.9375 88.9336 52 88.793 52H82.3594C82.2812 51.9844 82.2422 51.9297 82.2422 51.8359C82.2422 51.6953 82.4258 51.6016 82.793 51.5547C83.6367 51.4297 84.0586 50.9844 84.0586 50.2188V43.1172C84.0586 43.0312 84.0117 42.9883 83.918 42.9883H82.6406C82.5469 42.9883 82.457 42.9609 82.3711 42.9062C82.2852 42.8438 82.2422 42.7656 82.2422 42.6719C82.2422 42.5703 82.2891 42.4922 82.3828 42.4375C82.5156 42.3594 82.8281 42.2539 83.3203 42.1211C83.8125 41.9883 84.0586 41.7695 84.0586 41.4648V41.0781C84.0586 38.2656 84.668 36.1016 85.8867 34.5859C86.5664 33.7344 87.6016 33.0781 88.9922 32.6172C89.4141 32.4766 89.832 32.4062 90.2461 32.4062C90.6602 32.4062 91.1445 32.5156 91.6992 32.7344C92.2539 32.9453 92.5312 33.2031 92.5312 33.5078C92.5312 33.5703 92.5195 33.625 92.4961 33.6719C92.4805 33.7188 92.4609 33.7773 92.4375 33.8477L91.957 34.8789C91.8945 35.0039 91.8203 35.0664 91.7344 35.0664C91.7109 35.0664 91.543 34.9453 91.2305 34.7031C90.918 34.4531 90.5859 34.2266 90.2344 34.0234C89.8906 33.8125 89.4844 33.707 89.0156 33.707C88.1016 33.707 87.4102 33.9414 86.9414 34.4102C86.4727 34.8789 86.1797 35.4102 86.0625 36.0039C85.9453 36.5898 85.8867 37.2383 85.8867 37.9492V41.3594C85.8867 41.4219 85.9258 41.4531 86.0039 41.4531H88.2891C88.5078 41.4531 88.6484 41.4766 88.7109 41.5234C88.7812 41.5625 88.8477 41.7031 88.9102 41.9453C88.9727 42.1797 89.0039 42.3984 89.0039 42.6016C89.0039 42.7969 88.9844 42.9102 88.9453 42.9414C88.9062 42.9727 88.8242 42.9883 88.6992 42.9883H86.0391C85.9375 42.9883 85.8867 43.0273 85.8867 43.1055V49.9844C85.8867 51.1016 86.8555 51.6602 88.793 51.6602C88.9336 51.6758 89.0039 51.7266 89.0039 51.8125ZM89.9648 46.7383C89.9648 45.1992 90.5078 43.8789 91.5938 42.7773C92.6875 41.668 93.9961 41.1133 95.5195 41.1133C97.043 41.1133 98.3672 41.6523 99.4922 42.7305C100.617 43.8008 101.18 45.125 101.18 46.7031C101.18 48.2812 100.645 49.6133 99.5742 50.6992C98.5117 51.7773 97.1758 52.3164 95.5664 52.3164C93.957 52.3164 92.6211 51.7695 91.5586 50.6758C90.4961 49.582 89.9648 48.2695 89.9648 46.7383ZM92.8828 49.75C93.6484 51.0391 94.6914 51.6836 96.0117 51.6836C97.0352 51.6836 97.8164 51.2734 98.3555 50.4531C98.9023 49.6328 99.1758 48.625 99.1758 47.4297C99.1758 46.2344 98.793 45.0078 98.0273 43.75C97.2695 42.4922 96.2461 41.8633 94.957 41.8633C94.0117 41.8633 93.2656 42.2734 92.7188 43.0938C92.1797 43.9062 91.9102 44.9414 91.9102 46.1992C91.9102 47.4492 92.2344 48.6328 92.8828 49.75ZM110.016 43.5977C109.922 43.582 109.785 43.5312 109.605 43.4453C108.957 43.1484 108.449 43 108.082 43C107.715 43 107.328 43.2305 106.922 43.6914C106.523 44.1445 106.324 44.5547 106.324 44.9219V50.2188C106.324 50.8047 106.664 51.1953 107.344 51.3906C107.641 51.4688 107.918 51.5273 108.176 51.5664C108.434 51.5977 108.598 51.6289 108.668 51.6602C108.746 51.6914 108.785 51.7539 108.785 51.8477C108.785 51.9336 108.746 51.9844 108.668 52H102.797C102.719 51.9844 102.68 51.9297 102.68 51.8359C102.68 51.6953 102.863 51.6016 103.23 51.5547C104.074 51.4297 104.496 50.9844 104.496 50.2188V44.0195C104.496 43.6914 104.316 43.4648 103.957 43.3398C103.801 43.2852 103.633 43.2422 103.453 43.2109C103.273 43.1719 103.129 43.1367 103.02 43.1055C102.918 43.0742 102.852 43.0469 102.82 43.0234C102.797 42.9922 102.785 42.9336 102.785 42.8477C102.785 42.7539 102.844 42.6758 102.961 42.6133L105.949 41.207C106.043 41.1602 106.102 41.1367 106.125 41.1367C106.258 41.1367 106.324 41.2305 106.324 41.418V43.3164C106.324 43.4102 106.348 43.457 106.395 43.457C106.457 43.457 106.617 43.2734 106.875 42.9062C107.617 41.8672 108.23 41.3477 108.715 41.3477C108.988 41.3477 109.406 41.457 109.969 41.6758C110.539 41.8945 110.824 42.0781 110.824 42.2266C110.824 42.4062 110.734 42.6797 110.555 43.0469C110.375 43.4141 110.195 43.5977 110.016 43.5977ZM123.785 43.9844C123.785 44.1562 123.719 44.2422 123.586 44.2422C123.461 44.2422 123.363 44.1484 123.293 43.9609C123.105 43.4453 122.824 42.9883 122.449 42.5898C122.082 42.1914 121.625 41.9922 121.078 41.9922C120.359 41.9922 119.875 42.3516 119.625 43.0703C119.547 43.3125 119.508 43.5625 119.508 43.8203C119.508 44.0781 119.672 44.3672 120 44.6875C120.328 45 120.867 45.375 121.617 45.8125C122.367 46.25 122.914 46.6211 123.258 46.9258C124.039 47.6211 124.43 48.4258 124.43 49.3398C124.43 50.2539 124.094 50.9805 123.422 51.5195C122.75 52.0508 121.969 52.3164 121.078 52.3164C120.602 52.3164 120.168 52.25 119.777 52.1172C119.395 51.9922 119.172 51.9297 119.109 51.9297C119.055 51.9297 118.961 51.9922 118.828 52.1172C118.703 52.25 118.602 52.3164 118.523 52.3164H118.324C118.277 52.3164 118.219 51.8945 118.148 51.0508C118.078 50.207 118.043 49.707 118.043 49.5508C118.043 49.3945 118.055 49.3086 118.078 49.293C118.109 49.2773 118.156 49.2695 118.219 49.2695C118.281 49.2695 118.332 49.2891 118.371 49.3281C118.418 49.3672 118.457 49.418 118.488 49.4805C118.52 49.5352 118.543 49.5938 118.559 49.6562C118.582 49.7188 118.633 49.8359 118.711 50.0078C119.242 51.1406 120.062 51.707 121.172 51.707C121.664 51.707 122.059 51.5273 122.355 51.168C122.652 50.8008 122.801 50.3945 122.801 49.9492C122.801 49.5039 122.684 49.1289 122.449 48.8242C122.215 48.5195 121.922 48.2422 121.57 47.9922C121.227 47.7422 120.852 47.5 120.445 47.2656C118.867 46.3438 118.078 45.3242 118.078 44.207C118.078 43.3711 118.438 42.6523 119.156 42.0508C119.875 41.4414 120.613 41.1367 121.371 41.1367C122.129 41.1367 122.688 41.2188 123.047 41.3828C123.414 41.5469 123.629 41.6875 123.691 41.8047C123.754 41.9141 123.785 42.2812 123.785 42.9062V43.9844ZM128.988 42.9883C128.941 42.9883 128.918 43.0234 128.918 43.0938V49.5625C128.918 50.0312 129.02 50.3984 129.223 50.6641C129.434 50.9297 129.699 51.0625 130.02 51.0625C130.34 51.0625 130.617 51.0117 130.852 50.9102C131.094 50.8008 131.301 50.6836 131.473 50.5586C131.652 50.4336 131.812 50.3203 131.953 50.2188C132.094 50.1094 132.219 50.0547 132.328 50.0547C132.438 50.0547 132.492 50.082 132.492 50.1367C132.492 50.3242 132.473 50.4453 132.434 50.5C131.496 51.7109 130.59 52.3164 129.715 52.3164C128.848 52.3164 128.191 52.043 127.746 51.4961C127.309 50.9414 127.09 50.2812 127.09 49.5156V42.9883H126.211C125.992 42.9883 125.875 42.918 125.859 42.7773C125.852 42.6367 125.875 42.5469 125.93 42.5078C126.344 42.2422 126.914 41.7656 127.641 41.0781C127.719 40.9922 127.824 40.8633 127.957 40.6914C128.09 40.5195 128.281 40.2852 128.531 39.9883C128.789 39.6914 128.984 39.543 129.117 39.543C129.25 39.543 129.316 39.5977 129.316 39.707C129.316 39.7227 129.184 40.2344 128.918 41.2422C128.918 41.3828 128.98 41.457 129.105 41.4648H132.094C132.438 41.4648 132.609 41.9492 132.609 42.918C132.609 42.9648 132.578 42.9883 132.516 42.9883H128.988ZM133.793 46.7383C133.793 45.1992 134.336 43.8789 135.422 42.7773C136.516 41.668 137.824 41.1133 139.348 41.1133C140.871 41.1133 142.195 41.6523 143.32 42.7305C144.445 43.8008 145.008 45.125 145.008 46.7031C145.008 48.2812 144.473 49.6133 143.402 50.6992C142.34 51.7773 141.004 52.3164 139.395 52.3164C137.785 52.3164 136.449 51.7695 135.387 50.6758C134.324 49.582 133.793 48.2695 133.793 46.7383ZM136.711 49.75C137.477 51.0391 138.52 51.6836 139.84 51.6836C140.863 51.6836 141.645 51.2734 142.184 50.4531C142.73 49.6328 143.004 48.625 143.004 47.4297C143.004 46.2344 142.621 45.0078 141.855 43.75C141.098 42.4922 140.074 41.8633 138.785 41.8633C137.84 41.8633 137.094 42.2734 136.547 43.0938C136.008 43.9062 135.738 44.9414 135.738 46.1992C135.738 47.4492 136.062 48.6328 136.711 49.75ZM153.844 43.5977C153.75 43.582 153.613 43.5312 153.434 43.4453C152.785 43.1484 152.277 43 151.91 43C151.543 43 151.156 43.2305 150.75 43.6914C150.352 44.1445 150.152 44.5547 150.152 44.9219V50.2188C150.152 50.8047 150.492 51.1953 151.172 51.3906C151.469 51.4688 151.746 51.5273 152.004 51.5664C152.262 51.5977 152.426 51.6289 152.496 51.6602C152.574 51.6914 152.613 51.7539 152.613 51.8477C152.613 51.9336 152.574 51.9844 152.496 52H146.625C146.547 51.9844 146.508 51.9297 146.508 51.8359C146.508 51.6953 146.691 51.6016 147.059 51.5547C147.902 51.4297 148.324 50.9844 148.324 50.2188V44.0195C148.324 43.6914 148.145 43.4648 147.785 43.3398C147.629 43.2852 147.461 43.2422 147.281 43.2109C147.102 43.1719 146.957 43.1367 146.848 43.1055C146.746 43.0742 146.68 43.0469 146.648 43.0234C146.625 42.9922 146.613 42.9336 146.613 42.8477C146.613 42.7539 146.672 42.6758 146.789 42.6133L149.777 41.207C149.871 41.1602 149.93 41.1367 149.953 41.1367C150.086 41.1367 150.152 41.2305 150.152 41.418V43.3164C150.152 43.4102 150.176 43.457 150.223 43.457C150.285 43.457 150.445 43.2734 150.703 42.9062C151.445 41.8672 152.059 41.3477 152.543 41.3477C152.816 41.3477 153.234 41.457 153.797 41.6758C154.367 41.8945 154.652 42.0781 154.652 42.2266C154.652 42.4062 154.562 42.6797 154.383 43.0469C154.203 43.4141 154.023 43.5977 153.844 43.5977ZM155.484 52C155.406 51.9844 155.367 51.9297 155.367 51.8359C155.367 51.6953 155.551 51.6016 155.918 51.5547C156.762 51.4297 157.184 50.9844 157.184 50.2188V44.0195C157.184 43.6914 157.004 43.4648 156.645 43.3398C156.488 43.2852 156.32 43.2422 156.141 43.2109C155.961 43.1719 155.816 43.1367 155.707 43.1055C155.605 43.0742 155.539 43.0469 155.508 43.0234C155.484 42.9922 155.473 42.9336 155.473 42.8477C155.473 42.7539 155.531 42.6758 155.648 42.6133L158.637 41.207C158.73 41.1602 158.789 41.1367 158.812 41.1367C158.945 41.1367 159.012 41.2305 159.012 41.418V50.2188C159.012 50.9844 159.434 51.4297 160.277 51.5547C160.645 51.6016 160.828 51.6836 160.828 51.8008C160.828 51.918 160.789 51.9844 160.711 52H155.484ZM157.922 37.8438C157.602 37.8438 157.316 37.7422 157.066 37.5391C156.824 37.3359 156.703 37.0547 156.703 36.6953C156.703 36.3281 156.82 36.0391 157.055 35.8281C157.289 35.6172 157.566 35.5117 157.887 35.5117C158.215 35.5117 158.488 35.6367 158.707 35.8867C158.934 36.1367 159.047 36.4062 159.047 36.6953C159.047 36.9844 158.941 37.25 158.73 37.4922C158.52 37.7266 158.25 37.8438 157.922 37.8438ZM170.836 48.3086L170.812 45.8359C170.812 44.8281 170.727 44.1211 170.555 43.7148C170.383 43.3086 170.164 43.0039 169.898 42.8008C169.633 42.5898 169.273 42.4844 168.82 42.4844C168.375 42.4844 167.426 42.8359 165.973 43.5391C165.777 43.6562 165.676 43.7656 165.668 43.8672V50.1719C165.668 50.9609 166.09 51.4141 166.934 51.5312C167.301 51.5859 167.484 51.6758 167.484 51.8008C167.484 51.918 167.445 51.9844 167.367 52H162.141C162.062 51.9844 162.023 51.9297 162.023 51.8359C162.023 51.6875 162.207 51.5859 162.574 51.5312C163.418 51.4141 163.84 50.9609 163.84 50.1719V43.4453C163.84 43.1172 163.66 42.8906 163.301 42.7656C163.145 42.7109 162.977 42.668 162.797 42.6367C162.617 42.5977 162.473 42.5625 162.363 42.5312C162.262 42.5 162.195 42.4727 162.164 42.4492C162.141 42.418 162.129 42.3594 162.129 42.2734C162.129 42.1797 162.188 42.1016 162.305 42.0391L165.293 40.6328C165.387 40.5859 165.445 40.5625 165.469 40.5625C165.602 40.5625 165.668 40.6562 165.668 40.8438V42.6719C165.691 42.75 165.723 42.7891 165.762 42.7891C165.809 42.7891 165.977 42.7188 166.266 42.5781C166.938 42.2422 167.613 41.918 168.293 41.6055C168.973 41.293 169.535 41.1367 169.98 41.1367C171.785 41.1367 172.688 42.7812 172.688 46.0703L172.582 49.4922V50.1719C172.582 50.7812 172.887 51.1797 173.496 51.3672C173.754 51.4531 174 51.5156 174.234 51.5547C174.477 51.5859 174.633 51.6172 174.703 51.6484C174.781 51.6797 174.82 51.7422 174.82 51.8359C174.82 51.9297 174.781 51.9844 174.703 52H169.055C168.977 51.9844 168.938 51.9297 168.938 51.8359C168.938 51.6875 169.121 51.5859 169.488 51.5312C170.324 51.4141 170.742 50.9297 170.742 50.0781C170.805 49.6875 170.836 49.0977 170.836 48.3086ZM184.652 42.2617C184.652 42.2617 185.699 42.2148 187.793 42.1211C187.973 42.1211 188.09 42.1406 188.145 42.1797C188.199 42.2188 188.258 42.3555 188.32 42.5898C188.383 42.8164 188.414 43.0312 188.414 43.2344C188.414 43.4375 188.395 43.5547 188.355 43.5859C188.316 43.6172 188.238 43.6328 188.121 43.6328H185.52C185.566 43.7188 185.617 43.8086 185.672 43.9023C185.727 43.9961 185.797 44.1523 185.883 44.3711C185.969 44.5898 186.012 44.9297 186.012 45.3906C186.012 45.8438 185.898 46.3203 185.672 46.8203C185.453 47.3125 185.129 47.75 184.699 48.1328C183.746 48.9922 182.512 49.4219 180.996 49.4219C180.598 49.4219 180.16 49.3477 179.684 49.1992C179.566 49.3242 179.41 49.4414 179.215 49.5508C179.02 49.6523 178.828 49.7578 178.641 49.8672C178.172 50.1328 177.938 50.3984 177.938 50.6641C177.938 51.3281 179.039 51.668 181.242 51.6836C183.445 51.6992 184.891 51.7734 185.578 51.9062C186.273 52.0312 186.812 52.2852 187.195 52.668C187.797 53.2695 188.098 53.957 188.098 54.7305C188.098 55.3945 187.812 56.0781 187.242 56.7812C186.25 58.0234 184.734 58.8516 182.695 59.2656C181.969 59.4141 181.199 59.4883 180.387 59.4883C178.91 59.4883 177.789 59.2188 177.023 58.6797C176.258 58.1484 175.875 57.5039 175.875 56.7461C175.875 56.332 175.973 55.9883 176.168 55.7148C176.363 55.4492 176.609 55.1953 176.906 54.9531C177.211 54.7188 177.543 54.4688 177.902 54.2031C178.262 53.9453 178.605 53.6133 178.934 53.207C178.184 53.1445 177.539 52.9062 177 52.4922C176.469 52.0781 176.203 51.6719 176.203 51.2734C176.203 50.875 176.309 50.582 176.52 50.3945C176.73 50.1992 176.988 50.0352 177.293 49.9023C177.598 49.7617 177.918 49.6328 178.254 49.5156C178.59 49.3984 178.883 49.2461 179.133 49.0586C178.258 48.7148 177.582 48.2422 177.105 47.6406C176.629 47.0312 176.391 46.3672 176.391 45.6484C176.391 44.3125 176.875 43.2227 177.844 42.3789C178.82 41.5352 179.996 41.1133 181.371 41.1133C182.746 41.1133 183.84 41.4961 184.652 42.2617ZM178.277 54.4844C178.098 54.6641 177.949 54.8555 177.832 55.0586C177.715 55.2617 177.656 55.5156 177.656 55.8203C177.656 56.1328 177.766 56.457 177.984 56.793C178.211 57.1367 178.516 57.4453 178.898 57.7188C179.742 58.3438 180.758 58.6562 181.945 58.6562C183.133 58.6562 184.207 58.3086 185.168 57.6133C186.137 56.9258 186.621 56.168 186.621 55.3398C186.621 54.5195 186.223 53.9688 185.426 53.6875C185.051 53.5625 184.086 53.4844 182.531 53.4531C180.977 53.4219 179.969 53.3789 179.508 53.3242C179.305 53.5586 179.094 53.7656 178.875 53.9453C178.664 54.125 178.465 54.3047 178.277 54.4844ZM184.09 45.3789C184.09 44.2773 183.812 43.3828 183.258 42.6953C182.711 42 181.984 41.6523 181.078 41.6523C179.906 41.6523 179.078 42.2031 178.594 43.3047C178.406 43.7266 178.312 44.2109 178.312 44.7578C178.312 45.875 178.543 46.8047 179.004 47.5469C179.566 48.4375 180.305 48.8828 181.219 48.8828C182.133 48.8828 182.84 48.5742 183.34 47.957C183.84 47.3398 184.09 46.4805 184.09 45.3789ZM211.324 50.875C211.387 50.875 211.418 50.9492 211.418 51.0977C211.418 51.2383 211.395 51.3164 211.348 51.332C210.285 52.0195 209.371 52.3633 208.605 52.3633C207.848 52.3633 207.195 52.0078 206.648 51.2969C206.383 50.9688 206.125 50.6055 205.875 50.207C205.625 49.8086 205.414 49.5039 205.242 49.293C203.047 51.3086 201.098 52.3164 199.395 52.3164C198.262 52.3164 197.281 51.8516 196.453 50.9219C195.633 49.9844 195.223 48.9297 195.223 47.7578C195.223 46.1172 196.117 44.793 197.906 43.7852C198.445 43.4805 199.027 43.2031 199.652 42.9531C198.762 42.0859 198.211 41.2812 198 40.5391C197.922 40.2422 197.883 39.8828 197.883 39.4609C197.883 38.6172 198.234 37.9375 198.938 37.4219C199.641 36.8984 200.438 36.6367 201.328 36.6367C202.219 36.6367 202.992 36.8984 203.648 37.4219C204.312 37.9375 204.645 38.6211 204.645 39.4727C204.645 40.4805 203.906 41.4336 202.43 42.332C202.258 42.4336 202.164 42.4922 202.148 42.5078C202.133 42.5234 202.125 42.5586 202.125 42.6133C202.125 42.6602 202.168 42.7266 202.254 42.8125C202.348 42.8906 202.449 42.9805 202.559 43.082C202.676 43.1836 202.844 43.3359 203.062 43.5391C203.289 43.7422 203.512 43.9336 203.73 44.1133C203.949 44.293 204.395 44.8086 205.066 45.6602C205.738 46.5117 206.094 46.9375 206.133 46.9375C206.219 46.9375 206.277 46.9062 206.309 46.8438L208.992 42.7891C209.188 42.4922 209.285 42.2383 209.285 42.0273C209.285 41.8164 209.219 41.6719 209.086 41.5938C208.953 41.5078 208.805 41.4492 208.641 41.418C208.484 41.3789 208.34 41.3438 208.207 41.3125C208.074 41.2734 208.008 41.1875 208.008 41.0547C208.008 40.9141 208.047 40.8438 208.125 40.8438H212.426C212.457 40.8984 212.473 40.9844 212.473 41.1016C212.473 41.2109 212.453 41.2812 212.414 41.3125C212.367 41.3438 212.109 41.3828 211.641 41.4297C210.875 41.5 210.344 41.7695 210.047 42.2383L206.59 47.7109L208.055 50.2305C208.492 50.9961 209.027 51.3789 209.66 51.3789C209.996 51.3789 210.328 51.3047 210.656 51.1562C210.984 51.0078 211.207 50.9141 211.324 50.875ZM200.391 50.9219C201.172 50.9219 201.902 50.7383 202.582 50.3711C203.262 49.9961 203.941 49.5234 204.621 48.9531C204.754 48.8281 204.816 48.7305 204.809 48.6602C204.809 48.5898 204.809 48.5469 204.809 48.5312C204.801 48.5156 204.797 48.4961 204.797 48.4727C203.742 46.6602 202.445 45.1367 200.906 43.9023C200.82 43.832 200.719 43.7461 200.602 43.6445C200.484 43.543 200.371 43.4922 200.262 43.4922C200.121 43.4922 199.895 43.5859 199.582 43.7734C198.918 44.1641 198.375 44.7148 197.953 45.4258C197.539 46.1367 197.332 46.7891 197.332 47.3828C197.332 48.4141 197.648 49.2617 198.281 49.9258C198.914 50.5898 199.617 50.9219 200.391 50.9219ZM203.086 39.5195C203.086 38.0664 202.473 37.3398 201.246 37.3398C200.457 37.3398 199.945 37.6953 199.711 38.4062C199.641 38.625 199.605 38.9453 199.605 39.3672C199.605 39.7812 199.766 40.25 200.086 40.7734C200.406 41.2969 200.84 41.7266 201.387 42.0625C201.871 41.9766 202.273 41.6602 202.594 41.1133C202.922 40.5664 203.086 40.0352 203.086 39.5195ZM8.0625 84.0664C8.0625 84.2695 8.15625 84.4336 8.34375 84.5586C8.53906 84.6758 8.76172 84.7344 9.01172 84.7344C9.26172 84.7344 9.46875 84.6719 9.63281 84.5469C9.80469 84.4141 9.92188 84.3477 9.98438 84.3477C10.0469 84.3477 10.0781 84.4336 10.0781 84.6055C10.0781 84.7695 10 84.9102 9.84375 85.0273C8.67188 85.8867 7.87891 86.3164 7.46484 86.3164C6.96484 86.3164 6.55859 85.7969 6.24609 84.7578C6.22266 84.6797 6.20312 84.6445 6.1875 84.6523C5.21875 85.3789 4.60938 85.8164 4.35938 85.9648C3.71875 86.332 3.07422 86.3906 2.42578 86.1406C1.78516 85.8906 1.32031 85.4766 1.03125 84.8984C0.890625 84.6016 0.820312 84.2852 0.820312 83.9492C0.820312 83.2852 1.06641 82.7578 1.55859 82.3672C2.05078 81.9766 2.98828 81.6016 4.37109 81.2422C4.83984 81.1172 5.25781 80.957 5.625 80.7617C5.99219 80.5664 6.18359 80.4414 6.19922 80.3867C6.22266 80.332 6.23438 80.2812 6.23438 80.2344V77.9844C6.23438 77.1016 5.89062 76.4805 5.20312 76.1211C4.97656 76.0039 4.70312 75.9453 4.38281 75.9453C4.07031 75.9453 3.75 76.0703 3.42188 76.3203C3.10156 76.5703 2.94141 76.9258 2.94141 77.3867L3 77.8438C2.95312 77.9375 2.67188 78.0938 2.15625 78.3125C1.64062 78.5312 1.34375 78.6484 1.26562 78.6641C1.14062 78.6641 1.07812 78.5156 1.07812 78.2188C1.07812 77.9141 1.16797 77.5781 1.34766 77.2109C1.52734 76.8438 1.78125 76.5078 2.10938 76.2031C2.875 75.4922 3.75 75.1367 4.73438 75.1367C5.71875 75.1367 6.51953 75.4102 7.13672 75.957C7.75391 76.4961 8.0625 77.1406 8.0625 77.8906V84.0664ZM2.66016 83.7266C2.66016 84.1016 2.80469 84.4297 3.09375 84.7109C3.38281 84.9844 3.71094 85.1211 4.07812 85.1211C4.45312 85.1211 4.90625 84.9648 5.4375 84.6523C5.96875 84.332 6.23438 84.0039 6.23438 83.668V81.2891C6.23438 81.2031 6.21484 81.1602 6.17578 81.1602C6.13672 81.1602 6.10938 81.1641 6.09375 81.1719L3.375 82.4375C3.09375 82.6406 2.90234 82.8125 2.80078 82.9531C2.70703 83.0938 2.66016 83.3516 2.66016 83.7266ZM19.8047 82.3086L19.7812 79.8359C19.7812 78.8281 19.6953 78.1211 19.5234 77.7148C19.3516 77.3086 19.1328 77.0039 18.8672 76.8008C18.6016 76.5898 18.2422 76.4844 17.7891 76.4844C17.3438 76.4844 16.3945 76.8359 14.9414 77.5391C14.7461 77.6562 14.6445 77.7656 14.6367 77.8672V84.1719C14.6367 84.9609 15.0586 85.4141 15.9023 85.5312C16.2695 85.5859 16.4531 85.6758 16.4531 85.8008C16.4531 85.918 16.4141 85.9844 16.3359 86H11.1094C11.0312 85.9844 10.9922 85.9297 10.9922 85.8359C10.9922 85.6875 11.1758 85.5859 11.543 85.5312C12.3867 85.4141 12.8086 84.9609 12.8086 84.1719V77.4453C12.8086 77.1172 12.6289 76.8906 12.2695 76.7656C12.1133 76.7109 11.9453 76.668 11.7656 76.6367C11.5859 76.5977 11.4414 76.5625 11.332 76.5312C11.2305 76.5 11.1641 76.4727 11.1328 76.4492C11.1094 76.418 11.0977 76.3594 11.0977 76.2734C11.0977 76.1797 11.1562 76.1016 11.2734 76.0391L14.2617 74.6328C14.3555 74.5859 14.4141 74.5625 14.4375 74.5625C14.5703 74.5625 14.6367 74.6562 14.6367 74.8438V76.6719C14.6602 76.75 14.6914 76.7891 14.7305 76.7891C14.7773 76.7891 14.9453 76.7188 15.2344 76.5781C15.9062 76.2422 16.582 75.918 17.2617 75.6055C17.9414 75.293 18.5039 75.1367 18.9492 75.1367C20.7539 75.1367 21.6562 76.7812 21.6562 80.0703L21.5508 83.4922V84.1719C21.5508 84.7812 21.8555 85.1797 22.4648 85.3672C22.7227 85.4531 22.9688 85.5156 23.2031 85.5547C23.4453 85.5859 23.6016 85.6172 23.6719 85.6484C23.75 85.6797 23.7891 85.7422 23.7891 85.8359C23.7891 85.9297 23.75 85.9844 23.6719 86H18.0234C17.9453 85.9844 17.9062 85.9297 17.9062 85.8359C17.9062 85.6875 18.0898 85.5859 18.457 85.5312C19.293 85.4141 19.7109 84.9297 19.7109 84.0781C19.7734 83.6875 19.8047 83.0977 19.8047 82.3086ZM32.0859 84.0664C32.0859 84.2695 32.1797 84.4336 32.3672 84.5586C32.5625 84.6758 32.7852 84.7344 33.0352 84.7344C33.2852 84.7344 33.4922 84.6719 33.6562 84.5469C33.8281 84.4141 33.9453 84.3477 34.0078 84.3477C34.0703 84.3477 34.1016 84.4336 34.1016 84.6055C34.1016 84.7695 34.0234 84.9102 33.8672 85.0273C32.6953 85.8867 31.9023 86.3164 31.4883 86.3164C30.9883 86.3164 30.582 85.7969 30.2695 84.7578C30.2461 84.6797 30.2266 84.6445 30.2109 84.6523C29.2422 85.3789 28.6328 85.8164 28.3828 85.9648C27.7422 86.332 27.0977 86.3906 26.4492 86.1406C25.8086 85.8906 25.3438 85.4766 25.0547 84.8984C24.9141 84.6016 24.8438 84.2852 24.8438 83.9492C24.8438 83.2852 25.0898 82.7578 25.582 82.3672C26.0742 81.9766 27.0117 81.6016 28.3945 81.2422C28.8633 81.1172 29.2812 80.957 29.6484 80.7617C30.0156 80.5664 30.207 80.4414 30.2227 80.3867C30.2461 80.332 30.2578 80.2812 30.2578 80.2344V77.9844C30.2578 77.1016 29.9141 76.4805 29.2266 76.1211C29 76.0039 28.7266 75.9453 28.4062 75.9453C28.0938 75.9453 27.7734 76.0703 27.4453 76.3203C27.125 76.5703 26.9648 76.9258 26.9648 77.3867L27.0234 77.8438C26.9766 77.9375 26.6953 78.0938 26.1797 78.3125C25.6641 78.5312 25.3672 78.6484 25.2891 78.6641C25.1641 78.6641 25.1016 78.5156 25.1016 78.2188C25.1016 77.9141 25.1914 77.5781 25.3711 77.2109C25.5508 76.8438 25.8047 76.5078 26.1328 76.2031C26.8984 75.4922 27.7734 75.1367 28.7578 75.1367C29.7422 75.1367 30.543 75.4102 31.1602 75.957C31.7773 76.4961 32.0859 77.1406 32.0859 77.8906V84.0664ZM26.6836 83.7266C26.6836 84.1016 26.8281 84.4297 27.1172 84.7109C27.4062 84.9844 27.7344 85.1211 28.1016 85.1211C28.4766 85.1211 28.9297 84.9648 29.4609 84.6523C29.9922 84.332 30.2578 84.0039 30.2578 83.668V81.2891C30.2578 81.2031 30.2383 81.1602 30.1992 81.1602C30.1602 81.1602 30.1328 81.1641 30.1172 81.1719L27.3984 82.4375C27.1172 82.6406 26.9258 82.8125 26.8242 82.9531C26.7305 83.0938 26.6836 83.3516 26.6836 83.7266ZM39.5508 85.5547C39.918 85.6016 40.1016 85.6953 40.1016 85.8359C40.1016 85.9297 40.0625 85.9844 39.9844 86H34.7578C34.6797 85.9844 34.6406 85.9297 34.6406 85.8359C34.6406 85.6953 34.8242 85.6016 35.1914 85.5547C36.0352 85.4297 36.457 84.9844 36.457 84.2188V69.6055C36.457 69.2773 36.2773 69.0508 35.918 68.9258C35.7617 68.8711 35.5938 68.8281 35.4141 68.7969C35.2344 68.7578 35.0898 68.7227 34.9805 68.6914C34.8789 68.6602 34.8125 68.6328 34.7812 68.6094C34.7578 68.5781 34.7461 68.5195 34.7461 68.4336C34.7461 68.3398 34.8047 68.2617 34.9219 68.1992L37.9102 66.793C38.0039 66.7461 38.0625 66.7227 38.0859 66.7227C38.2188 66.7227 38.2852 66.8164 38.2852 67.0039V84.2188C38.2852 84.9844 38.707 85.4297 39.5508 85.5547ZM52.7812 75.4531C52.8672 75.4766 52.9102 75.5312 52.9102 75.6172C52.9102 75.7031 52.9023 75.7617 52.8867 75.793C52.8711 75.8164 52.832 75.8398 52.7695 75.8633C52.7148 75.8789 52.6328 75.8945 52.5234 75.9102C52.4219 75.9258 52.2578 75.957 52.0312 76.0039C51.8047 76.043 51.6016 76.1992 51.4219 76.4727C51.2422 76.7461 51.0508 77.125 50.8477 77.6094L45.3398 91.2617L44.5781 92.8789C44.3828 93.293 43.9727 93.5 43.3477 93.5C43.0742 93.5 42.8555 93.4102 42.6914 93.2305C42.5273 93.0508 42.4453 92.8359 42.4453 92.5859C42.4453 92.3438 42.5039 92.1641 42.6211 92.0469C42.7461 91.9375 42.8906 91.8477 43.0547 91.7773C43.2188 91.707 43.3867 91.6406 43.5586 91.5781C43.7383 91.5234 43.9375 91.3906 44.1562 91.1797C44.375 90.9766 44.5039 90.8242 44.543 90.7227C45.8555 87.7852 46.5117 86.25 46.5117 86.1172C46.5117 85.9844 46.4336 85.8203 46.2773 85.625L42.4102 77.5508C42.1211 76.7617 41.625 76.2539 40.9219 76.0273C40.8672 76.0117 40.8008 76 40.7227 75.9922C40.3945 75.9609 40.2305 75.8633 40.2305 75.6992C40.2305 75.5352 40.3242 75.4531 40.5117 75.4531H45.7266C45.7891 75.4531 45.8203 75.5156 45.8203 75.6406C45.8203 75.7578 45.7656 75.8398 45.6562 75.8867C45.5469 75.9258 45.3047 75.9453 44.9297 75.9453C44.3281 75.9453 44.0273 76.1797 44.0273 76.6484L44.1328 76.9297L47.168 83.4336C47.3242 83.832 47.4805 83.8203 47.6367 83.3984C47.6523 83.3594 47.75 83.1055 47.9297 82.6367C48.9922 79.9414 49.5859 78.3828 49.7109 77.9609C49.8438 77.5391 49.9102 77.2227 49.9102 77.0117C49.9102 76.8008 49.7969 76.5781 49.5703 76.3438C49.3516 76.1094 49.0469 75.9922 48.6562 75.9922C48.2734 75.9922 48.082 75.8789 48.082 75.6523C48.082 75.5195 48.168 75.4531 48.3398 75.4531H52.7812ZM56.9297 84.5117C56.8984 84.5586 56.8672 84.6016 56.8359 84.6406C56.8125 84.6797 56.8008 84.7305 56.8008 84.793C56.8008 84.8477 56.8242 84.875 56.8711 84.875H61.3828C61.875 84.875 62.3047 84.5664 62.6719 83.9492C62.9297 83.5195 63.1016 83.2578 63.1875 83.1641C63.2812 83.0703 63.3789 83.0234 63.4805 83.0234C63.5898 83.0234 63.6445 83.0703 63.6445 83.1641L62.7773 85.4609C62.7617 85.4922 62.7305 85.5898 62.6836 85.7539C62.6445 85.918 62.5664 86 62.4492 86H54.1875C54.0156 86 53.9297 85.9219 53.9297 85.7656C53.9297 85.6562 53.9531 85.5586 54 85.4727L59.8945 77.3867C59.9727 77.2773 60.0391 77.1836 60.0938 77.1055C60.1562 77.0273 60.1914 76.9414 60.1992 76.8477C60.2148 76.7539 59.6992 76.707 58.6523 76.707H56.25C55.6172 76.707 55.168 77.1016 54.9023 77.8906C54.832 78.1016 54.75 78.3555 54.6562 78.6523C54.5703 78.9414 54.4609 79.0859 54.3281 79.0859C54.25 79.0859 54.2109 79.0703 54.2109 79.0391L54.8789 75.125C54.9023 75.0312 54.9648 74.9844 55.0664 74.9844C55.1758 74.9844 55.2773 75.0664 55.3711 75.2305C55.4648 75.3867 55.5781 75.4727 55.7109 75.4883C56.2969 75.5664 57.0977 75.6055 58.1133 75.6055C59.1289 75.6055 60.7734 75.582 63.0469 75.5352C63.125 75.5586 63.1641 75.6562 63.1641 75.8281C63.1641 75.9922 63.1016 76.125 62.9766 76.2266L56.9297 84.5117ZM64.7578 86C64.6797 85.9844 64.6406 85.9297 64.6406 85.8359C64.6406 85.6953 64.8242 85.6016 65.1914 85.5547C66.0352 85.4297 66.457 84.9844 66.457 84.2188V78.0195C66.457 77.6914 66.2773 77.4648 65.918 77.3398C65.7617 77.2852 65.5938 77.2422 65.4141 77.2109C65.2344 77.1719 65.0898 77.1367 64.9805 77.1055C64.8789 77.0742 64.8125 77.0469 64.7812 77.0234C64.7578 76.9922 64.7461 76.9336 64.7461 76.8477C64.7461 76.7539 64.8047 76.6758 64.9219 76.6133L67.9102 75.207C68.0039 75.1602 68.0625 75.1367 68.0859 75.1367C68.2188 75.1367 68.2852 75.2305 68.2852 75.418V84.2188C68.2852 84.9844 68.707 85.4297 69.5508 85.5547C69.918 85.6016 70.1016 85.6836 70.1016 85.8008C70.1016 85.918 70.0625 85.9844 69.9844 86H64.7578ZM67.1953 71.8438C66.875 71.8438 66.5898 71.7422 66.3398 71.5391C66.0977 71.3359 65.9766 71.0547 65.9766 70.6953C65.9766 70.3281 66.0938 70.0391 66.3281 69.8281C66.5625 69.6172 66.8398 69.5117 67.1602 69.5117C67.4883 69.5117 67.7617 69.6367 67.9805 69.8867C68.207 70.1367 68.3203 70.4062 68.3203 70.6953C68.3203 70.9844 68.2148 71.25 68.0039 71.4922C67.793 71.7266 67.5234 71.8438 67.1953 71.8438ZM80.1094 82.3086L80.0859 79.8359C80.0859 78.8281 80 78.1211 79.8281 77.7148C79.6562 77.3086 79.4375 77.0039 79.1719 76.8008C78.9062 76.5898 78.5469 76.4844 78.0938 76.4844C77.6484 76.4844 76.6992 76.8359 75.2461 77.5391C75.0508 77.6562 74.9492 77.7656 74.9414 77.8672V84.1719C74.9414 84.9609 75.3633 85.4141 76.207 85.5312C76.5742 85.5859 76.7578 85.6758 76.7578 85.8008C76.7578 85.918 76.7188 85.9844 76.6406 86H71.4141C71.3359 85.9844 71.2969 85.9297 71.2969 85.8359C71.2969 85.6875 71.4805 85.5859 71.8477 85.5312C72.6914 85.4141 73.1133 84.9609 73.1133 84.1719V77.4453C73.1133 77.1172 72.9336 76.8906 72.5742 76.7656C72.418 76.7109 72.25 76.668 72.0703 76.6367C71.8906 76.5977 71.7461 76.5625 71.6367 76.5312C71.5352 76.5 71.4688 76.4727 71.4375 76.4492C71.4141 76.418 71.4023 76.3594 71.4023 76.2734C71.4023 76.1797 71.4609 76.1016 71.5781 76.0391L74.5664 74.6328C74.6602 74.5859 74.7188 74.5625 74.7422 74.5625C74.875 74.5625 74.9414 74.6562 74.9414 74.8438V76.6719C74.9648 76.75 74.9961 76.7891 75.0352 76.7891C75.082 76.7891 75.25 76.7188 75.5391 76.5781C76.2109 76.2422 76.8867 75.918 77.5664 75.6055C78.2461 75.293 78.8086 75.1367 79.2539 75.1367C81.0586 75.1367 81.9609 76.7812 81.9609 80.0703L81.8555 83.4922V84.1719C81.8555 84.7812 82.1602 85.1797 82.7695 85.3672C83.0273 85.4531 83.2734 85.5156 83.5078 85.5547C83.75 85.5859 83.9062 85.6172 83.9766 85.6484C84.0547 85.6797 84.0938 85.7422 84.0938 85.8359C84.0938 85.9297 84.0547 85.9844 83.9766 86H78.3281C78.25 85.9844 78.2109 85.9297 78.2109 85.8359C78.2109 85.6875 78.3945 85.5859 78.7617 85.5312C79.5977 85.4141 80.0156 84.9297 80.0156 84.0781C80.0781 83.6875 80.1094 83.0977 80.1094 82.3086ZM93.9258 76.2617C93.9258 76.2617 94.9727 76.2148 97.0664 76.1211C97.2461 76.1211 97.3633 76.1406 97.418 76.1797C97.4727 76.2188 97.5312 76.3555 97.5938 76.5898C97.6562 76.8164 97.6875 77.0312 97.6875 77.2344C97.6875 77.4375 97.668 77.5547 97.6289 77.5859C97.5898 77.6172 97.5117 77.6328 97.3945 77.6328H94.793C94.8398 77.7188 94.8906 77.8086 94.9453 77.9023C95 77.9961 95.0703 78.1523 95.1562 78.3711C95.2422 78.5898 95.2852 78.9297 95.2852 79.3906C95.2852 79.8438 95.1719 80.3203 94.9453 80.8203C94.7266 81.3125 94.4023 81.75 93.9727 82.1328C93.0195 82.9922 91.7852 83.4219 90.2695 83.4219C89.8711 83.4219 89.4336 83.3477 88.957 83.1992C88.8398 83.3242 88.6836 83.4414 88.4883 83.5508C88.293 83.6523 88.1016 83.7578 87.9141 83.8672C87.4453 84.1328 87.2109 84.3984 87.2109 84.6641C87.2109 85.3281 88.3125 85.668 90.5156 85.6836C92.7188 85.6992 94.1641 85.7734 94.8516 85.9062C95.5469 86.0312 96.0859 86.2852 96.4688 86.668C97.0703 87.2695 97.3711 87.957 97.3711 88.7305C97.3711 89.3945 97.0859 90.0781 96.5156 90.7812C95.5234 92.0234 94.0078 92.8516 91.9688 93.2656C91.2422 93.4141 90.4727 93.4883 89.6602 93.4883C88.1836 93.4883 87.0625 93.2188 86.2969 92.6797C85.5312 92.1484 85.1484 91.5039 85.1484 90.7461C85.1484 90.332 85.2461 89.9883 85.4414 89.7148C85.6367 89.4492 85.8828 89.1953 86.1797 88.9531C86.4844 88.7188 86.8164 88.4688 87.1758 88.2031C87.5352 87.9453 87.8789 87.6133 88.207 87.207C87.457 87.1445 86.8125 86.9062 86.2734 86.4922C85.7422 86.0781 85.4766 85.6719 85.4766 85.2734C85.4766 84.875 85.582 84.582 85.793 84.3945C86.0039 84.1992 86.2617 84.0352 86.5664 83.9023C86.8711 83.7617 87.1914 83.6328 87.5273 83.5156C87.8633 83.3984 88.1562 83.2461 88.4062 83.0586C87.5312 82.7148 86.8555 82.2422 86.3789 81.6406C85.9023 81.0312 85.6641 80.3672 85.6641 79.6484C85.6641 78.3125 86.1484 77.2227 87.1172 76.3789C88.0938 75.5352 89.2695 75.1133 90.6445 75.1133C92.0195 75.1133 93.1133 75.4961 93.9258 76.2617ZM87.5508 88.4844C87.3711 88.6641 87.2227 88.8555 87.1055 89.0586C86.9883 89.2617 86.9297 89.5156 86.9297 89.8203C86.9297 90.1328 87.0391 90.457 87.2578 90.793C87.4844 91.1367 87.7891 91.4453 88.1719 91.7188C89.0156 92.3438 90.0312 92.6562 91.2188 92.6562C92.4062 92.6562 93.4805 92.3086 94.4414 91.6133C95.4102 90.9258 95.8945 90.168 95.8945 89.3398C95.8945 88.5195 95.4961 87.9688 94.6992 87.6875C94.3242 87.5625 93.3594 87.4844 91.8047 87.4531C90.25 87.4219 89.2422 87.3789 88.7812 87.3242C88.5781 87.5586 88.3672 87.7656 88.1484 87.9453C87.9375 88.125 87.7383 88.3047 87.5508 88.4844ZM93.3633 79.3789C93.3633 78.2773 93.0859 77.3828 92.5312 76.6953C91.9844 76 91.2578 75.6523 90.3516 75.6523C89.1797 75.6523 88.3516 76.2031 87.8672 77.3047C87.6797 77.7266 87.5859 78.2109 87.5859 78.7578C87.5859 79.875 87.8164 80.8047 88.2773 81.5469C88.8398 82.4375 89.5781 82.8828 90.4922 82.8828C91.4062 82.8828 92.1133 82.5742 92.6133 81.957C93.1133 81.3398 93.3633 80.4805 93.3633 79.3789ZM112.277 75.6289C112.621 75.7461 112.832 75.8047 112.91 75.8047C112.988 75.8047 113.035 75.8047 113.051 75.8047C113.074 75.7969 113.102 75.7461 113.133 75.6523V69.6055C113.133 69.2773 112.953 69.0508 112.594 68.9258C112.438 68.8711 112.27 68.8281 112.09 68.7969C111.91 68.7578 111.766 68.7227 111.656 68.6914C111.555 68.6602 111.488 68.6328 111.457 68.6094C111.434 68.5781 111.422 68.5195 111.422 68.4336C111.422 68.3398 111.48 68.2617 111.598 68.1992L114.586 66.793C114.68 66.7461 114.738 66.7227 114.762 66.7227C114.895 66.7227 114.961 66.8164 114.961 67.0039V83.6914C115 84.0352 115.098 84.2812 115.254 84.4297C115.41 84.5781 115.664 84.6523 116.016 84.6523L116.695 84.6055C116.742 84.6055 116.766 84.6523 116.766 84.7461C116.766 84.832 116.707 84.9023 116.59 84.957L113.473 86.2461C113.379 86.293 113.297 86.3164 113.227 86.3164C113.164 86.3164 113.133 86.2188 113.133 86.0234V84.957C113.133 84.8789 113.113 84.8398 113.074 84.8398C113.02 84.8398 112.695 85.0156 112.102 85.3672C110.281 86.4453 108.746 86.6055 107.496 85.8477C106.496 85.2383 105.82 84.2734 105.469 82.9531C105.305 82.3359 105.223 81.6836 105.223 80.9961C105.223 80.3008 105.363 79.6133 105.645 78.9336C105.934 78.2461 106.328 77.6445 106.828 77.1289C107.93 76.0039 109.258 75.4414 110.812 75.4414C111.445 75.4414 111.934 75.5039 112.277 75.6289ZM106.992 80.6562C106.992 81.8359 107.32 82.8711 107.977 83.7617C108.633 84.6445 109.547 85.0859 110.719 85.0859C111.234 85.0859 111.766 84.9609 112.312 84.7109C112.859 84.4531 113.133 84.2578 113.133 84.125V78.0781C113.133 77.9297 113.031 77.7539 112.828 77.5508C112.203 76.6914 111.371 76.2617 110.332 76.2617C109.301 76.2617 108.484 76.6992 107.883 77.5742C107.289 78.4414 106.992 79.4688 106.992 80.6562ZM125.062 84.0664C125.062 84.2695 125.156 84.4336 125.344 84.5586C125.539 84.6758 125.762 84.7344 126.012 84.7344C126.262 84.7344 126.469 84.6719 126.633 84.5469C126.805 84.4141 126.922 84.3477 126.984 84.3477C127.047 84.3477 127.078 84.4336 127.078 84.6055C127.078 84.7695 127 84.9102 126.844 85.0273C125.672 85.8867 124.879 86.3164 124.465 86.3164C123.965 86.3164 123.559 85.7969 123.246 84.7578C123.223 84.6797 123.203 84.6445 123.188 84.6523C122.219 85.3789 121.609 85.8164 121.359 85.9648C120.719 86.332 120.074 86.3906 119.426 86.1406C118.785 85.8906 118.32 85.4766 118.031 84.8984C117.891 84.6016 117.82 84.2852 117.82 83.9492C117.82 83.2852 118.066 82.7578 118.559 82.3672C119.051 81.9766 119.988 81.6016 121.371 81.2422C121.84 81.1172 122.258 80.957 122.625 80.7617C122.992 80.5664 123.184 80.4414 123.199 80.3867C123.223 80.332 123.234 80.2812 123.234 80.2344V77.9844C123.234 77.1016 122.891 76.4805 122.203 76.1211C121.977 76.0039 121.703 75.9453 121.383 75.9453C121.07 75.9453 120.75 76.0703 120.422 76.3203C120.102 76.5703 119.941 76.9258 119.941 77.3867L120 77.8438C119.953 77.9375 119.672 78.0938 119.156 78.3125C118.641 78.5312 118.344 78.6484 118.266 78.6641C118.141 78.6641 118.078 78.5156 118.078 78.2188C118.078 77.9141 118.168 77.5781 118.348 77.2109C118.527 76.8438 118.781 76.5078 119.109 76.2031C119.875 75.4922 120.75 75.1367 121.734 75.1367C122.719 75.1367 123.52 75.4102 124.137 75.957C124.754 76.4961 125.062 77.1406 125.062 77.8906V84.0664ZM119.66 83.7266C119.66 84.1016 119.805 84.4297 120.094 84.7109C120.383 84.9844 120.711 85.1211 121.078 85.1211C121.453 85.1211 121.906 84.9648 122.438 84.6523C122.969 84.332 123.234 84.0039 123.234 83.668V81.2891C123.234 81.2031 123.215 81.1602 123.176 81.1602C123.137 81.1602 123.109 81.1641 123.094 81.1719L120.375 82.4375C120.094 82.6406 119.902 82.8125 119.801 82.9531C119.707 83.0938 119.66 83.3516 119.66 83.7266ZM131.051 76.9883C131.004 76.9883 130.98 77.0234 130.98 77.0938V83.5625C130.98 84.0312 131.082 84.3984 131.285 84.6641C131.496 84.9297 131.762 85.0625 132.082 85.0625C132.402 85.0625 132.68 85.0117 132.914 84.9102C133.156 84.8008 133.363 84.6836 133.535 84.5586C133.715 84.4336 133.875 84.3203 134.016 84.2188C134.156 84.1094 134.281 84.0547 134.391 84.0547C134.5 84.0547 134.555 84.082 134.555 84.1367C134.555 84.3242 134.535 84.4453 134.496 84.5C133.559 85.7109 132.652 86.3164 131.777 86.3164C130.91 86.3164 130.254 86.043 129.809 85.4961C129.371 84.9414 129.152 84.2812 129.152 83.5156V76.9883H128.273C128.055 76.9883 127.938 76.918 127.922 76.7773C127.914 76.6367 127.938 76.5469 127.992 76.5078C128.406 76.2422 128.977 75.7656 129.703 75.0781C129.781 74.9922 129.887 74.8633 130.02 74.6914C130.152 74.5195 130.344 74.2852 130.594 73.9883C130.852 73.6914 131.047 73.543 131.18 73.543C131.312 73.543 131.379 73.5977 131.379 73.707C131.379 73.7227 131.246 74.2344 130.98 75.2422C130.98 75.3828 131.043 75.457 131.168 75.4648H134.156C134.5 75.4648 134.672 75.9492 134.672 76.918C134.672 76.9648 134.641 76.9883 134.578 76.9883H131.051ZM143.039 84.0664C143.039 84.2695 143.133 84.4336 143.32 84.5586C143.516 84.6758 143.738 84.7344 143.988 84.7344C144.238 84.7344 144.445 84.6719 144.609 84.5469C144.781 84.4141 144.898 84.3477 144.961 84.3477C145.023 84.3477 145.055 84.4336 145.055 84.6055C145.055 84.7695 144.977 84.9102 144.82 85.0273C143.648 85.8867 142.855 86.3164 142.441 86.3164C141.941 86.3164 141.535 85.7969 141.223 84.7578C141.199 84.6797 141.18 84.6445 141.164 84.6523C140.195 85.3789 139.586 85.8164 139.336 85.9648C138.695 86.332 138.051 86.3906 137.402 86.1406C136.762 85.8906 136.297 85.4766 136.008 84.8984C135.867 84.6016 135.797 84.2852 135.797 83.9492C135.797 83.2852 136.043 82.7578 136.535 82.3672C137.027 81.9766 137.965 81.6016 139.348 81.2422C139.816 81.1172 140.234 80.957 140.602 80.7617C140.969 80.5664 141.16 80.4414 141.176 80.3867C141.199 80.332 141.211 80.2812 141.211 80.2344V77.9844C141.211 77.1016 140.867 76.4805 140.18 76.1211C139.953 76.0039 139.68 75.9453 139.359 75.9453C139.047 75.9453 138.727 76.0703 138.398 76.3203C138.078 76.5703 137.918 76.9258 137.918 77.3867L137.977 77.8438C137.93 77.9375 137.648 78.0938 137.133 78.3125C136.617 78.5312 136.32 78.6484 136.242 78.6641C136.117 78.6641 136.055 78.5156 136.055 78.2188C136.055 77.9141 136.145 77.5781 136.324 77.2109C136.504 76.8438 136.758 76.5078 137.086 76.2031C137.852 75.4922 138.727 75.1367 139.711 75.1367C140.695 75.1367 141.496 75.4102 142.113 75.957C142.73 76.4961 143.039 77.1406 143.039 77.8906V84.0664ZM137.637 83.7266C137.637 84.1016 137.781 84.4297 138.07 84.7109C138.359 84.9844 138.688 85.1211 139.055 85.1211C139.43 85.1211 139.883 84.9648 140.414 84.6523C140.945 84.332 141.211 84.0039 141.211 83.668V81.2891C141.211 81.2031 141.191 81.1602 141.152 81.1602C141.113 81.1602 141.086 81.1641 141.07 81.1719L138.352 82.4375C138.07 82.6406 137.879 82.8125 137.777 82.9531C137.684 83.0938 137.637 83.3516 137.637 83.7266ZM159.867 84.0664C159.867 84.2695 159.961 84.4336 160.148 84.5586C160.344 84.6758 160.566 84.7344 160.816 84.7344C161.066 84.7344 161.273 84.6719 161.438 84.5469C161.609 84.4141 161.727 84.3477 161.789 84.3477C161.852 84.3477 161.883 84.4336 161.883 84.6055C161.883 84.7695 161.805 84.9102 161.648 85.0273C160.477 85.8867 159.684 86.3164 159.27 86.3164C158.77 86.3164 158.363 85.7969 158.051 84.7578C158.027 84.6797 158.008 84.6445 157.992 84.6523C157.023 85.3789 156.414 85.8164 156.164 85.9648C155.523 86.332 154.879 86.3906 154.23 86.1406C153.59 85.8906 153.125 85.4766 152.836 84.8984C152.695 84.6016 152.625 84.2852 152.625 83.9492C152.625 83.2852 152.871 82.7578 153.363 82.3672C153.855 81.9766 154.793 81.6016 156.176 81.2422C156.645 81.1172 157.062 80.957 157.43 80.7617C157.797 80.5664 157.988 80.4414 158.004 80.3867C158.027 80.332 158.039 80.2812 158.039 80.2344V77.9844C158.039 77.1016 157.695 76.4805 157.008 76.1211C156.781 76.0039 156.508 75.9453 156.188 75.9453C155.875 75.9453 155.555 76.0703 155.227 76.3203C154.906 76.5703 154.746 76.9258 154.746 77.3867L154.805 77.8438C154.758 77.9375 154.477 78.0938 153.961 78.3125C153.445 78.5312 153.148 78.6484 153.07 78.6641C152.945 78.6641 152.883 78.5156 152.883 78.2188C152.883 77.9141 152.973 77.5781 153.152 77.2109C153.332 76.8438 153.586 76.5078 153.914 76.2031C154.68 75.4922 155.555 75.1367 156.539 75.1367C157.523 75.1367 158.324 75.4102 158.941 75.957C159.559 76.4961 159.867 77.1406 159.867 77.8906V84.0664ZM154.465 83.7266C154.465 84.1016 154.609 84.4297 154.898 84.7109C155.188 84.9844 155.516 85.1211 155.883 85.1211C156.258 85.1211 156.711 84.9648 157.242 84.6523C157.773 84.332 158.039 84.0039 158.039 83.668V81.2891C158.039 81.2031 158.02 81.1602 157.98 81.1602C157.941 81.1602 157.914 81.1641 157.898 81.1719L155.18 82.4375C154.898 82.6406 154.707 82.8125 154.605 82.9531C154.512 83.0938 154.465 83.3516 154.465 83.7266ZM165.855 76.9883C165.809 76.9883 165.785 77.0234 165.785 77.0938V83.5625C165.785 84.0312 165.887 84.3984 166.09 84.6641C166.301 84.9297 166.566 85.0625 166.887 85.0625C167.207 85.0625 167.484 85.0117 167.719 84.9102C167.961 84.8008 168.168 84.6836 168.34 84.5586C168.52 84.4336 168.68 84.3203 168.82 84.2188C168.961 84.1094 169.086 84.0547 169.195 84.0547C169.305 84.0547 169.359 84.082 169.359 84.1367C169.359 84.3242 169.34 84.4453 169.301 84.5C168.363 85.7109 167.457 86.3164 166.582 86.3164C165.715 86.3164 165.059 86.043 164.613 85.4961C164.176 84.9414 163.957 84.2812 163.957 83.5156V76.9883H163.078C162.859 76.9883 162.742 76.918 162.727 76.7773C162.719 76.6367 162.742 76.5469 162.797 76.5078C163.211 76.2422 163.781 75.7656 164.508 75.0781C164.586 74.9922 164.691 74.8633 164.824 74.6914C164.957 74.5195 165.148 74.2852 165.398 73.9883C165.656 73.6914 165.852 73.543 165.984 73.543C166.117 73.543 166.184 73.5977 166.184 73.707C166.184 73.7227 166.051 74.2344 165.785 75.2422C165.785 75.3828 165.848 75.457 165.973 75.4648H168.961C169.305 75.4648 169.477 75.9492 169.477 76.918C169.477 76.9648 169.445 76.9883 169.383 76.9883H165.855ZM182.73 77.9844C182.73 78.1562 182.664 78.2422 182.531 78.2422C182.406 78.2422 182.309 78.1484 182.238 77.9609C182.051 77.4453 181.77 76.9883 181.395 76.5898C181.027 76.1914 180.57 75.9922 180.023 75.9922C179.305 75.9922 178.82 76.3516 178.57 77.0703C178.492 77.3125 178.453 77.5625 178.453 77.8203C178.453 78.0781 178.617 78.3672 178.945 78.6875C179.273 79 179.812 79.375 180.562 79.8125C181.312 80.25 181.859 80.6211 182.203 80.9258C182.984 81.6211 183.375 82.4258 183.375 83.3398C183.375 84.2539 183.039 84.9805 182.367 85.5195C181.695 86.0508 180.914 86.3164 180.023 86.3164C179.547 86.3164 179.113 86.25 178.723 86.1172C178.34 85.9922 178.117 85.9297 178.055 85.9297C178 85.9297 177.906 85.9922 177.773 86.1172C177.648 86.25 177.547 86.3164 177.469 86.3164H177.27C177.223 86.3164 177.164 85.8945 177.094 85.0508C177.023 84.207 176.988 83.707 176.988 83.5508C176.988 83.3945 177 83.3086 177.023 83.293C177.055 83.2773 177.102 83.2695 177.164 83.2695C177.227 83.2695 177.277 83.2891 177.316 83.3281C177.363 83.3672 177.402 83.418 177.434 83.4805C177.465 83.5352 177.488 83.5938 177.504 83.6562C177.527 83.7188 177.578 83.8359 177.656 84.0078C178.188 85.1406 179.008 85.707 180.117 85.707C180.609 85.707 181.004 85.5273 181.301 85.168C181.598 84.8008 181.746 84.3945 181.746 83.9492C181.746 83.5039 181.629 83.1289 181.395 82.8242C181.16 82.5195 180.867 82.2422 180.516 81.9922C180.172 81.7422 179.797 81.5 179.391 81.2656C177.812 80.3438 177.023 79.3242 177.023 78.207C177.023 77.3711 177.383 76.6523 178.102 76.0508C178.82 75.4414 179.559 75.1367 180.316 75.1367C181.074 75.1367 181.633 75.2188 181.992 75.3828C182.359 75.5469 182.574 75.6875 182.637 75.8047C182.699 75.9141 182.73 76.2812 182.73 76.9062V77.9844ZM194.285 76.543C194.285 77.0898 193.969 77.3633 193.336 77.3633C193.016 77.3633 192.742 77.2734 192.516 77.0938C192.297 76.9062 192.125 76.75 192 76.625C191.883 76.4922 191.758 76.3711 191.625 76.2617C191.062 75.8008 190.375 75.75 189.562 76.1094C188.758 76.4688 188.137 77.2344 187.699 78.4062C187.457 79.0547 187.336 79.6992 187.336 80.3398C187.336 81.7148 187.648 82.8398 188.273 83.7148C188.898 84.582 189.855 85.0156 191.145 85.0156C192.105 85.0156 192.969 84.5859 193.734 83.7266C193.969 83.4688 194.109 83.3398 194.156 83.3398C194.203 83.3398 194.254 83.3633 194.309 83.4102C194.363 83.457 194.391 83.5273 194.391 83.6211C194.391 83.707 194.367 83.7734 194.32 83.8203C193.125 85.4844 191.621 86.3164 189.809 86.3164C188.496 86.3164 187.418 85.8281 186.574 84.8516C185.738 83.875 185.32 82.7578 185.32 81.5C185.328 79.1719 185.891 77.4961 187.008 76.4727C187.992 75.5742 189.395 75.125 191.215 75.125C192.34 75.125 193.086 75.2383 193.453 75.4648C193.82 75.6914 194.078 75.9766 194.227 76.3203C194.266 76.3984 194.285 76.4727 194.285 76.543ZM203.273 84.0664C203.273 84.2695 203.367 84.4336 203.555 84.5586C203.75 84.6758 203.973 84.7344 204.223 84.7344C204.473 84.7344 204.68 84.6719 204.844 84.5469C205.016 84.4141 205.133 84.3477 205.195 84.3477C205.258 84.3477 205.289 84.4336 205.289 84.6055C205.289 84.7695 205.211 84.9102 205.055 85.0273C203.883 85.8867 203.09 86.3164 202.676 86.3164C202.176 86.3164 201.77 85.7969 201.457 84.7578C201.434 84.6797 201.414 84.6445 201.398 84.6523C200.43 85.3789 199.82 85.8164 199.57 85.9648C198.93 86.332 198.285 86.3906 197.637 86.1406C196.996 85.8906 196.531 85.4766 196.242 84.8984C196.102 84.6016 196.031 84.2852 196.031 83.9492C196.031 83.2852 196.277 82.7578 196.77 82.3672C197.262 81.9766 198.199 81.6016 199.582 81.2422C200.051 81.1172 200.469 80.957 200.836 80.7617C201.203 80.5664 201.395 80.4414 201.41 80.3867C201.434 80.332 201.445 80.2812 201.445 80.2344V77.9844C201.445 77.1016 201.102 76.4805 200.414 76.1211C200.188 76.0039 199.914 75.9453 199.594 75.9453C199.281 75.9453 198.961 76.0703 198.633 76.3203C198.312 76.5703 198.152 76.9258 198.152 77.3867L198.211 77.8438C198.164 77.9375 197.883 78.0938 197.367 78.3125C196.852 78.5312 196.555 78.6484 196.477 78.6641C196.352 78.6641 196.289 78.5156 196.289 78.2188C196.289 77.9141 196.379 77.5781 196.559 77.2109C196.738 76.8438 196.992 76.5078 197.32 76.2031C198.086 75.4922 198.961 75.1367 199.945 75.1367C200.93 75.1367 201.73 75.4102 202.348 75.957C202.965 76.4961 203.273 77.1406 203.273 77.8906V84.0664ZM197.871 83.7266C197.871 84.1016 198.016 84.4297 198.305 84.7109C198.594 84.9844 198.922 85.1211 199.289 85.1211C199.664 85.1211 200.117 84.9648 200.648 84.6523C201.18 84.332 201.445 84.0039 201.445 83.668V81.2891C201.445 81.2031 201.426 81.1602 201.387 81.1602C201.348 81.1602 201.32 81.1641 201.305 81.1719L198.586 82.4375C198.305 82.6406 198.113 82.8125 198.012 82.9531C197.918 83.0938 197.871 83.3516 197.871 83.7266ZM210.738 85.5547C211.105 85.6016 211.289 85.6953 211.289 85.8359C211.289 85.9297 211.25 85.9844 211.172 86H205.945C205.867 85.9844 205.828 85.9297 205.828 85.8359C205.828 85.6953 206.012 85.6016 206.379 85.5547C207.223 85.4297 207.645 84.9844 207.645 84.2188V69.6055C207.645 69.2773 207.465 69.0508 207.105 68.9258C206.949 68.8711 206.781 68.8281 206.602 68.7969C206.422 68.7578 206.277 68.7227 206.168 68.6914C206.066 68.6602 206 68.6328 205.969 68.6094C205.945 68.5781 205.934 68.5195 205.934 68.4336C205.934 68.3398 205.992 68.2617 206.109 68.1992L209.098 66.793C209.191 66.7461 209.25 66.7227 209.273 66.7227C209.406 66.7227 209.473 66.8164 209.473 67.0039V84.2188C209.473 84.9844 209.895 85.4297 210.738 85.5547ZM214.418 79.8242C214.285 79.8242 214.219 80.1094 214.219 80.6797C214.219 81.8906 214.578 82.9062 215.297 83.7266C216.016 84.5469 216.906 84.957 217.969 84.957C219.039 84.957 220.066 84.4961 221.051 83.5742C221.066 83.5586 221.086 83.5508 221.109 83.5508H221.168C221.215 83.5508 221.258 83.5898 221.297 83.668C221.344 83.7383 221.387 83.7852 221.426 83.8086C220.52 84.9102 219.453 85.6719 218.227 86.0938C217.805 86.2422 217.328 86.3164 216.797 86.3164C216.266 86.3164 215.727 86.1719 215.18 85.8828C214.633 85.5859 214.164 85.1992 213.773 84.7227C212.945 83.7305 212.531 82.4961 212.531 81.0195C212.531 79.5352 212.98 78.1836 213.879 76.9648C214.785 75.7461 216.027 75.1367 217.605 75.1367C218.738 75.1367 219.664 75.6445 220.383 76.6602C221.102 77.668 221.461 78.5547 221.461 79.3203C221.461 79.6562 221.379 79.8242 221.215 79.8242H214.418ZM214.547 78.6992C214.547 78.8477 214.617 78.9219 214.758 78.9219H219.176C219.379 78.9219 219.48 78.8008 219.48 78.5586C219.48 77.9961 219.227 77.4219 218.719 76.8359C218.219 76.2422 217.668 75.9453 217.066 75.9453C216.48 75.9453 215.945 76.2109 215.461 76.7422C214.984 77.2734 214.68 77.8789 214.547 78.5586V78.6992ZM224.133 84.8281C224.133 84.4062 224.281 84.043 224.578 83.7383C224.875 83.4258 225.234 83.2695 225.656 83.2695C226.07 83.2695 226.426 83.4219 226.723 83.7266C227.027 84.0234 227.18 84.3867 227.18 84.8164C227.18 85.2461 227.031 85.6055 226.734 85.8945C226.438 86.1758 226.078 86.3164 225.656 86.3164C225.242 86.3164 224.883 86.1719 224.578 85.8828C224.281 85.5938 224.133 85.2422 224.133 84.8281Z" fill="#1B3764"/>
</svg>
